<?xml version="1.0" encoding="UTF-8"?>
<svg xmlns="http://www.w3.org/2000/svg" viewBox="0 0 3894 3660.767">
  <defs>
    <style>
      .cls-1 {
        stroke-width: .5px;
      }

      .cls-1, .cls-2 {
        stroke: #898989;
        stroke-miterlimit: 10;
      }

      .cls-1, .cls-2, .cls-3 {
        fill: none;
      }

      .cls-2 {
        stroke-width: 2.5px;
      }

      .cls-4, .cls-5 {
        fill: #898989;
      }

      .cls-6 {
        font-size: 160px;
        letter-spacing: -.04em;
      }

      .cls-7 {
        font-size: 150px;
        letter-spacing: -.04em;
      }

      .cls-7, .cls-8 {
        fill: #fff;
      }

      .cls-7, .cls-9 {
        font-family: CourierNewPS-BoldMT, 'Courier New';
        font-weight: 700;
      }

      .cls-10 {
        fill: #005a8c;
      }

      .cls-5 {
        font-family: CourierNewPSMT, 'Courier New';
        font-size: 40px;
      }

      .cls-11 {
        font-size: 220px;
        letter-spacing: -.04em;
      }
    </style>
  </defs>
  <g id="descriptions">
    <g id="background">
      <rect class="cls-10" x="3.5" y="251.267" width="3887" height="3406"/>
      <path d="M3887,254.767v3399H7V254.767h3880M3894,247.767H0v3413h3894V247.767h0Z"/>
    </g>
    <text class="cls-7" transform="translate(2157.129 848.993)"><tspan x="0" y="0">Long directional</tspan></text>
    <text class="cls-7" transform="translate(2159.092 1541.097)"><tspan x="0" y="0">Directional</tspan></text>
    <text class="cls-7" transform="translate(2157.092 2424.097)"><tspan x="0" y="0">Double directional</tspan></text>
    <text class="cls-7" transform="translate(2157.092 3292.097)"><tspan x="0" y="0">Roundabout</tspan></text>
    <text class="cls-9" transform="translate(51.092 175.097)"><tspan class="cls-11" x="0" y="0">AWV New Style </tspan><tspan class="cls-6" x="1725.101" y="0">(gantries only)</tspan></text>
  </g>
  <g id="arrows">
    <polygon id="straight_x5F_long" class="cls-8" points="256 381.767 111 611.767 211 611.767 211 1071.767 301 1071.767 301 611.767 401 611.767 256 381.767"/>
    <polygon id="straight" class="cls-8" points="256 1248.767 111 1478.767 206 1478.767 206 1728.767 306 1728.767 306 1478.767 401 1478.767 256 1248.767"/>
    <path id="roundabout_x5F_L" class="cls-8" d="M1735,3266.042c0-86.57-70.43-157-157-157-76.312,0-140.071,54.731-154.112,127h-83.233v-50.776l-122.931,77.5,122.931,77.5v-50.776h82.096c.014.092.026.185.039.276h54.972c-1.803-7.617-2.762-15.557-2.762-23.716v-.018c.005-56.789,46.209-102.99,103-102.99s103,46.206,103,103c0,54.265-42.183,98.859-95.48,102.724h-14.979c-6.709-.485-13.243-1.61-19.539-3.321v3.321h-.003v120h54v-68.055c73.749-12.836,130-77.304,130-154.669Z"/>
    <path id="roundabout_x5F_S" class="cls-8" d="M1058,3269.042c0-77.335-56.207-141.783-129.914-154.655v-83.328h50.776l-77.5-122.931-77.5,122.931h50.776v83.208c-74.062,12.575-130.638,77.187-130.638,154.775,0,8.063.613,15.985,1.791,23.725h54.972c-1.803-7.62-2.763-15.562-2.763-23.725,0-56.794,46.206-103,103-103s103,46.206,103,103c0,54.265-42.183,98.859-95.48,102.724h-14.979c-6.709-.485-13.243-1.61-19.539-3.321v3.321h-.003v120h54v-68.055c73.749-12.836,130-77.304,130-154.669Z"/>
    <path id="roundabout_x5F_R" class="cls-8" d="M610.336,3265.512l-122.931-77.5v50.776h-83.232c-14.041-72.268-77.8-127-154.112-127-86.57,0-157,70.43-157,157,0,77.365,56.251,141.832,130,154.669v68.055s54,0,54,0v-120s-.003,0-.003,0v-3.321c-6.296,1.712-12.83,2.837-19.539,3.321h-14.979c-53.297-3.865-95.48-48.459-95.48-102.724,0-56.794,46.206-103,103-103s102.995,46.201,103,102.99v.018c0,8.16-.96,16.099-2.762,23.716h54.972c.014-.092.026-.185.039-.276h82.096v50.776l122.931-77.5Z"/>
    <polygon id="right_x5F_long" class="cls-8" points="1486.541 894.808 1676.917 703.348 1606.006 632.838 1871 571.983 1811.648 837.317 1740.737 766.807 1576.86 931.767 1576.86 1071.767 1486.86 1071.767 1486.541 894.808"/>
    <polygon id="left_x5F_long" class="cls-8" points="1038.32 894.808 847.943 703.348 918.854 632.838 653.86 571.983 713.212 837.317 784.123 766.807 948 931.767 948 1071.767 1038 1071.767 1038.32 894.808"/>
    <polygon id="right" class="cls-8" points="1498.758 1628.256 1676.116 1452.062 1605.639 1381.119 1871 1321.888 1810.023 1586.854 1739.546 1515.911 1588.85 1665.768 1588.464 1728.767 1498.466 1728.215 1498.758 1628.256"/>
    <polygon id="left" class="cls-8" points="1038.027 1628.256 860.669 1452.062 931.147 1381.119 665.785 1321.888 726.762 1586.854 797.24 1515.911 947.935 1665.768 948.321 1728.767 1038.32 1728.215 1038.027 1628.256"/>
    <polygon id="straight_x5F_right" class="cls-8" points="1099.173 2357.119 1169.65 2428.062 1082 2515.138 1082 2244.767 1182 2244.767 1037 2014.767 892 2244.767 992 2244.767 992 2704.767 1082 2704.767 1082 2704.488 1082.384 2641.768 1233.08 2491.911 1303.558 2562.854 1364.534 2297.888 1099.173 2357.119"/>
    <polygon id="left_x5F_straight" class="cls-8" points="439.827 2357.119 369.35 2428.062 457 2515.138 457 2244.767 357 2244.767 502 2014.767 647 2244.767 547 2244.767 547 2704.767 457 2704.767 457 2704.488 456.616 2641.768 305.92 2491.911 235.442 2562.854 174.466 2297.888 439.827 2357.119"/>
  </g>
  <g id="Dimensions">
    <g id="Manual_Dimension">
      <line class="cls-1" x1="206" y1="1071.767" x2="159" y2="1071.767"/>
      <line class="cls-1" x1="206" y1="611.767" x2="159" y2="611.767"/>
      <text class="cls-5" transform="translate(159 901.776) rotate(-90)"><tspan x="0" y="0" xml:space="preserve"> 460 </tspan></text>
      <g>
        <line class="cls-2" x1="168" y1="620.736" x2="168" y2="1062.797"/>
        <polygon class="cls-4" points="161.767 622.56 167.999 611.767 174.232 622.56 161.767 622.56"/>
        <polygon class="cls-4" points="161.767 1060.973 167.999 1071.767 174.232 1060.973 161.767 1060.973"/>
      </g>
    </g>
    <g id="Manual_Dimension-2" data-name="Manual_Dimension">
      <line class="cls-1" x1="401" y1="616.767" x2="401" y2="726.268"/>
      <line class="cls-1" x1="301" y1="616.767" x2="301" y2="726.268"/>
      <text class="cls-5" transform="translate(290.99 751.348)"><tspan x="0" y="0" xml:space="preserve"> 100 </tspan></text>
      <g>
        <line class="cls-2" x1="309.97" y1="717.268" x2="392.03" y2="717.268"/>
        <polygon class="cls-4" points="311.793 723.501 301 717.268 311.793 711.035 311.793 723.501"/>
        <polygon class="cls-4" points="390.207 723.501 401 717.268 390.207 711.035 390.207 723.501"/>
      </g>
    </g>
    <g id="Manual_Dimension-3" data-name="Manual_Dimension">
      <line class="cls-1" x1="301" y1="1076.767" x2="301" y2="1134.269"/>
      <line class="cls-1" x1="211" y1="1076.767" x2="211" y2="1134.269"/>
      <text class="cls-5" transform="translate(207.992 1159.349)"><tspan x="0" y="0" xml:space="preserve"> 90 </tspan></text>
      <g>
        <line class="cls-2" x1="219.97" y1="1125.269" x2="292.03" y2="1125.269"/>
        <polygon class="cls-4" points="221.793 1131.502 211 1125.27 221.793 1119.037 221.793 1131.502"/>
        <polygon class="cls-4" points="290.207 1131.502 301 1125.27 290.207 1119.037 290.207 1131.502"/>
      </g>
    </g>
    <g id="Manual_Dimension-4" data-name="Manual_Dimension">
      <line class="cls-1" x1="406" y1="611.767" x2="446" y2="611.767"/>
      <line class="cls-1" x1="406" y1="381.767" x2="446" y2="381.767"/>
      <text class="cls-5" transform="translate(471.08 556.776) rotate(-90)"><tspan x="0" y="0" xml:space="preserve"> 230 </tspan></text>
      <g>
        <line class="cls-2" x1="437" y1="390.736" x2="437" y2="602.797"/>
        <polygon class="cls-4" points="430.767 392.56 436.999 381.767 443.232 392.56 430.767 392.56"/>
        <polygon class="cls-4" points="430.767 600.973 436.999 611.767 443.232 600.973 430.767 600.973"/>
      </g>
    </g>
    <g id="Manual_Dimension-5" data-name="Manual_Dimension">
      <line class="cls-1" x1="206" y1="1071.803" x2="62.004" y2="1072.846"/>
      <line class="cls-1" x1="201" y1="381.803" x2="57.004" y2="382.846"/>
      <text class="cls-5" transform="translate(33.729 632.015) rotate(89.585)"><tspan x="0" y="0" xml:space="preserve"> 690,02 </tspan></text>
      <g>
        <line class="cls-2" x1="66.069" y1="391.75" x2="70.939" y2="1063.812"/>
        <polygon class="cls-4" points="59.849 393.619 66.003 382.781 72.314 393.529 59.849 393.619"/>
        <polygon class="cls-4" points="64.693 1062.033 71.003 1072.781 77.158 1061.943 64.693 1062.033"/>
      </g>
    </g>
    <g id="Manual_Dimension-6" data-name="Manual_Dimension">
      <line class="cls-1" x1="201" y1="1248.767" x2="57" y2="1248.767"/>
      <line class="cls-1" x1="201" y1="1728.767" x2="57" y2="1728.767"/>
      <text class="cls-5" transform="translate(57 1548.776) rotate(-90)"><tspan x="0" y="0" xml:space="preserve"> 480 </tspan></text>
      <g>
        <line class="cls-2" x1="66" y1="1719.797" x2="66" y2="1257.736"/>
        <polygon class="cls-4" points="72.233 1717.973 66.001 1728.767 59.768 1717.973 72.233 1717.973"/>
        <polygon class="cls-4" points="72.233 1259.56 66.001 1248.767 59.768 1259.56 72.233 1259.56"/>
      </g>
    </g>
    <g id="Manual_Dimension-7" data-name="Manual_Dimension">
      <line class="cls-1" x1="200.5" y1="1478.767" x2="154" y2="1478.767"/>
      <line class="cls-1" x1="200.5" y1="1728.767" x2="154" y2="1728.767"/>
      <text class="cls-5" transform="translate(154 1663.776) rotate(-90)"><tspan x="0" y="0" xml:space="preserve"> 250 </tspan></text>
      <g>
        <line class="cls-2" x1="163" y1="1719.797" x2="163" y2="1487.736"/>
        <polygon class="cls-4" points="169.233 1717.973 163.001 1728.767 156.768 1717.973 169.233 1717.973"/>
        <polygon class="cls-4" points="169.233 1489.56 163.001 1478.767 156.768 1489.56 169.233 1489.56"/>
      </g>
    </g>
    <g id="Manual_Dimension-8" data-name="Manual_Dimension">
      <line class="cls-1" x1="306" y1="1734.267" x2="306" y2="1789.767"/>
      <line class="cls-1" x1="206" y1="1734.267" x2="206" y2="1789.767"/>
      <text class="cls-5" transform="translate(195.99 1814.847)"><tspan x="0" y="0" xml:space="preserve"> 100 </tspan></text>
      <g>
        <line class="cls-2" x1="214.97" y1="1780.767" x2="297.03" y2="1780.767"/>
        <polygon class="cls-4" points="216.793 1787 206 1780.767 216.793 1774.534 216.793 1787"/>
        <polygon class="cls-4" points="295.207 1787 306 1780.767 295.207 1774.534 295.207 1787"/>
      </g>
    </g>
    <g id="Manual_Dimension-9" data-name="Manual_Dimension">
      <line class="cls-1" x1="401" y1="1484.267" x2="401" y2="1598.767"/>
      <line class="cls-1" x1="306" y1="1484.267" x2="306" y2="1598.767"/>
      <text class="cls-5" transform="translate(305.492 1623.847)"><tspan x="0" y="0" xml:space="preserve"> 95 </tspan></text>
      <g>
        <line class="cls-2" x1="314.97" y1="1589.767" x2="392.03" y2="1589.767"/>
        <polygon class="cls-4" points="316.793 1596 306 1589.767 316.793 1583.534 316.793 1596"/>
        <polygon class="cls-4" points="390.207 1596 401 1589.767 390.207 1583.534 390.207 1596"/>
      </g>
    </g>
    <g id="Manual_Dimension-10" data-name="Manual_Dimension">
      <line class="cls-1" x1="406" y1="1248.767" x2="446" y2="1248.767"/>
      <line class="cls-1" x1="406" y1="1478.767" x2="446" y2="1478.767"/>
      <text class="cls-5" transform="translate(471.08 1423.776) rotate(-90)"><tspan x="0" y="0" xml:space="preserve"> 230 </tspan></text>
      <g>
        <line class="cls-2" x1="437" y1="1469.797" x2="437" y2="1257.736"/>
        <polygon class="cls-4" points="443.233 1467.973 437.001 1478.767 430.768 1467.973 443.233 1467.973"/>
        <polygon class="cls-4" points="443.233 1259.56 437.001 1248.767 430.768 1259.56 443.233 1259.56"/>
      </g>
    </g>
    <g id="Radial_Dimension">
      <path class="cls-1" d="M330.726,3337.43c56.255-65.684,10.584-168.854-75.667-171.627"/>
      <text class="cls-5" transform="translate(343.585 3335.536) rotate(35.377)"><tspan x="0" y="0" xml:space="preserve"> ø 208 </tspan></text>
      <g>
        <line class="cls-2" x1="328.933" y1="3325.133" x2="173.571" y2="3214.818"/>
        <polygon class="cls-4" points="331.055 3318.995 336.247 3330.325 323.838 3329.158 331.055 3318.995"/>
        <polygon class="cls-4" points="178.667 3210.792 166.258 3209.624 171.45 3220.955 178.667 3210.792"/>
      </g>
    </g>
    <g id="Manual_Dimension-11" data-name="Manual_Dimension">
      <line class="cls-1" x1="217.5" y1="3491.767" x2="183" y2="3491.767"/>
      <line class="cls-1" x1="217.5" y1="3423.767" x2="183" y2="3423.767"/>
      <text class="cls-5" transform="translate(183 3505.774) rotate(-90)"><tspan x="0" y="0" xml:space="preserve"> 68 </tspan></text>
      <g>
        <line class="cls-2" x1="192" y1="3432.736" x2="192" y2="3482.797"/>
        <polygon class="cls-4" points="185.767 3434.56 191.999 3423.767 198.232 3434.56 185.767 3434.56"/>
        <polygon class="cls-4" points="185.767 3480.973 191.999 3491.767 198.232 3480.973 185.767 3480.973"/>
      </g>
    </g>
    <g id="Manual_Dimension-12" data-name="Manual_Dimension">
      <line class="cls-1" x1="244.5" y1="3165.767" x2="95" y2="3165.767"/>
      <line class="cls-1" x1="244.5" y1="3111.767" x2="95" y2="3111.767"/>
      <text class="cls-5" transform="translate(95 3186.774) rotate(-90)"><tspan x="0" y="0" xml:space="preserve"> 54 </tspan></text>
      <g>
        <line class="cls-2" x1="104" y1="3120.736" x2="104" y2="3156.797"/>
        <polygon class="cls-4" points="97.767 3122.56 103.999 3111.767 110.232 3122.56 97.767 3122.56"/>
        <polygon class="cls-4" points="97.767 3154.973 103.999 3165.767 110.232 3154.973 97.767 3154.973"/>
      </g>
    </g>
    <g id="Manual_Dimension-13" data-name="Manual_Dimension">
      <line class="cls-1" x1="487" y1="3233.267" x2="487" y2="3156.767"/>
      <line class="cls-1" x1="404" y1="3233.267" x2="404" y2="3156.767"/>
      <text class="cls-5" transform="translate(397.492 3156.767)"><tspan x="0" y="0" xml:space="preserve"> 83 </tspan></text>
      <g>
        <line class="cls-2" x1="412.97" y1="3165.767" x2="478.03" y2="3165.767"/>
        <polygon class="cls-4" points="414.793 3172 404 3165.767 414.793 3159.534 414.793 3172"/>
        <polygon class="cls-4" points="476.207 3172 487 3165.767 476.207 3159.534 476.207 3172"/>
      </g>
    </g>
    <g id="Manual_Dimension-14" data-name="Manual_Dimension">
      <line class="cls-1" x1="481.5" y1="3342.767" x2="436" y2="3342.767"/>
      <line class="cls-1" x1="481.5" y1="3291.767" x2="436" y2="3291.767"/>
      <text class="cls-5" transform="translate(436 3365.274) rotate(-90)"><tspan x="0" y="0" xml:space="preserve"> 51 </tspan></text>
      <g>
        <line class="cls-2" x1="445" y1="3300.736" x2="445" y2="3333.797"/>
        <polygon class="cls-4" points="438.767 3302.56 444.999 3291.767 451.232 3302.56 438.767 3302.56"/>
        <polygon class="cls-4" points="438.767 3331.973 444.999 3342.767 451.232 3331.973 438.767 3331.973"/>
      </g>
    </g>
    <g id="Manual_Dimension-15" data-name="Manual_Dimension">
      <line class="cls-1" x1="610" y1="3347.767" x2="610" y2="3378.767"/>
      <line class="cls-1" x1="487" y1="3347.767" x2="487" y2="3378.767"/>
      <text class="cls-5" transform="translate(488.49 3403.847)"><tspan x="0" y="0" xml:space="preserve"> 123 </tspan></text>
      <g>
        <line class="cls-2" x1="495.97" y1="3369.767" x2="601.03" y2="3369.767"/>
        <polygon class="cls-4" points="497.793 3376 487 3369.767 497.793 3363.534 497.793 3376"/>
        <polygon class="cls-4" points="599.207 3376 610 3369.767 599.207 3363.534 599.207 3376"/>
      </g>
    </g>
    <g id="Manual_Dimension-16" data-name="Manual_Dimension">
      <line class="cls-1" x1="1041.865" y1="891.282" x2="1076.452" y2="856.891"/>
      <line class="cls-1" x1="851.489" y1="699.823" x2="886.075" y2="665.432"/>
      <text class="cls-5" transform="translate(938.951 718.608) rotate(45.162)"><tspan x="0" y="0" xml:space="preserve"> 270 </tspan></text>
      <g>
        <line class="cls-2" x1="886.018" y1="678.138" x2="1063.746" y2="856.877"/>
        <polygon class="cls-4" points="882.884 683.826 879.693 671.778 891.723 675.037 882.884 683.826"/>
        <polygon class="cls-4" points="1058.04 859.978 1070.07 863.237 1066.879 851.189 1058.04 859.978"/>
      </g>
    </g>
    <g id="Manual_Dimension-17" data-name="Manual_Dimension">
      <line class="cls-1" x1="943" y1="1071.767" x2="848" y2="1071.767"/>
      <line class="cls-1" x1="943" y1="931.767" x2="848" y2="931.767"/>
      <text class="cls-5" transform="translate(848 1061.776) rotate(-90)"><tspan x="0" y="0" xml:space="preserve"> 140 </tspan></text>
      <g>
        <line class="cls-2" x1="857" y1="940.736" x2="857" y2="1062.797"/>
        <polygon class="cls-4" points="850.767 942.56 856.999 931.767 863.232 942.56 850.767 942.56"/>
        <polygon class="cls-4" points="850.767 1060.973 856.999 1071.767 863.232 1060.973 850.767 1060.973"/>
      </g>
    </g>
    <g id="Manual_Dimension-18" data-name="Manual_Dimension">
      <line class="cls-1" x1="944.453" y1="935.291" x2="786.076" y2="1092.628"/>
      <line class="cls-1" x1="780.576" y1="770.331" x2="622.199" y2="927.669"/>
      <text class="cls-5" transform="translate(618.675 959.708) rotate(45.189)"><tspan x="0" y="0" xml:space="preserve"> 232,52 </tspan></text>
      <g>
        <line class="cls-2" x1="634.906" y1="927.689" x2="786.139" y2="1079.922"/>
        <polygon class="cls-4" points="631.769 933.376 628.584 921.326 640.612 924.59 631.769 933.376"/>
        <polygon class="cls-4" points="780.432 1083.021 792.46 1086.285 789.275 1074.235 780.432 1083.021"/>
      </g>
    </g>
    <g id="Manual_Dimension-19" data-name="Manual_Dimension">
      <line class="cls-1" x1="1043.5" y1="894.767" x2="1070" y2="894.767"/>
      <line class="cls-1" x1="1043.5" y1="1071.767" x2="1070" y2="1071.767"/>
      <text class="cls-5" transform="translate(1094.845 1043.277) rotate(-90)"><tspan x="0" y="0" xml:space="preserve"> 177 </tspan></text>
      <g>
        <line class="cls-2" x1="1061" y1="1062.797" x2="1061" y2="903.736"/>
        <polygon class="cls-4" points="1067.233 1060.973 1061.001 1071.767 1054.768 1060.973 1067.233 1060.973"/>
        <polygon class="cls-4" points="1067.233 905.56 1061.001 894.767 1054.768 905.56 1067.233 905.56"/>
      </g>
    </g>
    <polyline class="cls-3" points="932 915.767 948 931.767 928 931.767"/>
    <g id="Angular_Dimension">
      <line class="cls-1" x1="923" y1="931.767" x2="847.728" y2="931.767"/>
      <line class="cls-1" x1="928.464" y1="912.231" x2="877.097" y2="860.864"/>
      <text class="cls-5" transform="translate(832.396 948.836) rotate(-67.5)"><tspan x="0" y="0" xml:space="preserve"> 45° </tspan></text>
      <g>
        <path class="cls-2" d="M877.438,873.874c-11.446,13.95-18.502,30.989-20.27,48.946"/>
        <polygon class="cls-4" points="871.632 871.154 883.461 867.227 880.948 879.435 871.632 871.154"/>
        <polygon class="cls-4" points="851.14 920.626 856.728 931.767 863.584 921.358 851.14 920.626"/>
      </g>
    </g>
    <g id="Manual_Dimension-20" data-name="Manual_Dimension">
      <line class="cls-1" x1="1041.551" y1="1624.709" x2="1072.072" y2="1593.986"/>
      <line class="cls-1" x1="864.193" y1="1448.515" x2="894.715" y2="1417.792"/>
      <text class="cls-5" transform="translate(940.821 1463.596) rotate(44.811)"><tspan x="0" y="0" xml:space="preserve"> 250 </tspan></text>
      <g>
        <line class="cls-2" x1="894.735" y1="1430.499" x2="1059.366" y2="1594.049"/>
        <polygon class="cls-4" points="891.636 1436.206 888.371 1424.177 900.421 1427.363 891.636 1436.206"/>
        <polygon class="cls-4" points="1053.679 1597.186 1065.729 1600.371 1062.465 1588.343 1053.679 1597.186"/>
      </g>
    </g>
    <g id="Manual_Dimension-21" data-name="Manual_Dimension">
      <line class="cls-1" x1="944.124" y1="1669.669" x2="806.677" y2="1808.032"/>
      <line class="cls-1" x1="793.124" y1="1519.669" x2="655.677" y2="1658.032"/>
      <text class="cls-5" transform="translate(645.383 1683.158) rotate(44.81)"><tspan x="0" y="0" xml:space="preserve"> 212,84 </tspan></text>
      <g>
        <line class="cls-2" x1="668.383" y1="1657.968" x2="806.656" y2="1795.326"/>
        <polygon class="cls-4" points="665.284 1663.676 662.019 1651.647 674.069 1654.832 665.284 1663.676"/>
        <polygon class="cls-4" points="800.969 1798.462 813.019 1801.647 809.754 1789.619 800.969 1798.462"/>
      </g>
    </g>
    <g id="Manual_Dimension-22" data-name="Manual_Dimension">
      <line class="cls-1" x1="942.5" y1="1665.767" x2="846" y2="1665.767"/>
      <line class="cls-1" x1="942.5" y1="1728.767" x2="846" y2="1728.767"/>
      <text class="cls-5" transform="translate(846 1745.274) rotate(-90)"><tspan x="0" y="0" xml:space="preserve"> 63 </tspan></text>
      <g>
        <line class="cls-2" x1="855" y1="1719.797" x2="855" y2="1674.736"/>
        <polygon class="cls-4" points="861.233 1717.973 855.001 1728.767 848.768 1717.973 861.233 1717.973"/>
        <polygon class="cls-4" points="861.233 1676.56 855.001 1665.767 848.768 1676.56 861.233 1676.56"/>
      </g>
    </g>
    <polyline class="cls-3" points="892 1609.767 948 1665.767 889 1665.767"/>
    <g id="Angular_Dimension-2" data-name="Angular_Dimension">
      <line class="cls-1" x1="884" y1="1665.767" x2="845.592" y2="1665.767"/>
      <line class="cls-1" x1="888.464" y1="1606.231" x2="875.587" y2="1593.353"/>
      <text class="cls-5" transform="translate(830.423 1682.019) rotate(-67.5)"><tspan x="0" y="0" xml:space="preserve"> 45° </tspan></text>
      <g>
        <path class="cls-2" d="M875.92,1606.357c-11.835,14.359-19.115,31.935-20.898,50.457"/>
        <polygon class="cls-4" points="870.115 1603.625 881.95 1599.717 879.419 1611.921 870.115 1603.625"/>
        <polygon class="cls-4" points="848.987 1654.634 854.592 1665.767 861.432 1655.347 848.987 1654.634"/>
      </g>
    </g>
  </g>
</svg>