<?xml version="1.0" encoding="UTF-8"?>
<svg xmlns="http://www.w3.org/2000/svg" viewBox="0 0 920.86 824">
  <defs>
    <style>
      .cls-1 {
        letter-spacing: -.024em;
      }

      .cls-2 {
        letter-spacing: .035em;
      }

      .cls-3 {
        letter-spacing: -.011em;
      }

      .cls-4 {
        font-family: Arial-BoldMT, Arial;
        font-size: 59.227px;
        letter-spacing: .02em;
      }

      .cls-4, .cls-5, .cls-6, .cls-7, .cls-8, .cls-9, .cls-10, .cls-11, .cls-12, .cls-13, .cls-14, .cls-15 {
        fill: #fff;
      }

      .cls-4, .cls-7, .cls-12, .cls-13, .cls-14 {
        font-weight: 700;
      }

      .cls-16 {
        letter-spacing: -.007em;
      }

      .cls-17 {
        letter-spacing: -.02em;
      }

      .cls-18 {
        letter-spacing: .055em;
      }

      .cls-19 {
        fill: #005b8d;
      }

      .cls-20 {
        letter-spacing: 0em;
      }

      .cls-5 {
        font-size: 69.528px;
        letter-spacing: .01em;
      }

      .cls-5, .cls-10, .cls-21, .cls-15 {
        font-family: SnvBeckerCondensed, 'Snv Becker';
      }

      .cls-22, .cls-23 {
        fill: #0062ff;
      }

      .cls-24 {
        letter-spacing: .07em;
      }

      .cls-6 {
        font-size: 53.307px;
      }

      .cls-6, .cls-11, .cls-25 {
        font-family: SnvBeckerRegular, 'Snv Becker';
      }

      .cls-7, .cls-26, .cls-27, .cls-28 {
        font-size: 48.927px;
      }

      .cls-7, .cls-12, .cls-13, .cls-14 {
        font-family: InfoDisplayWebW04-Bold, InfoDisplayWebW04-Bold;
      }

      .cls-29 {
        letter-spacing: -.008em;
      }

      .cls-30 {
        letter-spacing: .022em;
      }

      .cls-31 {
        letter-spacing: .007em;
      }

      .cls-32 {
        letter-spacing: -.02em;
      }

      .cls-9, .cls-23, .cls-33 {
        fill-rule: evenodd;
      }

      .cls-34 {
        letter-spacing: -.058em;
      }

      .cls-35 {
        letter-spacing: .065em;
      }

      .cls-36 {
        letter-spacing: -.025em;
      }

      .cls-37 {
        letter-spacing: .085em;
      }

      .cls-10 {
        font-size: 64.377px;
      }

      .cls-38 {
        letter-spacing: .065em;
      }

      .cls-39 {
        letter-spacing: .055em;
      }

      .cls-40 {
        letter-spacing: .075em;
      }

      .cls-41 {
        letter-spacing: .06em;
      }

      .cls-42 {
        font-size: 33.476px;
      }

      .cls-43 {
        letter-spacing: .07em;
      }

      .cls-44 {
        font-size: 38.626px;
        letter-spacing: .01em;
      }

      .cls-45 {
        letter-spacing: -.02em;
      }

      .cls-46 {
        letter-spacing: .075em;
      }

      .cls-47 {
        letter-spacing: .075em;
      }

      .cls-48 {
        letter-spacing: .055em;
      }

      .cls-49 {
        letter-spacing: .009em;
      }

      .cls-50 {
        letter-spacing: .06em;
      }

      .cls-11 {
        font-size: 37.162px;
        letter-spacing: .065em;
      }

      .cls-51 {
        letter-spacing: .07em;
      }

      .cls-21 {
        font-size: 59.227px;
      }

      .cls-52 {
        letter-spacing: .06em;
      }

      .cls-12 {
        font-size: 51.947px;
      }

      .cls-53 {
        fill: #00a650;
      }

      .cls-54 {
        fill: none;
        stroke: #000;
        stroke-linecap: round;
        stroke-linejoin: round;
        stroke-width: .041px;
      }

      .cls-55 {
        letter-spacing: .08em;
      }

      .cls-56 {
        letter-spacing: .05em;
      }

      .cls-13, .cls-57 {
        font-size: 51.502px;
      }

      .cls-58 {
        letter-spacing: -.01em;
      }

      .cls-59 {
        font-family: InfoDisplayWebW04-Medium, InfoDisplayWebW04-Medium;
        font-size: 34.506px;
        font-weight: 500;
      }

      .cls-60 {
        letter-spacing: .075em;
      }

      .cls-25 {
        font-size: 61.802px;
      }

      .cls-61 {
        letter-spacing: .085em;
      }

      .cls-27 {
        letter-spacing: -.01em;
      }

      .cls-62 {
        letter-spacing: .06em;
      }

      .cls-63 {
        letter-spacing: -.01em;
      }

      .cls-64 {
        letter-spacing: .075em;
      }

      .cls-65 {
        letter-spacing: .045em;
      }

      .cls-66 {
        letter-spacing: .065em;
      }

      .cls-67 {
        letter-spacing: .003em;
      }

      .cls-57 {
        letter-spacing: .01em;
      }

      .cls-28 {
        letter-spacing: -.02em;
      }

      .cls-68 {
        letter-spacing: -.022em;
      }
    </style>
  </defs>
  <g id="new">
    <g id="chc_notre_dame" data-name="chc notre dame">
      <path class="cls-53" d="M432.433,260.6H90.345c-1.733,0-3.413-.614-4.756-1.738l-27.13-17.498c-.631-.407-1.234-.865-1.754-1.413-4.172-4.399-4.172-11.468,0-15.867.52-.548,1.123-1.006,1.754-1.413l27.13-17.498c1.343-1.124,3.023-1.738,4.756-1.738h342.088c5.478,0,9.919,4.559,9.919,10.182v36.802c0,5.624-4.441,10.182-9.919,10.182Z"/>
      <path class="cls-8" d="M430.709,258.576H91.153c-1.61,0-3.171-.57-4.419-1.615l-25.21-16.26c-.586-.378-1.147-.804-1.63-1.313-3.877-4.088-3.877-10.656,0-14.744.483-.509,1.043-.935,1.63-1.313l25.21-16.26c1.248-1.045,2.809-1.615,4.419-1.615h339.556c5.09,0,9.217,4.236,9.217,9.462v34.197c0,5.226-4.127,9.462-9.217,9.462Z"/>
      <path class="cls-53" d="M428.333,256.553H92.449c-1.588,0-3.128-.527-4.359-1.492,0,0-15.954-15.763-16.431-16.234-3.823-3.776-3.823-9.844,0-13.621.476-.471,16.431-16.234,16.431-16.234,1.231-.965,2.77-1.492,4.359-1.492h335.884c5.021,0,9.091,3.913,9.091,8.741v31.591c0,4.827-4.07,8.741-9.091,8.741Z"/>
      <rect class="cls-8" x="369.44" y="230.986" width="53.12" height="2.06" transform="translate(163.984 628.016) rotate(-90)"/>
      <rect class="cls-8" x="97.804" y="212.188" width="288.411" height="39.656" rx="4.669" ry="4.669"/>
      <text class="cls-59" transform="translate(100.762 242.83) scale(.984) skewX(-10.201)"><tspan class="cls-39" x="0" y="0">C</tspan><tspan class="cls-35" x="18.392" y="0">H</tspan><tspan class="cls-56" x="39.923" y="0">C</tspan><tspan class="cls-35" x="58.143" y="0" xml:space="preserve"> No</tspan><tspan class="cls-50" x="109.314" y="0">t</tspan><tspan class="cls-2" x="120.701" y="0">r</tspan><tspan class="cls-35" x="133.33" y="0">e-</tspan><tspan class="cls-39" x="166.249" y="0">D</tspan><tspan class="cls-35" x="186.849" y="0">ame</tspan></text>
      <rect class="cls-22" x="358.919" y="217.011" width="23.176" height="30.162" rx=".445" ry=".445"/>
      <text class="cls-11" transform="translate(359.575 244.763) scale(.968 1)"><tspan x="0" y="0">H</tspan></text>
      <polygon class="cls-9" points="412.784 225.415 415.435 210.887 416.669 210.887 416.052 225.415 412.784 225.415"/>
      <polygon class="cls-9" points="421.85 225.415 419.197 210.887 417.963 210.887 418.58 225.415 421.85 225.415"/>
      <polygon class="cls-9" points="404.026 228.922 404.026 226.834 429.991 226.834 429.991 228.922 427.462 228.922 427.647 232.847 425.551 232.847 425.736 228.922 408.836 228.922 409.022 232.68 406.739 232.68 406.986 228.922 404.026 228.922"/>
      <polygon class="cls-9" points="407.911 252.137 411.796 231.009 415.867 231.009 414.818 252.137 407.911 252.137"/>
      <polygon class="cls-9" points="426.721 252.137 422.836 231.009 418.765 231.009 419.814 252.137 426.721 252.137"/>
    </g>
    <g id="trilogiport">
      <path class="cls-53" d="M430.202,322.794H88.114c-1.733,0-3.413-.614-4.756-1.738l-27.13-17.498c-.631-.407-1.234-.865-1.754-1.413-4.172-4.399-4.172-11.468,0-15.867.52-.548,1.123-1.006,1.754-1.413l27.13-17.498c1.343-1.124,3.023-1.738,4.756-1.738h342.088c5.478,0,9.919,4.559,9.919,10.182v36.802c0,5.624-4.441,10.182-9.919,10.182Z"/>
      <path class="cls-8" d="M428.478,320.771H88.922c-1.61,0-3.171-.57-4.419-1.615l-25.21-16.26c-.586-.378-1.147-.804-1.63-1.313-3.877-4.088-3.877-10.656,0-14.744.483-.509,1.043-.935,1.63-1.313l25.21-16.26c1.248-1.045,2.809-1.615,4.419-1.615h339.556c5.09,0,9.217,4.236,9.217,9.462v34.197c0,5.226-4.127,9.462-9.217,9.462Z"/>
      <path class="cls-53" d="M426.102,318.747H90.218c-1.588,0-3.128-.527-4.359-1.492,0,0-15.954-15.763-16.431-16.234-3.823-3.776-3.823-9.844,0-13.621.476-.471,16.431-16.234,16.431-16.234,1.231-.965,2.77-1.492,4.359-1.492h335.884c5.021,0,9.091,3.913,9.091,8.741v31.591c0,4.827-4.07,8.741-9.091,8.741Z"/>
      <rect class="cls-8" x="367.209" y="293.18" width="53.12" height="2.06" transform="translate(99.559 687.979) rotate(-90)"/>
      <rect class="cls-8" x="105.188" y="274.382" width="269.181" height="39.656" rx="4.669" ry="4.669"/>
      <text class="cls-59" transform="translate(115.528 305.025) scale(.984) skewX(-10.201)"><tspan class="cls-65" x="0" y="0">T</tspan><tspan class="cls-37" x="16.528" y="0">r</tspan><tspan class="cls-40" x="30.883" y="0">il</tspan><tspan class="cls-55" x="52.724" y="0">o</tspan><tspan class="cls-40" x="71.702" y="0">gipo</tspan><tspan class="cls-37" x="139.816" y="0">r</tspan><tspan class="cls-40" x="154.17" y="0">t</tspan></text>
      <polygon class="cls-9" points="410.553 287.609 413.204 273.081 414.438 273.081 413.821 287.609 410.553 287.609"/>
      <polygon class="cls-9" points="419.619 287.609 416.966 273.081 415.732 273.081 416.349 287.609 419.619 287.609"/>
      <polygon class="cls-9" points="401.795 291.117 401.795 289.028 427.761 289.028 427.761 291.117 425.231 291.117 425.416 295.041 423.32 295.041 423.505 291.117 406.606 291.117 406.791 294.874 404.508 294.874 404.755 291.117 401.795 291.117"/>
      <polygon class="cls-9" points="405.68 314.331 409.566 293.203 413.636 293.203 412.587 314.331 405.68 314.331"/>
      <polygon class="cls-9" points="424.49 314.331 420.605 293.203 416.535 293.203 417.583 314.331 424.49 314.331"/>
      <g>
        <g id="g56">
          <path id="path58" class="cls-33" d="M361.732,303.181v4.309l-.075.045c-.68.505-.368,1.559.475,1.615h.091c.845-.06,1.151-1.106.475-1.615l-.075-.045v-5.2h-12.792v3.743h-.309v4.008h1.517v-4.008h-.317v-2.853h11.011"/>
        </g>
        <g id="g60">
          <path id="path62" class="cls-33" d="M360.57,304.781h.06l.015-.008c.062-.003.134-.056.181-.091l.008-.015.03-.03.008-.015.008-.015.008-.015.008-.023.008-.015.008-.015.008-.023.008-.015v-.038l.008-.015v-.038l-.008-.023v-.038l-.015-.03-.008-.023-.008-.015-.008-.015-.008-.023-.008-.015-.008-.015-.053-.053c-.055-.051-.13-.086-.204-.091h-8.023c-.04.007-.168.053-.181.091l-.015.015-.015.008c-.05.057-.078.13-.091.204v.098l.015.03v.023l.008.015.008.015.008.023.008.015.015.015.015.03.03.03.015.008.008.015.015.008.015.015.023.008.045.023.023.008.015.008h.015l.023.008h7.985"/>
        </g>
        <g id="g64">
          <path id="path66" class="cls-33" d="M360.932,305.853v-.015l-.008-.023v-.015c-.024-.169-.182-.313-.355-.302h-7.97c-.054,0-.145.045-.189.075l-.008.015-.015.015-.015.008-.015.015-.015.03-.015.015-.008.023-.023.045v.023l-.008.015-.008.023v.106c.028.09.027.11.091.189l.015.008.015.015.008.015.015.008.015.015.023.008.045.023.023.008.015.008h.015l.023.008h7.985c.176.008.329-.129.355-.302v-.015l.008-.015v-.023"/>
        </g>
        <g id="g68">
          <path id="path70" class="cls-33" d="M348.94,287.936v11.675h6.551l.249-11.872c.076-1.403,2.109-1.399,2.181,0l.257,12.423.045.023.038.03.038.023c.498.391.464,1.13-.068,1.472l-.038.023-.045.023c-.568.266-1.219-.098-1.275-.725l-.008-.053v-.045l.008-.045v-.045l.008-.045c.057-.268.179-.453.408-.604l-.257-12.423v-.045l-.008-.008v-.015l-.008-.008v-.015l-.008-.008v-.008l-.023-.023v-.008l-.008-.008h-.008l-.023-.023h-.008l-.008-.008h-.008l-.015-.008h-.015l-.008-.008h-.068c-.067-.005-.032.01-.075.008l-.008.008h-.008l-.015.015h-.008l-.03.03-.008.008v.008l-.015.015v.008l-.008.008v.008l-.008.008v.023l-.008.008v.03l-.264,12.74h-7.426v5.532h.309v4.008h-1.509v-4.008h.309v-11.411h-2.838l-.023.038-.03.038c-.492.677-1.566.364-1.608-.475l-.008-.045.008-.045c.042-.839,1.101-1.154,1.608-.483l.03.045.023.038h2.838v-1.781h-2.838l-.023.038-.03.038c-.489.675-1.57.359-1.608-.475l-.008-.045.008-.053c.037-.834,1.118-1.15,1.608-.475l.03.038.023.038h2.838v-2.226h-5.932v7.517l.045.03.038.023c.671.514.367,1.542-.475,1.615h-.098c-.867-.072-1.156-1.157-.438-1.638l.038-.03v-8.407h7.713"/>
        </g>
        <g id="g72">
          <path id="path74" class="cls-33" d="M339.445,299.347h4.083l2.74,3.268v3.419h-.317v4.008h1.517v-4.008h-.309v-3.743l-3.215-3.834h-5.389v9.034l-.075.045c-.676.509-.369,1.555.475,1.615h.091c.843-.056,1.156-1.11.475-1.615l-.075-.045v-8.143"/>
        </g>
        <g id="g76">
          <path id="path78" class="cls-33" d="M357.634,284.902l-.015-.136-.038-.136c-.273-.765-1.401-.669-1.54.136l-.015.136.015.143c.138.805,1.266.901,1.54.136l.038-.136.015-.143"/>
        </g>
        <g id="g80">
          <path id="path82" class="cls-54" d="M357.181,278.231l-.008-.023-.015-.03c-.076-.218-.36-.295-.543-.151l-.015.008-.03.03-.008.015c-.026.028-.045.055-.06.091l-.008.023-.008.015v.015l-.272,1.789-.053.46-.038.468-.008.392v2.475l.008.008v.015l.008.015v.008l.008.008v.008l.015.015v.008l.015.015.008.008h.008l.008.008.015.015h.008l.008.008h.008l.008.008h.03l.008.008h.038l.008-.008h.03l.008-.008h.008l.008-.008.045-.015.053-.023.106-.03c.107-.036.221-.03.332-.03l.06.008.053.008c.068.025.22.048.272.091h.015l.008.008h.015l.008.008h.053l.008-.008h.015l.008-.008c.019-.003.038-.012.053-.023l.008-.008.008-.008.008-.008v-.008c.014-.013.028-.027.03-.045l.008-.008v-.008c.003-.031.01-.007.008-.053v-2.445l-.015-.46-.03-.468-.053-.392-.272-1.796"/>
          <g id="g84">
            <path id="path86" class="cls-54" d="M350.872,287.944l-.015.015-.008.015-.015.015-.008.015c-.046.047-.059.127-.068.189v.038l.008.015v.023l.008.015v.023l.008.015.008.015.008.023.015.03.015.015.008.015.015.015.008.015.015.015.015.008.015.015.015.008.015.015.045.023.023.008.015.008h.015l.023.008h.038l.015.008h.023l.015-.008h.038l.015-.008h.023l1.675-.664.43-.181.423-.204.347-.189,2.113-1.223.008-.008h.008l.015-.015.008-.008.023-.023v-.008l.015-.015v-.008l.008-.008v-.015l.008-.015v-.068l-.008-.015v-.015l-.008-.008v-.008l-.015-.015v-.008l-.038-.038c-.175-.125-.304-.273-.385-.475l-.023-.053-.015-.053-.03-.106-.008-.06-.008-.053v-.03l-.008-.008v-.015l-.008-.008-.008-.008v-.015l-.008-.008-.008-.008v-.008h-.008l-.03-.03h-.008l-.008-.008-.008-.008h-.015l-.015-.008h-.015l-.008-.008h-.045l-.015.008h-.015l-.008.008h-.008l-.008.008h-.015l-2.113,1.223-.4.249-.385.264-.317.234-1.419,1.132"/>
            <g id="g88">
              <path id="path90" class="cls-54" d="M362.441,288.547l.015.008h.038l.023.008c.086.005.034-.011.106-.008l.023-.008.015-.008c.032-.017.073-.023.098-.053l.015-.008.03-.03.008-.015c.026-.028.045-.055.06-.091l.008-.015.008-.023c.007-.041.008-.066.015-.106l-.008-.023v-.038l-.008-.015v-.023l-.008-.015c-.027-.064-.015-.043-.053-.098l-.015-.015-.008-.015-.015-.015-1.411-1.125-.37-.279-.392-.257-.34-.211-2.113-1.223h-.008l-.008-.008h-.008l-.008-.008h-.023l-.008-.008h-.053l-.015.008h-.015l-.008.008h-.008l-.008.008h-.008l-.015.008-.008.008h-.008v.008l-.03.03v.008l-.015.015v.008l-.008.008v.023l-.008.008v.023l-.008.053-.008.053-.015.053-.008.053-.023.06c-.017.066-.11.248-.158.294l-.03.038-.038.045c-.062.055-.122.11-.189.158h-.008l-.015.015v.008l-.015.015v.008l-.008.008v.015l-.008.008v.015l-.008.008v.068l.008.008v.023l.008.008c.002.018.016.032.03.045v.008l.008.008.008.008h.008l.015.015h.008l2.113,1.223.408.219.423.204.37.151,1.683.664"/>
            </g>
          </g>
        </g>
        <g id="g92">
          <path id="path94" class="cls-33" d="M357.181,278.231l-.008-.023-.015-.03c-.076-.218-.36-.295-.543-.151l-.015.008-.03.03-.008.015c-.026.028-.045.055-.06.091l-.008.023-.008.015v.015l-.272,1.789-.053.46-.038.468-.008.392v2.475l.008.008v.015l.008.015v.008l.008.008v.008l.015.015v.008l.015.015.008.008h.008l.008.008.015.015h.008l.008.008h.008l.008.008h.03l.008.008h.038l.008-.008h.03l.008-.008h.008l.008-.008.045-.015.053-.023.106-.03c.107-.036.221-.03.332-.03l.06.008.053.008c.068.025.22.048.272.091h.015l.008.008h.015l.008.008h.053l.008-.008h.015l.008-.008c.019-.003.038-.012.053-.023l.008-.008.008-.008.008-.008v-.008c.014-.013.028-.027.03-.045l.008-.008v-.008c.003-.031.01-.007.008-.053v-2.445l-.015-.46-.03-.468-.053-.392-.272-1.789.008.008"/>
        </g>
        <g id="g96">
          <path id="path98" class="cls-33" d="M350.872,287.944l-.015.015-.008.015-.015.015-.008.015c-.046.047-.059.127-.068.189v.038l.008.015v.023l.008.015v.023l.008.015.008.015.008.023.015.03.015.015.008.015.015.015.008.015.015.015.015.008.015.015.015.008.015.015.045.023.023.008.015.008h.015l.023.008h.038l.015.008h.023l.015-.008h.038l.015-.008h.023l1.675-.664.43-.181.423-.204.347-.189,2.113-1.223.008-.008h.008l.015-.015.008-.008.023-.023v-.008l.015-.015v-.008l.008-.008v-.015l.008-.015v-.068l-.008-.015v-.015l-.008-.008v-.008l-.015-.015v-.008l-.038-.038c-.175-.125-.304-.273-.385-.475l-.023-.053-.015-.053-.03-.106-.008-.06-.008-.053v-.03l-.008-.008v-.015l-.008-.008-.008-.008v-.015l-.008-.008-.008-.008v-.008h-.008l-.03-.03h-.008l-.008-.008-.008-.008h-.015l-.015-.008h-.015l-.008-.008h-.045l-.015.008h-.015l-.008.008h-.008l-.008.008h-.015l-2.113,1.223-.4.249-.385.264-.317.234-1.411,1.125"/>
        </g>
        <g id="g100">
          <path id="path102" class="cls-33" d="M362.441,288.547l.015.008h.038l.023.008c.086.005.034-.011.106-.008l.023-.008.015-.008c.032-.017.073-.023.098-.053l.015-.008.03-.03.008-.015c.026-.028.045-.055.06-.091l.008-.015.008-.023c.007-.041.008-.066.015-.106l-.008-.023v-.038l-.008-.015v-.023l-.008-.015c-.027-.064-.015-.043-.053-.098l-.015-.015-.008-.015-.015-.015-1.411-1.125-.37-.279-.392-.257-.34-.211-2.113-1.223h-.008l-.008-.008h-.008l-.008-.008h-.023l-.008-.008h-.053l-.015.008h-.015l-.008.008h-.008l-.008.008h-.008l-.015.008-.008.008h-.008v.008l-.03.03v.008l-.015.015v.008l-.008.008v.023l-.008.008v.023l-.008.053-.008.053-.015.053-.008.053-.023.06c-.017.066-.11.248-.158.294l-.03.038-.038.045c-.062.055-.122.11-.189.158h-.008l-.015.015v.008l-.015.015v.008l-.008.008v.015l-.008.008v.015l-.008.008v.068l.008.008v.023l.008.008c.002.018.016.032.03.045v.008l.008.008.008.008h.008l.015.015h.008l2.113,1.223.408.219.423.204.37.151,1.675.664"/>
        </g>
      </g>
    </g>
    <g id="maastricht_visé" data-name="maastricht visé">
      <path class="cls-53" d="M432.799,198.232H90.711c-1.733,0-3.723.051-4.756-1.738,0,0-22.658-39.413-28.884-47.238-3.775-4.744-3.204-10.72,0-15.867,4.166-6.694,28.884-47.238,28.884-47.238,1.033-1.687,3.023-1.738,4.756-1.738h342.088c5.478,0,9.919,4.559,9.919,10.182v93.454c0,5.624-4.441,10.182-9.919,10.182Z"/>
      <path class="cls-8" d="M431.076,196.208H91.52c-1.61,0-3.501.014-4.419-1.615,0,0-23.803-41.118-26.84-45.899-3.02-4.756-2.843-9.88,0-14.744,3.036-5.195,26.84-45.899,26.84-45.899,1.433-2.043,2.809-1.615,4.419-1.615h339.556c5.09,0,9.216,4.132,9.216,9.358v90.953c0,5.226-4.126,9.462-9.216,9.462Z"/>
      <path class="cls-53" d="M427.67,193.255H92.816c-1.588,0-3.767-.022-4.359-1.466,0,0-6.619-18.228-14.371-43.777-1.536-5.063-1.668-8.36,0-13.381,13.417-40.383,14.371-43.777,14.371-43.777.591-1.85,2.77-1.466,4.359-1.466h334.854c5.021,0,9.017,3.474,9.017,8.217l.074,87.062c0,4.742-4.07,8.587-9.091,8.587Z"/>
      <rect class="cls-8" x="316.803" y="140.336" width="109.685" height="2.06" transform="translate(230.28 513.012) rotate(-90)"/>
      <text class="cls-13" transform="translate(187.663 187.131)"><tspan class="cls-48" x="0" y="0">V</tspan><tspan class="cls-41" x="29.974" y="0">i</tspan><tspan class="cls-46" x="45.94" y="0">sé</tspan></text>
      <text class="cls-13" transform="translate(105.099 133.185)"><tspan class="cls-66" x="0" y="0">M</tspan><tspan class="cls-51" x="41.305" y="0">a</tspan><tspan class="cls-38" x="68.55" y="0">a</tspan><tspan class="cls-48" x="95.537" y="0">s</tspan><tspan class="cls-24" x="118.713" y="0">t</tspan><tspan class="cls-61" x="136.79" y="0">r</tspan><tspan class="cls-60" x="158.935" y="0">i</tspan><tspan class="cls-38" x="175.673" y="0">c</tspan><tspan class="cls-52" x="198.952" y="0">h</tspan><tspan class="cls-38" x="226.505" y="0">t</tspan></text>
      <polygon class="cls-9" points="398.179 130.131 402.367 104.034 404.316 104.034 403.341 130.131 398.179 130.131"/>
      <polygon class="cls-9" points="412.498 130.131 408.308 104.034 406.36 104.034 407.334 130.131 412.498 130.131"/>
      <polygon class="cls-9" points="384.347 136.431 384.347 132.68 425.356 132.68 425.356 136.431 421.361 136.431 421.653 143.481 418.343 143.481 418.635 136.431 391.945 136.431 392.238 143.182 388.632 143.182 389.022 136.431 384.347 136.431"/>
      <polygon class="cls-9" points="390.484 178.131 396.62 140.179 403.049 140.179 401.392 178.131 390.484 178.131"/>
      <polygon class="cls-9" points="420.192 178.131 414.055 140.179 407.626 140.179 409.283 178.131 420.192 178.131"/>
    </g>
    <g id="argenteau">
      <path class="cls-19" d="M498.829,142.078h342.088c1.733,0,3.413-.614,4.756-1.738l27.13-17.498c.631-.407,1.234-.865,1.754-1.413,4.172-4.399,4.172-11.468,0-15.867-.52-.548-1.123-1.006-1.754-1.413l-27.13-17.498c-1.343-1.124-3.023-1.738-4.756-1.738h-342.088c-5.478,0-9.919,4.559-9.919,10.182v36.802c0,5.624,4.441,10.182,9.919,10.182Z"/>
      <path class="cls-8" d="M500.552,140.055h339.556c1.61,0,3.171-.57,4.419-1.615l25.21-16.26c.586-.378,1.147-.804,1.63-1.313,3.877-4.088,3.877-10.656,0-14.744-.483-.509-1.043-.935-1.63-1.313l-25.21-16.26c-1.248-1.045-2.809-1.615-4.419-1.615h-339.556c-5.09,0-9.217,4.236-9.217,9.462v34.197c0,5.226,4.127,9.462,9.217,9.462Z"/>
      <path class="cls-19" d="M502.928,138.031h335.884c1.588,0,3.128-.527,4.359-1.492,0,0,15.954-15.763,16.431-16.234,3.823-3.776,3.823-9.844,0-13.621-.476-.471-16.431-16.234-16.431-16.234-1.231-.965-2.77-1.492-4.359-1.492h-335.884c-5.021,0-9.091,3.913-9.091,8.741v31.591c0,4.827,4.07,8.741,9.091,8.741Z"/>
      <rect class="cls-19" x="600.978" y="135.965" width="22.661" height="5.15"/>
      <text class="cls-12" transform="translate(548.502 130.209) skewX(-7.504)"><tspan class="cls-47" x="0" y="0">A</tspan><tspan class="cls-18" x="32.414" y="0">r</tspan><tspan class="cls-64" x="53.193" y="0">ge</tspan><tspan class="cls-62" x="108.931" y="0">n</tspan><tspan class="cls-43" x="136.723" y="0">te</tspan><tspan class="cls-47" x="181.656" y="0">au</tspan></text>
    </g>
    <g id="n653">
      <rect class="cls-19" x="637.029" width="82.403" height="51.502" rx="10.188" ry="10.188"/>
      <rect class="cls-8" x="640.634" y="3.09" width="74.678" height="45.322" rx="8.263" ry="8.263"/>
      <rect class="cls-19" x="642.179" y="4.635" width="71.588" height="42.232" rx="6.751" ry="6.751"/>
      <text class="cls-14" transform="translate(646.406 42.53) scale(.75 1)"><tspan class="cls-42" x="0" y="0">N</tspan><tspan class="cls-27" x="19.047" y="0">6</tspan><tspan class="cls-28" x="41.26" y="0">5</tspan><tspan class="cls-26" x="62.935" y="0">3</tspan></text>
    </g>
    <g id="e25">
      <rect class="cls-53" x="345.013" width="82.403" height="51.502" rx="10.188" ry="10.188"/>
      <rect class="cls-8" x="348.618" y="3.09" width="74.678" height="45.322" rx="8.263" ry="8.263"/>
      <rect class="cls-53" x="350.163" y="4.635" width="71.588" height="42.232" rx="6.751" ry="6.751"/>
      <text class="cls-7" transform="translate(353.361 42.53)"><tspan class="cls-63" x="0" y="0">E</tspan><tspan class="cls-45" x="22.114" y="0">2</tspan><tspan class="cls-58" x="43.74" y="0">5</tspan></text>
    </g>
  </g>
  <g id="old">
    <g id="maastricht_visé-2" data-name="maastricht visé">
      <path class="cls-53" d="M80.409,607.723h349.426c7.198,0,13.032-5.835,13.032-13.032v-113.506c0-7.198-5.835-13.032-13.032-13.032H80.516c-6.341,0-12.443,2.419-17.061,6.763l-61.185,57.546c-3.034,3.216-3.025,8.243.021,11.447l61.116,57.107c4.612,4.31,10.689,6.707,17.002,6.707Z"/>
      <path class="cls-8" d="M80.409,604.117h349.168c5.349,0,9.685-4.336,9.685-9.685v-113.506c0-5.349-4.336-9.685-9.685-9.685H80.516c-6.341,0-12.443,3.964-17.061,8.308l-58.095,54.456c-3.034,3.216-3.025,5.153.021,8.357l58.026,53.502c4.612,4.31,10.689,8.252,17.002,8.252Z"/>
      <path class="cls-53" d="M80.409,600.512h348.933c3.487,0,6.315-2.827,6.315-6.315v-113.551c0-3.487-2.827-6.315-6.315-6.315H80.516c-4.443,0-8.941,2.231-12.548,5.12-2.61,2.09-4.155,3.635-6.138,6.335l-33.294,48.218c-1.804,3.159-1.804,5.219.021,8.357l32.977,46.442c3.309,3.982,5.369,6.042,9.737,8.425,2.813,1.535,5.982,3.282,9.139,3.282Z"/>
      <text class="cls-10" transform="translate(105.315 527.899)"><tspan x="0" y="0">Maa</tspan><tspan class="cls-29" x="86.13" y="0">s</tspan><tspan x="109.266" y="0">t</tspan><tspan class="cls-31" x="127.655" y="0">r</tspan><tspan class="cls-20" x="146.169" y="0">i</tspan><tspan class="cls-16" x="158.711" y="0">c</tspan><tspan x="181.91" y="0">ht</tspan></text>
      <text class="cls-10" transform="translate(173.392 592.262)"><tspan class="cls-67" x="0" y="0">V</tspan><tspan class="cls-20" x="27.788" y="0">isé</tspan></text>
      <rect class="cls-8" x="294.541" y="536.135" width="132.875" height="3.09" transform="translate(-176.701 898.659) rotate(-90)"/>
      <g>
        <polygon class="cls-9" points="390.009 524.388 395.218 500.084 397.642 500.084 396.43 524.388 390.009 524.388"/>
        <polygon class="cls-9" points="407.819 524.388 402.608 500.084 400.184 500.084 401.396 524.388 407.819 524.388"/>
        <polygon class="cls-9" points="372.805 530.256 372.805 526.762 423.811 526.762 423.811 530.256 418.842 530.256 419.206 536.822 415.088 536.822 415.452 530.256 382.256 530.256 382.619 536.543 378.135 536.543 378.62 530.256 372.805 530.256"/>
        <polygon class="cls-9" points="380.438 569.092 388.07 533.747 396.066 533.747 394.006 569.092 380.438 569.092"/>
        <polygon class="cls-9" points="417.388 569.092 409.755 533.747 401.759 533.747 403.82 569.092 417.388 569.092"/>
      </g>
    </g>
    <g id="e25-2" data-name="e25">
      <rect class="cls-53" x="198.233" y="367.209" width="103.519" height="67.468" rx="8.419" ry="8.419"/>
      <rect class="cls-8" x="199.263" y="368.239" width="101.459" height="65.407" rx="7.289" ry="7.289"/>
      <rect class="cls-53" x="200.808" y="369.784" width="98.369" height="62.317" rx="5.609" ry="5.609"/>
      <text class="cls-5" transform="translate(205.419 424.398)"><tspan x="0" y="0">E25</tspan></text>
    </g>
    <g id="argenteau-3" data-name="argenteau">
      <path class="cls-19" d="M843.168,538.063h-343.511c-5.828,0-10.553-4.725-10.553-10.553v-48.421c0-5.828,4.725-10.553,10.553-10.553h343.414c5.531,0,11.003,1.131,16.081,3.324l57.3,24.741c5.875,2.537,5.877,10.867.003,13.406l-57.188,24.726c-5.083,2.198-10.562,3.331-16.099,3.331Z"/>
      <path class="cls-8" d="M843.223,534.59h-343.898c-3.623,0-6.561-2.937-6.561-6.561v-49.711c0-3.623,2.937-6.561,6.561-6.561h343.801c5.531,0,11.003,1.646,16.081,3.839l53.694,22.681c5.875,2.537,5.877,7.776.003,10.316l-53.583,22.151c-5.083,2.198-10.562,3.846-16.099,3.846Z"/>
      <path class="cls-19" d="M843.223,531.5h-343.444c-2.167,0-3.924-1.757-3.924-3.924v-48.804c0-2.167,1.757-3.924,3.924-3.924h343.348c5.575.515,6.883,1.646,11.961,3.839l37.214,21.651c3.208,1.807,3.723,3.867.003,6.196l-37.102,21.12c-5.083,2.198-6.5,3.331-11.979,3.846Z"/>
      <rect class="cls-19" x="598.918" y="525.835" width="24.721" height="11.33"/>
      <text class="cls-4" transform="translate(539.537 524.18) scale(.85 .987) skewX(-10.859)"><tspan x="0" y="0">Argenteau</tspan></text>
      <polyline class="cls-8" points="702.638 486.297 702.638 487.842 699.951 487.842"/>
    </g>
    <g id="N653">
      <rect class="cls-19" x="643.724" y="367.209" width="103.519" height="67.468" rx="8.419" ry="8.419"/>
      <rect class="cls-8" x="644.754" y="368.239" width="101.459" height="65.407" rx="7.289" ry="7.289"/>
      <rect class="cls-19" x="646.299" y="369.784" width="98.369" height="62.317" rx="5.609" ry="5.609"/>
      <text class="cls-15" transform="translate(652.455 418.796)"><tspan class="cls-44" x="0" y="0">N</tspan><tspan class="cls-57" x="17.852" y="0">653</tspan></text>
    </g>
    <g id="trilogiport-2" data-name="trilogiport">
      <g id="argenteau-4" data-name="argenteau">
        <path class="cls-8" d="M301.684,750.096h328.06c5.828,0,10.553-4.725,10.553-10.553v-48.421c0-5.828-4.725-10.553-10.553-10.553h-327.963c-5.531,0-10.845.287-16.081,3.324l-37.214,24.741c-4.932,3.639-5.447,9.819-.003,13.406l37.102,24.726c6.381,3.104,10.562,3.331,16.099,3.331Z"/>
        <path d="M301.629,746.622h328.447c3.623,0,6.561-2.937,6.561-6.561v-49.711c0-3.623-2.937-6.561-6.561-6.561h-328.351c-5.531,0-11.305.671-16.081,3.839l-33.609,22.681c-4.876,3.507-4.876,6.597-.003,10.316l33.497,22.151c4.891,2.972,10.562,3.846,16.099,3.846Z"/>
        <path class="cls-8" d="M301.629,743.532h327.994c2.167,0,3.924-1.757,3.924-3.924v-48.804c0-2.167-1.757-3.924-3.924-3.924h-327.897c-5.639.156-8.73-.359-11.961,3.324l-17.128,22.166q-2.301,2.992-.003,6.196l17.017,21.636c3.346,2.972,5.921,2.972,11.979,3.331Z"/>
        <path class="cls-33" d="M610.497,714.629l-10.108,6.484-4.768-6.484-9.535,6.484-4.386-6.484-6.484,4.386v-15.257c1.276-.748,2.288-1.989,3.433-2.861,1.037.247,2.562.906,3.624.382,1.722.033,3.328-.656,4.577-1.717,1.798-.174,4.2-.781,5.149-2.479h.191v-.572h.191c.09-.62-.112-1.165-.191-1.716h-.191c.091-.328-.472-.435-.381-.763h-.191v-.191c-2.907-.518-5.038,1.666-7.438,2.48-2.449-.073-4.818,1.136-6.675,2.669-2.183.199-3.338,2.018-4.577,3.433-.193.715-.425,1.48-.381,2.289l-.954,32.23h43.482v-15.829l-4.386-6.484Z"/>
        <rect class="cls-8" x="409.906" y="738.022" width="21.116" height="11.845"/>
        <rect class="cls-8" x="452.137" y="738.537" width="8.755" height="11.845"/>
        <text class="cls-25" transform="translate(303.877 735.565) scale(.915 1)"><tspan class="cls-34" x="0" y="0">T</tspan><tspan class="cls-49" x="26.646" y="0">r</tspan><tspan x="49.852" y="0">ilogipo</tspan><tspan class="cls-30" x="220.562" y="0">r</tspan><tspan x="244.554" y="0">t</tspan></text>
      </g>
    </g>
    <g id="chc">
      <g id="argenteau-5" data-name="argenteau">
        <path class="cls-8" d="M301.64,822.803h328.06c5.828,0,10.553-4.725,10.553-10.553v-48.421c0-5.828-4.725-10.553-10.553-10.553h-327.963c-5.531,0-10.845.287-16.081,3.324l-37.214,24.741c-4.932,3.639-5.447,9.819-.003,13.406l37.102,24.726c6.381,3.104,10.562,3.331,16.099,3.331Z"/>
        <path d="M301.585,819.33h328.447c3.623,0,6.561-2.937,6.561-6.561v-49.711c0-3.623-2.937-6.561-6.561-6.561h-328.351c-5.531,0-11.305.671-16.081,3.839l-33.609,22.681c-4.876,3.507-4.876,6.597-.003,10.316l33.497,22.151c4.891,2.972,10.562,3.846,16.099,3.846Z"/>
        <path class="cls-8" d="M301.585,816.239h327.994c2.167,0,3.924-1.757,3.924-3.924v-48.804c0-2.167-1.757-3.924-3.924-3.924h-327.897c-5.639.156-8.73-.359-11.961,3.324l-17.128,22.166q-2.301,2.992-.003,6.196l17.017,21.636c3.346,2.972,5.921,2.972,11.979,3.331Z"/>
        <polygon class="cls-23" points="629.463 759.587 633.503 763.512 633.503 812.315 629.578 816.24 594.014 816.24 594.014 759.587 629.463 759.587"/>
        <path class="cls-23" d="M633.503,763.512c0-2.313-1.305-3.924-4.039-3.924"/>
        <path class="cls-23" d="M633.503,812.315c0,2.445-1.589,3.924-3.924,3.924"/>
        <text class="cls-21" transform="translate(297.138 808.272) scale(.9 1.03)"><tspan class="cls-1" x="0" y="0">C</tspan><tspan class="cls-17" x="24.236" y="0">HC </tspan><tspan class="cls-68" x="94.861" y="0">N</tspan><tspan class="cls-36" x="120.34" y="0">o</tspan><tspan class="cls-32" x="140.614" y="0">t</tspan><tspan class="cls-3" x="156.347" y="0">r</tspan><tspan class="cls-32" x="172.312" y="0">e-Dame</tspan></text>
      </g>
      <text class="cls-6" transform="translate(597.149 806.145) scale(1.061 1)"><tspan x="0" y="0">H</tspan></text>
    </g>
  </g>
</svg>