<?xml version="1.0" encoding="UTF-8"?>
<svg id="Calque_1" data-name="Calque 1" xmlns="http://www.w3.org/2000/svg" viewBox="0 0 3568.831 2729">
  <defs>
    <style>
      .cls-1 {
        font-size: 474.828px;
        letter-spacing: -.03em;
      }

      .cls-1, .cls-2, .cls-3, .cls-4, .cls-5 {
        fill: #fff;
      }

      .cls-1, .cls-2, .cls-6, .cls-5 {
        font-family: SnvBeckerCondensed, 'Snv Becker';
      }

      .cls-2 {
        font-size: 433.461px;
        letter-spacing: -.03em;
      }

      .cls-7 {
        stroke-width: 126.426px;
      }

      .cls-7, .cls-8 {
        fill: none;
      }

      .cls-7, .cls-8, .cls-9, .cls-10 {
        stroke: #fff;
        stroke-miterlimit: 10;
      }

      .cls-4, .cls-11, .cls-12 {
        fill-rule: evenodd;
      }

      .cls-6 {
        font-size: 416.126px;
        letter-spacing: .02em;
      }

      .cls-11 {
        fill: #bb1e10;
      }

      .cls-5 {
        font-size: 400.131px;
      }

      .cls-8, .cls-10 {
        stroke-width: 21.673px;
      }

      .cls-9 {
        stroke-width: 20.474px;
      }

      .cls-9, .cls-13, .cls-10 {
        fill: #1b52ce;
      }
    </style>
  </defs>
  <rect class="cls-13" width="3568.831" height="2729" rx="92.42" ry="92.42"/>
  <rect class="cls-10" x="41.54" y="37.928" width="3487.557" height="2651.338" rx="58.772" ry="58.772"/>
  <line class="cls-8" x1="41.54" y1="794.679" x2="3529.097" y2="794.679"/>
  <g>
    <line class="cls-7" x1="464.165" y1="713.405" x2="464.165" y2="402.927"/>
    <polygon class="cls-3" points="226.084 434.847 702.226 434.847 464.184 196.864 226.084 434.847"/>
  </g>
  <rect class="cls-3" x="1502.666" y="214.925" width="1258.979" height="432.869" rx="47.631" ry="47.631"/>
  <text class="cls-6" transform="translate(1533.135 570.001)"><tspan x="0" y="0">Centrum</tspan></text>
  <g>
    <rect class="cls-9" x="127.213" y="1117.234" width="792.354" height="411.532" rx="25.767" ry="25.767"/>
    <text class="cls-5" transform="translate(149.127 1485.45)"><tspan x="0" y="0">N</tspan></text>
    <text class="cls-1" transform="translate(334.796 1485.469)"><tspan x="0" y="0">473</tspan></text>
  </g>
  <text class="cls-2" transform="translate(1134.421 1261.257)"><tspan x="0" y="0">Sint-Niklaas</tspan><tspan x="-69.998" y="451.522">Waasmunster</tspan></text>
  <g>
    <line class="cls-7" x1="2954.761" y1="1361.791" x2="3265.239" y2="1361.791"/>
    <polygon class="cls-3" points="3233.319 1123.71 3233.319 1599.853 3471.302 1361.81 3233.319 1123.71"/>
  </g>
  <g>
    <g id="HATCH">
      <polygon class="cls-11" points="2130.665 2225.26 2130.192 2207.186 2128.773 2189.162 2126.413 2171.236 2123.118 2153.459 2118.898 2135.878 2113.762 2118.543 2107.727 2101.499 2100.808 2084.795 2093.024 2068.476 2084.397 2052.587 2074.95 2037.171 2064.71 2022.271 2053.703 2007.927 2041.961 1994.179 2029.515 1981.064 2016.4 1968.618 2002.652 1956.876 1988.308 1945.869 1973.408 1935.629 1957.992 1926.182 1942.103 1917.555 1925.784 1909.771 1909.08 1902.852 1892.037 1896.817 1874.701 1891.681 1857.12 1887.461 1839.343 1884.166 1821.417 1881.806 1803.393 1880.387 1785.319 1879.914 1767.245 1880.387 1749.22 1881.806 1731.295 1884.166 1713.517 1887.461 1695.936 1891.681 1678.601 1896.817 1661.558 1902.852 1644.854 1909.771 1628.535 1917.555 1612.646 1926.182 1597.23 1935.629 1582.329 1945.869 1567.985 1956.876 1554.237 1968.618 1541.122 1981.064 1528.676 1994.179 1516.934 2007.927 1505.928 2022.271 1495.687 2037.171 1486.24 2052.587 1477.613 2068.476 1469.829 2084.795 1462.91 2101.499 1456.875 2118.543 1451.74 2135.878 1447.519 2153.459 1444.224 2171.236 1441.864 2189.162 1440.446 2207.186 1439.972 2225.26 1440.446 2243.334 1441.864 2261.359 1444.224 2279.284 1447.519 2297.062 1451.74 2314.643 1456.875 2331.978 1462.91 2349.021 1469.829 2365.725 1477.613 2382.044 1486.24 2397.934 1495.687 2413.349 1505.928 2428.25 1516.934 2442.594 1528.676 2456.342 1541.122 2469.457 1554.237 2481.903 1567.985 2493.645 1582.329 2504.651 1597.23 2514.892 1612.646 2524.339 1628.535 2532.966 1644.854 2540.75 1661.558 2547.669 1678.601 2553.704 1695.936 2558.839 1713.517 2563.06 1731.295 2566.355 1749.22 2568.715 1767.245 2570.133 1785.319 2570.607 1803.393 2570.133 1821.417 2568.715 1839.343 2566.355 1857.12 2563.06 1874.701 2558.839 1892.037 2553.704 1909.08 2547.669 1925.784 2540.75 1942.103 2532.966 1957.992 2524.339 1973.408 2514.892 1988.308 2504.651 2002.652 2493.645 2016.4 2481.903 2029.515 2469.457 2041.961 2456.342 2053.703 2442.594 2064.71 2428.25 2074.95 2413.349 2084.397 2397.934 2093.024 2382.044 2100.808 2365.725 2107.727 2349.021 2113.762 2331.978 2118.898 2314.643 2123.118 2297.062 2126.413 2279.284 2128.773 2261.359 2130.192 2243.334 2130.665 2225.26"/>
    </g>
    <g id="HATCH-2" data-name="HATCH">
      <polygon class="cls-4" points="2041.351 2225.26 2041 2211.861 2039.949 2198.498 2038.199 2185.208 2035.756 2172.028 2032.627 2158.994 2028.82 2146.142 2024.346 2133.507 2019.216 2121.123 2013.445 2109.024 2007.049 2097.244 2000.046 2085.815 1992.453 2074.768 1984.293 2064.134 1975.588 2053.941 1966.361 2044.218 1956.638 2034.991 1946.445 2026.286 1935.811 2018.126 1924.764 2010.533 1913.335 2003.53 1901.555 1997.134 1889.456 1991.363 1877.073 1986.233 1864.437 1981.759 1851.585 1977.952 1838.551 1974.823 1825.371 1972.38 1812.081 1970.63 1798.718 1969.579 1785.319 1969.228 1771.919 1969.579 1758.556 1970.63 1745.266 1972.38 1732.086 1974.823 1719.053 1977.952 1706.2 1981.759 1693.565 1986.233 1681.181 1991.363 1669.082 1997.134 1657.302 2003.53 1645.873 2010.533 1634.826 2018.126 1624.192 2026.286 1613.999 2034.991 1604.276 2044.218 1595.049 2053.941 1586.344 2064.134 1578.184 2074.768 1570.592 2085.815 1563.588 2097.244 1557.192 2109.024 1551.421 2121.123 1546.292 2133.507 1541.817 2146.142 1538.01 2158.994 1534.881 2172.028 1532.438 2185.208 1530.689 2198.498 1529.637 2211.861 1529.286 2225.26 1529.637 2238.66 1530.689 2252.023 1532.438 2265.313 1534.881 2278.493 1538.01 2291.526 1541.817 2304.379 1546.292 2317.014 1551.421 2329.398 1557.192 2341.497 1563.588 2353.277 1570.592 2364.706 1578.184 2375.753 1586.344 2386.387 1595.049 2396.58 1604.276 2406.303 1613.999 2415.53 1624.192 2424.235 1634.826 2432.395 1645.873 2439.987 1657.302 2446.991 1669.082 2453.387 1681.181 2459.158 1693.565 2464.287 1706.2 2468.762 1719.053 2472.569 1732.086 2475.698 1745.266 2478.141 1758.556 2479.89 1771.919 2480.942 1785.319 2481.293 1798.718 2480.942 1812.081 2479.89 1825.371 2478.141 1838.551 2475.698 1851.585 2472.569 1864.437 2468.762 1877.073 2464.287 1889.456 2459.158 1901.555 2453.387 1913.335 2446.991 1924.764 2439.987 1935.811 2432.395 1946.445 2424.235 1956.638 2415.53 1966.361 2406.303 1975.588 2396.58 1984.293 2386.387 1992.453 2375.753 2000.046 2364.706 2007.049 2353.277 2013.445 2341.497 2019.216 2329.398 2024.346 2317.014 2028.82 2304.379 2032.627 2291.526 2035.756 2278.493 2038.199 2265.313 2039.949 2252.023 2041 2238.66 2041.351 2225.26"/>
    </g>
    <g id="HATCH-3" data-name="HATCH">
      <polygon class="cls-12" points="1798.716 2159.764 1797.257 2144.255 1792.925 2129.217 1785.853 2115.107 1776.253 2102.354 1764.419 2091.345 1750.71 2082.416 1735.542 2075.836 1719.376 2071.807 1702.704 2070.45 1686.031 2071.75 1669.865 2075.612 1654.697 2081.917 1640.988 2090.475 1629.154 2101.025 1619.554 2113.246 1612.482 2126.768 1608.15 2141.179 1606.691 2156.042 1661.024 2156.042 1661.772 2151.798 1664.076 2144.649 1667.587 2138.009 1672.198 2132.08 1677.767 2127.041 1684.128 2123.046 1691.085 2120.217 1698.428 2118.638 1705.934 2118.358 1713.374 2119.386 1720.523 2121.691 1727.162 2125.201 1733.092 2129.812 1738.131 2135.382 1742.126 2141.742 1744.955 2148.699 1746.534 2156.042 1746.954 2162.277 1746.285 2168.489 1744.547 2174.491 1741.794 2180.1 1738.108 2185.145 1733.602 2189.474 1728.413 2192.955 1722.698 2195.482 1716.632 2196.978 1680.375 2196.978 1680.375 2246.845 1716.632 2246.845 1722.789 2247.665 1728.711 2249.543 1734.217 2252.42 1739.139 2256.21 1743.328 2260.797 1746.658 2266.042 1749.026 2271.785 1750.361 2277.852 1750.622 2284.059 1750.519 2287.199 1749.247 2295.455 1746.561 2303.364 1742.542 2310.686 1737.313 2317.199 1731.032 2322.706 1723.891 2327.038 1716.106 2330.064 1707.913 2331.693 1699.563 2331.874 1691.307 2330.602 1683.398 2327.916 1676.076 2323.897 1669.563 2318.668 1664.056 2312.388 1659.724 2305.246 1656.698 2297.461 1655.07 2289.269 1600.737 2289.269 1602.286 2305.036 1606.886 2320.325 1614.398 2334.67 1624.593 2347.635 1637.161 2358.827 1651.72 2367.906 1667.829 2374.595 1684.997 2378.691 1702.704 2380.071 1720.439 2378.691 1737.636 2374.595 1753.771 2367.906 1768.354 2358.827 1780.943 2347.635 1791.155 2334.67 1798.679 2320.325 1803.287 2305.036 1804.838 2289.269 1804.67 2284.059 1803.332 2268.771 1799.361 2253.948 1792.875 2240.039 1784.073 2227.469 1773.222 2216.617 1772.847 2216.304 1782.441 2205.446 1790.005 2193.087 1795.307 2179.603 1798.187 2165.402 1798.633 2159.76 1798.716 2159.764"/>
    </g>
    <g id="HATCH-4" data-name="HATCH">
      <polygon class="cls-12" points="1882.075 2129.129 1882.075 2089.905 1899.03 2089.905 1899.03 2075.481 1882.075 2075.481 1882.075 2046.633 1865.12 2056.422 1865.12 2075.481 1856.77 2075.481 1856.77 2089.905 1865.12 2089.905 1865.12 2129.129 1865.405 2132.381 1866.25 2135.534 1867.629 2138.492 1869.502 2141.166 1871.81 2143.474 1874.483 2145.346 1877.442 2146.726 1880.595 2147.571 1883.847 2147.855 1898.271 2147.855 1898.271 2133.431 1886.377 2133.431 1885.63 2133.366 1884.906 2133.172 1884.226 2132.855 1883.612 2132.425 1883.082 2131.894 1882.652 2131.28 1882.335 2130.6 1882.141 2129.876 1882.075 2129.129"/>
    </g>
    <g id="HATCH-5" data-name="HATCH">
      <polygon class="cls-12" points="1943.85 2250.194 1883.936 2250.194 1883.936 2278.121 1890.41 2275.997 1899.28 2274.532 1908.27 2274.629 1917.106 2276.286 1925.52 2279.452 1933.256 2284.031 1940.08 2289.884 1945.784 2296.833 1950.194 2304.666 1953.177 2313.147 1954.643 2322.017 1954.643 2329.46 1954.224 2333.162 1952.122 2341.903 1948.535 2350.146 1943.57 2357.641 1937.38 2364.16 1930.151 2369.505 1922.104 2373.513 1913.484 2376.064 1904.551 2377.078 1895.578 2376.526 1886.837 2374.425 1878.594 2370.837 1871.099 2365.873 1864.58 2359.682 1859.235 2352.454 1855.226 2344.407 1852.676 2335.786 1880.698 2335.786 1882.145 2339.677 1884.246 2343.258 1886.937 2346.419 1890.136 2349.065 1893.746 2351.116 1897.657 2352.508 1901.751 2353.2 1905.902 2353.171 1909.986 2352.421 1913.877 2350.974 1917.457 2348.873 1920.619 2346.182 1923.265 2342.983 1925.315 2339.373 1926.708 2335.462 1927.4 2331.368 1927.476 2329.46 1927.476 2322.017 1927.114 2317.881 1926.04 2313.871 1924.285 2310.108 1921.904 2306.708 1918.969 2303.772 1915.568 2301.391 1911.805 2299.636 1907.795 2298.562 1903.659 2298.2 1899.524 2298.562 1895.513 2299.636 1891.751 2301.391 1888.35 2303.772 1885.414 2306.708 1883.033 2310.108 1856.77 2310.108 1856.77 2225.26 1943.85 2225.26 1943.85 2250.194"/>
    </g>
  </g>
</svg>