<?xml version="1.0" encoding="UTF-8"?>
<svg id="Calque_1" xmlns="http://www.w3.org/2000/svg" viewBox="0 0 4335.609 1876.348">
  <defs>
    <style>
      .cls-1 {
        letter-spacing: -.004em;
      }

      .cls-2 {
        stroke-width: 24px;
      }

      .cls-2, .cls-3 {
        fill: none;
      }

      .cls-2, .cls-3, .cls-4 {
        stroke-miterlimit: 10;
      }

      .cls-2, .cls-4 {
        stroke: #fff;
      }

      .cls-5 {
        letter-spacing: -.061em;
      }

      .cls-5, .cls-6, .cls-7, .cls-8, .cls-9 {
        font-size: 76.446px;
      }

      .cls-6 {
        letter-spacing: -.06em;
      }

      .cls-10 {
        letter-spacing: -.004em;
      }

      .cls-11, .cls-12, .cls-13 {
        letter-spacing: -.004em;
      }

      .cls-14 {
        letter-spacing: .01em;
      }

      .cls-15, .cls-16, .cls-17, .cls-18, .cls-13 {
        fill: #fff;
      }

      .cls-15, .cls-12, .cls-19, .cls-8, .cls-20, .cls-17, .cls-13 {
        font-family: SnvBeckerRegular, 'Snv Becker';
      }

      .cls-15, .cls-12, .cls-19, .cls-18, .cls-13 {
        font-size: 96.831px;
      }

      .cls-7 {
        letter-spacing: -.075em;
      }

      .cls-21 {
        letter-spacing: -.066em;
      }

      .cls-22 {
        letter-spacing: -.02em;
      }

      .cls-23 {
        font-size: 62.347px;
      }

      .cls-24 {
        font-size: 76.447px;
      }

      .cls-25 {
        fill: #7c8385;
      }

      .cls-26 {
        letter-spacing: .005em;
      }

      .cls-27, .cls-4 {
        fill: #0c4aba;
      }

      .cls-28 {
        letter-spacing: -.01em;
      }

      .cls-29 {
        letter-spacing: -.14em;
      }

      .cls-30 {
        font-size: 82.954px;
      }

      .cls-8, .cls-20, .cls-17 {
        opacity: .98;
      }

      .cls-20 {
        font-size: 101.57px;
      }

      .cls-3 {
        stroke: #000;
        stroke-width: 6px;
      }

      .cls-31 {
        letter-spacing: -.007em;
      }

      .cls-32 {
        letter-spacing: -.04em;
      }

      .cls-32, .cls-33 {
        font-size: 101.713px;
      }

      .cls-18 {
        font-family: SnvBeckerCondensed, 'Snv Becker';
      }

      .cls-34 {
        letter-spacing: -.006em;
      }

      .cls-35 {
        letter-spacing: -.004em;
      }

      .cls-36 {
        fill: #008351;
      }

      .cls-37 {
        font-size: 62.348px;
      }

      .cls-4 {
        stroke-width: 8px;
      }

      .cls-38 {
        letter-spacing: .005em;
      }

      .cls-39, .cls-9 {
        letter-spacing: -.06em;
      }

      .cls-40 {
        letter-spacing: .006em;
      }

      .cls-41 {
        fill-rule: evenodd;
      }

      .cls-42 {
        letter-spacing: -.019em;
      }

      .cls-43 {
        letter-spacing: -.051em;
      }

      .cls-33 {
        letter-spacing: -.102em;
      }

      .cls-44 {
        letter-spacing: -.004em;
      }

      .cls-45 {
        letter-spacing: -.074em;
      }
    </style>
  </defs>
  <g>
    <rect class="cls-25" y="372.348" width="4283" height="104"/>
    <rect class="cls-25" x="3527" y="1120.348" width="1408" height="104" transform="translate(3058.652 5403.348) rotate(-90)"/>
    <polygon class="cls-25" points="4310.957 436.609 4283 372.348 4283 449.348 4283 450 4283 527 4310.957 462.739 4335.609 462.739 4335.609 450 4335.609 449.348 4335.609 436.609 4310.957 436.609"/>
    <polygon class="cls-25" points="4151.756 436.256 4179.712 371.995 4179.712 448.995 4179.712 449.647 4179.712 526.647 4151.756 462.385 4127.103 462.385 4127.103 449.647 4127.103 448.995 4127.103 436.256 4151.756 436.256"/>
    <polygon class="cls-25" points="2059.9 344.785 1995.639 372.742 2072.639 372.742 2073.291 372.742 2150.291 372.742 2086.029 344.785 2086.029 320.133 2073.291 320.133 2072.639 320.133 2059.9 320.133 2059.9 344.785"/>
    <polygon class="cls-25" points="2059.547 503.986 1995.285 476.03 2072.285 476.03 2072.937 476.03 2149.937 476.03 2085.676 503.986 2085.676 528.639 2072.937 528.639 2072.285 528.639 2059.547 528.639 2059.547 503.986"/>
  </g>
  <g>
    <rect class="cls-27" x="506" y="1.348" width="1282" height="658" rx="28.861" ry="28.861"/>
    <rect class="cls-4" x="521.188" y="16.348" width="1251.812" height="628" rx="15.1" ry="15.1"/>
    <g>
      <polyline class="cls-2" points="1561 619.348 1561 590.848 1507.75 537.598"/>
      <polygon class="cls-16" points="1536.189 522.034 1476.09 505.934 1492.188 566.035 1536.189 522.034"/>
    </g>
    <g>
      <polyline class="cls-2" points="787 619.348 787 590.848 733.75 537.598"/>
      <polygon class="cls-16" points="762.189 522.034 702.09 505.934 718.188 566.035 762.189 522.034"/>
    </g>
    <g>
      <rect class="cls-16" x="1071.684" y="515.296" width="150.821" height="87.816" rx="10" ry="10"/>
      <text class="cls-20" transform="translate(1075.643 593.709)"><tspan x="0" y="0">R</tspan><tspan class="cls-1" x="58.026" y="0">7</tspan><tspan class="cls-22" x="110.548" y="0">1</tspan></text>
    </g>
    <g>
      <g>
        <text class="cls-13" transform="translate(854.769 396.032)"><tspan x="0" y="0">Diepenbeek</tspan></text>
        <g>
          <g>
            <rect class="cls-27" x="1347.063" y="332.114" width="92.106" height="63.595" rx="8.75" ry="8.75"/>
            <path class="cls-16" d="M1430.419,333.364c4.135,0,7.5,3.365,7.5,7.5v46.095c0,4.135-3.365,7.5-7.5,7.5h-74.606c-4.135,0-7.5-3.365-7.5-7.5v-46.095c0-4.135,3.365-7.5,7.5-7.5h74.606M1430.419,330.864h-74.606c-5.523,0-10,4.477-10,10v46.095c0,5.523,4.477,10,10,10h74.606c5.523,0,10-4.477,10-10v-46.095c0-5.523-4.477-10-10-10h0Z"/>
          </g>
          <text class="cls-17" transform="translate(1352.894 390.067)"><tspan class="cls-37" x="0" y="0">N</tspan><tspan class="cls-24" x="37.658" y="0">2</tspan></text>
        </g>
      </g>
      <g>
        <g>
          <g>
            <rect class="cls-27" x="1276.264" y="81.289" width="130.682" height="63.594" rx="8.75" ry="8.75"/>
            <path class="cls-16" d="M1398.195,82.539c4.135,0,7.5,3.365,7.5,7.5v46.094c0,4.135-3.365,7.5-7.5,7.5h-113.182c-4.135,0-7.5-3.365-7.5-7.5v-46.094c0-4.135,3.365-7.5,7.5-7.5h113.182M1398.195,80.039h-113.182c-5.523,0-10,4.477-10,10v46.094c0,5.523,4.477,10,10,10h113.182c5.523,0,10-4.477,10-10v-46.094c0-5.523-4.477-10-10-10h0Z"/>
          </g>
          <text class="cls-17" transform="translate(1279.936 139.239)"><tspan class="cls-23" x="0" y="0">N</tspan><tspan class="cls-9" x="37.658" y="0">20</tspan></text>
        </g>
        <text class="cls-15" transform="translate(885.993 145.001)"><tspan class="cls-21" x="0" y="0">T</tspan><tspan class="cls-35" x="41.03" y="0">on</tspan><tspan class="cls-31" x="137.654" y="0">g</tspan><tspan class="cls-11" x="186.155" y="0">e</tspan><tspan class="cls-40" x="233.095" y="0">r</tspan><tspan class="cls-11" x="269.114" y="0">en</tspan></text>
      </g>
      <g>
        <g>
          <g>
            <rect class="cls-27" x="1333.957" y="206.792" width="161.91" height="63.595" rx="8.75" ry="8.75"/>
            <path class="cls-16" d="M1487.117,208.042c4.135,0,7.5,3.365,7.5,7.5v46.094c0,4.135-3.365,7.5-7.5,7.5h-144.41c-4.135,0-7.5-3.365-7.5-7.5v-46.094c0-4.135,3.365-7.5,7.5-7.5h144.41M1487.117,205.542h-144.41c-5.523,0-10,4.477-10,10v46.094c0,5.523,4.477,10,10,10h144.41c5.523,0,10-4.477,10-10v-46.094c0-5.523-4.477-10-10-10h0Z"/>
          </g>
          <text class="cls-17" transform="translate(1335.623 264.742)"><tspan class="cls-23" x="0" y="0">N</tspan><tspan class="cls-9" x="37.658" y="0">702</tspan></text>
        </g>
        <g>
          <text class="cls-13" transform="translate(792.071 270.852)"><tspan x="0" y="0">Genk</tspan></text>
          <rect class="cls-16" x="997.412" y="194.848" width="303" height="88" rx="10.981" ry="10.981"/>
          <text class="cls-12" transform="translate(990.071 270.852)"><tspan x="0" y="0">-Zuid</tspan></text>
          <path class="cls-41" d="M1288.198,235.463l-13.424,8.84c-.092.061-.215.039-.281-.05l-6.477-8.745c-.066-.089-.191-.111-.283-.048l-13.087,8.834c-.095.064-.225.039-.289-.057l-5.812-8.719c-.063-.094-.19-.121-.285-.059l-8.906,5.725c-.138.089-.32-.01-.32-.174v-20.636c0-.079.044-.15.115-.186l.557-.278.66-.33c.008-.004.015-.008.022-.013l.979-.653c.011-.008.022-.016.032-.026l.321-.321.647-.647c.016-.016.034-.029.054-.039l.579-.29c.04-.02.073-.053.093-.093l.274-.548c.02-.04.053-.073.093-.093l.566-.283c.029-.014.061-.022.093-.022h.573c.032,0,.064.007.093.022l.584.292c.029.014.061.022.093.022h1.58c.032,0,.064.007.093.022l.584.292c.029.014.061.022.093.022h.589c.022,0,.044-.004.066-.011l.943-.314c.021-.007.043-.011.066-.011h1.26c.032,0,.064-.007.093-.022l.614-.307c.009-.004.018-.008.027-.011l.961-.32c.021-.007.043-.011.066-.011h.589c.032,0,.064-.007.093-.022l.597-.299c.02-.01.038-.023.054-.039l.624-.624c.016-.016.034-.029.054-.039l.641-.321.627-.314c.029-.014.061-.022.093-.022h.536c.055,0,.108-.022.147-.061l.214-.214c.039-.039.092-.061.147-.061h.835c.055,0,.108-.022.147-.061l.214-.214c.039-.039.092-.061.147-.061h.835c.055,0,.108-.022.147-.061l.214-.214c.039-.039.092-.061.147-.061h.164c.055,0,.108-.022.147-.061l.214-.214c.039-.039.092-.061.147-.061h.164c.055,0,.108-.022.147-.061l.251-.251c.016-.016.034-.029.054-.039l.526-.263c.07-.035.115-.107.115-.186h0c0-.115.093-.207.207-.207h.256c.115,0,.207-.093.207-.207v-.079c0-.032.007-.064.022-.093l.299-.597c.01-.02.023-.038.039-.054l.251-.251c.039-.039.061-.092.061-.147v-.201c0-.032.007-.064.022-.093l.292-.584c.014-.029.022-.061.022-.093v-1.879c0-.055-.022-.108-.061-.147l-.275-.275-.275-.275c-.039-.039-.061-.092-.061-.147v-.164c0-.055-.022-.108-.061-.147l-.275-.275-.336-.336-.275-.275c-.039-.039-.092-.061-.147-.061h-.536c-.032,0-.064.007-.093.022l-.584.292c-.029.014-.061.022-.093.022h-1.58c-.032,0-.064.007-.093.022l-.584.292c-.029.014-.061.022-.093.022h-.238c-.032,0-.064.007-.093.022l-.627.314-.627.314c-.029.014-.061.022-.093.022h-.238c-.032,0-.064.007-.093.022l-.597.299c-.02.01-.038.023-.054.039l-.288.288c-.016.016-.034.029-.054.039l-.611.306c-.02.01-.038.023-.054.039l-.288.288c-.016.016-.029.034-.039.054l-.306.611c-.01.02-.023.038-.039.054l-.251.251c-.039.039-.092.061-.147.061h-2.214c-.032,0-.064.007-.093.022l-.584.292c-.029.014-.061.022-.093.022h-.573c-.032,0-.064.007-.093.022l-.584.292c-.029.014-.061.022-.093.022h-.573c-.032,0-.064.007-.093.022l-.627.314-.671.336-.641.321c-.02.01-.038.023-.054.039l-.624.624c-.016.016-.034.029-.054.039l-.641.321-.671.336-.671.336-.641.321c-.02.01-.038.023-.054.039l-.312.312-.275.275c-.039.039-.092.061-.147.061h-.872c-.032,0-.064.007-.093.022l-.584.292c-.029.014-.061.022-.093.022h-.201c-.055,0-.108.022-.147.061l-.214.214c-.039.039-.092.061-.147.061h-.164c-.055,0-.108.022-.147.061l-.214.214c-.039.039-.092.061-.147.061h-.164c-.055,0-.108.022-.147.061l-.275.275-.336.336-.336.336-.275.275c-.039.039-.061.092-.061.147v.042c0,.115-.093.207-.207.207h-.042c-.055,0-.108.022-.147.061l-.214.214c-.039.039-.061.092-.061.147v.164c0,.055-.022.108-.061.147l-.214.214c-.039.039-.061.092-.061.147v.164c0,.055-.022.108-.061.147l-.214.214c-.039.039-.061.092-.061.147v.164c0,.055-.022.108-.061.147l-.214.214c-.039.039-.061.092-.061.147v.835c0,.055-.022.108-.061.147l-.214.214c-.039.039-.061.092-.061.147v1.257l-1.336,44.76c-.003.117.09.214.207.214h59.991c.115,0,.207-.093.207-.207v-21.881c0-.041-.012-.081-.035-.115l-5.892-8.838c-.063-.095-.191-.121-.287-.058Z"/>
        </g>
      </g>
    </g>
  </g>
  <g>
    <rect class="cls-27" x="2557.368" y="59.134" width="672" height="558" rx="28.861" ry="28.861"/>
    <rect class="cls-4" x="2572.556" y="74.134" width="641.812" height="528" rx="15.1" ry="15.1"/>
    <g>
      <polyline class="cls-2" points="2893.462 577.348 2893.462 548.848 2893.462 495.598"/>
      <polygon class="cls-16" points="2924.577 504.702 2893.465 450.821 2862.35 504.702 2924.577 504.702"/>
    </g>
    <g>
      <g>
        <g>
          <rect class="cls-16" x="3020.401" y="139.321" width="130.811" height="63.594" rx="8.75" ry="8.75"/>
          <path class="cls-16" d="M3142.462,140.571c4.135,0,7.5,3.365,7.5,7.5v46.094c0,4.135-3.365,7.5-7.5,7.5h-113.311c-4.135,0-7.5-3.365-7.5-7.5v-46.094c0-4.135,3.365-7.5,7.5-7.5h113.311M3142.462,138.071h-113.311c-5.523,0-10,4.477-10,10v46.094c0,5.523,4.477,10,10,10h113.311c5.523,0,10-4.477,10-10v-46.094c0-5.523-4.477-10-10-10h0Z"/>
        </g>
        <text class="cls-8" transform="translate(3022.653 197.272)"><tspan x="0" y="0">R</tspan><tspan class="cls-39" x="43.673" y="0">70</tspan></text>
      </g>
      <rect class="cls-16" x="2634.462" y="125.348" width="359" height="88" rx="10.981" ry="10.981"/>
      <text class="cls-19" transform="translate(2701.131 203.033)"><tspan class="cls-10" x="0" y="0">S</tspan><tspan class="cls-34" x="51.337" y="0">t</tspan><tspan class="cls-11" x="86.174" y="0">ation</tspan></text>
      <g>
        <g id="HATCH">
          <polygon class="cls-41" points="2640.81 201.373 2682.462 201.373 2680.727 198.718 2671.181 198.718 2671.181 197.086 2669.2 197.086 2669.2 198.718 2661.636 198.718 2654.072 198.718 2654.072 197.086 2652.091 197.086 2652.091 198.718 2642.545 198.718 2640.81 201.373"/>
        </g>
        <path class="cls-41" d="M2682.46,163.303l-.006-.082-.011-.082-.015-.081-.013-.054-3.845-15.38-.097-.35-.116-.345-.133-.338-.151-.331-.168-.322-.185-.313-.201-.303-.216-.292-.231-.28-.246-.268-.259-.255-.272-.241-.285-.226-.296-.211-.307-.195-.316-.179-.325-.162-.333-.145-.341-.127-.347-.109-.352-.091-.356-.072-.359-.053-.362-.035-.363-.016h-.117s-20.399,0-20.399,0l-.363.01-.362.029-.36.047-.357.066-.353.085-.348.103-.343.121-.336.139-.328.156-.319.173-.31.19-.3.206-.288.221-.276.236-.264.25-.25.264-.236.276-.221.288-.206.3-.19.31-.173.319-.156.328-.139.336-.121.343-.103.348-.029.113-3.845,15.38-.018.08-.014.081-.009.082-.005.082v.056s0,23.809,0,23.809l.021.401.042.399.063.396.083.393.104.388.124.382.144.375.163.367.182.358.2.348.218.337.236.325.252.312.268.298.284.284.298.269.312.253.325.236.336.219.347.201.357.182.367.163.375.144.382.124.388.104.393.084.396.063.399.042.214.014h27.108l.4-.031.398-.052.395-.073.39-.093.385-.113.378-.133.371-.153.362-.172.353-.191.342-.209.331-.227.319-.244.306-.26.291-.276.277-.291.261-.305.245-.318.228-.33.21-.342.192-.352.173-.362.154-.371.134-.378.115-.385.094-.39.074-.395.053-.398.032-.4.009-.215v-23.809l-.002-.082ZM2652.974,185.774l-.011.187-.021.186-.03.185-.04.183-.05.181-.059.178-.068.175-.077.171-.086.166-.095.162-.103.157-.111.151-.119.145-.126.138-.133.132-.14.125-.146.117-.152.109-.158.101-.163.093-.167.084-.172.075-.175.066-.179.057-.181.047-.184.038-.185.028-.186.018-.187.009h-.187s-.187-.012-.187-.012l-.186-.021-.185-.03-.183-.04-.181-.05-.178-.059-.175-.068-.171-.077-.166-.086-.162-.095-.157-.103-.151-.111-.145-.119-.138-.126-.132-.133-.125-.14-.117-.146-.109-.152-.101-.158-.093-.163-.084-.167-.075-.172-.066-.175-.057-.179-.047-.181-.038-.184-.028-.185-.018-.186-.009-.187v-.187s.012-.187.012-.187l.021-.186.03-.185.04-.183.05-.181.059-.178.068-.175.077-.171.086-.166.095-.162.103-.157.111-.151.119-.145.126-.138.133-.132.14-.125.146-.117.152-.109.158-.101.163-.093.167-.084.172-.075.175-.066.179-.057.181-.047.184-.038.185-.028.186-.018.187-.009h.187s.187.012.187.012l.186.021.185.03.183.04.181.05.178.059.175.068.171.077.166.086.162.095.157.103.151.111.145.119.138.126.132.133.125.14.117.146.109.152.101.158.093.163.084.167.075.172.066.175.057.179.047.181.038.184.028.185.018.186.009.187v.187ZM2659.221,164.365l-.522.301-.594.105h-11.853s-.591-.119-.591-.119l-.515-.313-.377-.47-.193-.571.014-.603,2.08-10.4.199-.527.387-.462.522-.301.594-.105h9.733s.301.026.301.026l.566.206.462.387.301.522.105.594v10.4l-.026.301-.206.566-.387.462ZM2663.594,171.95l-.024.185-.042.182-.059.177-.076.171-.091.163-.107.154-.121.143-.134.131-.146.117-.156.103-.165.088-.173.072-.179.055-.183.038-.186.02-.187.002-.186-.015-.184-.033-.18-.05-.174-.067-.167-.084-.159-.099-.148-.114-.137-.127-.124-.14-.11-.151-.096-.161-.08-.169-.063-.176-.046-.181-.029-.185-.011-.187.007-.187.024-.185.042-.182.059-.177.076-.171.091-.163.107-.154.121-.143.134-.131.146-.117.156-.103.165-.088.173-.072.179-.055.183-.038.186-.02.187-.002.186.015.184.033.18.05.174.067.167.084.159.099.148.114.137.127.124.14.11.151.096.161.08.169.063.176.046.181.029.185.011.187-.007.187ZM2677.444,185.918l-.018.186-.028.185-.038.184-.047.181-.057.179-.066.175-.075.172-.084.167-.093.163-.101.158-.109.152-.117.146-.125.14-.132.133-.138.126-.145.119-.151.111-.157.103-.162.095-.166.086-.171.077-.175.068-.178.059-.181.05-.183.04-.185.03-.186.021-.187.011h-.187s-.187-.008-.187-.008l-.186-.018-.185-.028-.184-.038-.181-.047-.179-.057-.175-.066-.172-.075-.167-.084-.163-.093-.158-.101-.152-.109-.146-.117-.14-.125-.133-.132-.126-.138-.119-.145-.111-.151-.103-.157-.095-.162-.086-.166-.077-.171-.068-.175-.059-.178-.05-.181-.04-.183-.03-.185-.021-.186-.011-.187v-.187s.008-.187.008-.187l.018-.186.028-.185.038-.184.047-.181.057-.179.066-.175.075-.172.084-.167.093-.163.101-.158.109-.152.117-.146.125-.14.132-.133.138-.126.145-.119.151-.111.157-.103.162-.095.166-.086.171-.077.175-.068.178-.059.181-.05.183-.04.185-.03.186-.021.187-.011h.187s.187.008.187.008l.186.018.185.028.184.038.181.047.179.057.175.066.172.075.167.084.163.093.158.101.152.109.146.117.14.125.133.132.126.138.119.145.111.151.103.157.095.162.086.166.077.171.068.175.059.178.05.181.04.183.03.185.021.186.011.187v.187s-.008.187-.008.187ZM2678.502,163.869l-.377.47-.515.313-.591.118h-11.853s-.594-.104-.594-.104l-.522-.301-.387-.462-.206-.566-.026-.301v-10.4l.105-.594.301-.522.462-.387.566-.206.301-.026h9.733s.594.105.594.105l.522.301.387.462.199.527,2.08,10.4.014.603-.193.571Z"/>
      </g>
    </g>
    <g>
      <rect class="cls-16" x="2680.962" y="249.348" width="425" height="88" rx="10.981" ry="10.981"/>
      <text class="cls-19" transform="translate(2754.093 327.033)"><tspan class="cls-11" x="0" y="0">Cent</tspan><tspan class="cls-14" x="187.336" y="0">r</tspan><tspan class="cls-44" x="223.781" y="0">um</tspan></text>
      <g>
        <circle cx="2714.962" cy="296.348" r="10.286"/>
        <circle class="cls-3" cx="2714.962" cy="296.348" r="24"/>
      </g>
    </g>
    <g>
      <g>
        <rect class="cls-27" x="2985.589" y="479.834" width="163.822" height="84.988" rx="8.524" ry="8.524"/>
        <path class="cls-16" d="M3140.887,481.309c3.887,0,7.049,3.162,7.049,7.049v67.94c0,3.887-3.162,7.049-7.049,7.049h-146.774c-3.887,0-7.049-3.162-7.049-7.049v-67.94c0-3.887,3.162-7.049,7.049-7.049h146.774M3140.887,478.358h-146.774c-5.523,0-10,4.477-10,10v67.94c0,5.523,4.477,10,10,10h146.774c5.523,0,10-4.477,10-10v-67.94c0-5.523-4.477-10-10-10h0Z"/>
      </g>
      <text class="cls-17" transform="translate(2991.758 557.125)"><tspan class="cls-30" x="0" y="0">N</tspan><tspan class="cls-33" x="50.104" y="0">7</tspan><tspan class="cls-32" x="92.721" y="0">4</tspan></text>
    </g>
  </g>
  <g>
    <rect class="cls-27" x="3328.174" width="672" height="715" rx="28.861" ry="28.861"/>
    <rect class="cls-4" x="3343.362" y="15" width="641.812" height="685" rx="15.1" ry="15.1"/>
    <g>
      <polyline class="cls-2" points="3638 674.348 3638 645.848 3691.25 592.598"/>
      <polygon class="cls-16" points="3706.814 621.037 3722.914 560.938 3662.813 577.036 3706.814 621.037"/>
    </g>
    <g>
      <rect class="cls-16" x="3410.47" y="578.779" width="150.821" height="87.816" rx="10" ry="10"/>
      <text class="cls-20" transform="translate(3414.429 657.193)"><tspan x="0" y="0">R</tspan><tspan class="cls-1" x="58.026" y="0">7</tspan><tspan class="cls-22" x="110.548" y="0">1</tspan></text>
    </g>
    <text class="cls-15" transform="translate(3590.601 125.369)"><tspan class="cls-11" x="0" y="0">Die</tspan><tspan class="cls-28" x="128.812" y="0">s</tspan><tspan class="cls-11" x="175.186" y="0">t</tspan></text>
    <text class="cls-13" transform="translate(3589.865 231.512)"><tspan x="0" y="0">Geel</tspan></text>
    <g>
      <g>
        <rect class="cls-36" x="3413.79" y="119.554" width="138.96" height="63.595" rx="8.75" ry="8.75"/>
        <path class="cls-16" d="M3544,120.804c4.135,0,7.5,3.365,7.5,7.5v46.094c0,4.135-3.365,7.5-7.5,7.5h-121.46c-4.135,0-7.5-3.365-7.5-7.5v-46.094c0-4.135,3.365-7.5,7.5-7.5h121.46M3544,118.304h-121.46c-5.523,0-10,4.477-10,10v46.094c0,5.523,4.477,10,10,10h121.46c5.523,0,10-4.477,10-10v-46.094c0-5.523-4.477-10-10-10h0Z"/>
      </g>
      <text class="cls-17" transform="translate(3415.802 177.504)"><tspan class="cls-23" x="0" y="0">E</tspan><tspan class="cls-5" x="32.27" y="0">3</tspan><tspan class="cls-7" x="71.206" y="0">1</tspan><tspan class="cls-9" x="91.554" y="0">3</tspan></text>
    </g>
    <g>
      <g>
        <g>
          <rect class="cls-27" x="3414.25" y="292.148" width="131.937" height="63.594" rx="8.75" ry="8.75"/>
          <path class="cls-16" d="M3537.436,293.397c4.135,0,7.5,3.365,7.5,7.5v46.094c0,4.135-3.365,7.5-7.5,7.5h-114.436c-4.135,0-7.5-3.365-7.5-7.5v-46.094c0-4.135,3.365-7.5,7.5-7.5h114.436M3537.436,290.897h-114.436c-5.523,0-10,4.477-10,10v46.094c0,5.523,4.477,10,10,10h114.436c5.523,0,10-4.477,10-10v-46.094c0-5.523-4.477-10-10-10h0Z"/>
        </g>
        <text class="cls-17" transform="translate(3417.349 350.098)"><tspan class="cls-23" x="0" y="0">N</tspan><tspan class="cls-6" x="37.658" y="0">80</tspan></text>
      </g>
      <text class="cls-18" transform="translate(3591.234 356.859)"><tspan class="cls-42" x="0" y="0">S</tspan><tspan class="cls-11" x="38.903" y="0">t</tspan><tspan class="cls-29" x="66.175" y="0">.</tspan><tspan class="cls-45" x="70.585" y="0">-</tspan><tspan class="cls-43" x="108.731" y="0">T</tspan><tspan class="cls-38" x="139.691" y="0">r</tspan><tspan class="cls-35" x="167.388" y="0">uiden</tspan></text>
    </g>
    <g>
      <text class="cls-15" transform="translate(3589.818 478.729)"><tspan class="cls-11" x="0" y="0">He</tspan><tspan class="cls-26" x="105.039" y="0">r</tspan><tspan class="cls-11" x="141.011" y="0">k</tspan></text>
      <g>
        <g>
          <rect class="cls-27" x="3454.112" y="414.812" width="92.106" height="63.595" rx="8.75" ry="8.75"/>
          <path class="cls-16" d="M3537.469,416.061c4.135,0,7.5,3.365,7.5,7.5v46.095c0,4.135-3.365,7.5-7.5,7.5h-74.606c-4.135,0-7.5-3.365-7.5-7.5v-46.095c0-4.135,3.365-7.5,7.5-7.5h74.606M3537.469,413.561h-74.606c-5.523,0-10,4.477-10,10v46.095c0,5.523,4.477,10,10,10h74.606c5.523,0,10-4.477,10-10v-46.095c0-5.523-4.477-10-10-10h0Z"/>
        </g>
        <text class="cls-17" transform="translate(3459.943 472.764)"><tspan class="cls-37" x="0" y="0">N</tspan><tspan class="cls-24" x="37.658" y="0">2</tspan></text>
      </g>
    </g>
  </g>
</svg>