<?xml version="1.0" encoding="UTF-8"?>
<svg id="Calque_1" data-name="Calque 1" xmlns="http://www.w3.org/2000/svg" viewBox="0 0 2711 3368">
  <defs>
    <style>
      .cls-1 {
        letter-spacing: .009em;
      }

      .cls-2 {
        letter-spacing: .008em;
      }

      .cls-3, .cls-4, .cls-5, .cls-6, .cls-7, .cls-8, .cls-9, .cls-10, .cls-11 {
        font-family: SnvBeckerRegular, 'Snv Becker';
      }

      .cls-3, .cls-4, .cls-6, .cls-12 {
        font-size: 280px;
      }

      .cls-3, .cls-13, .cls-6, .cls-12, .cls-9 {
        fill: #fff;
      }

      .cls-14 {
        letter-spacing: -.04em;
      }

      .cls-5 {
        letter-spacing: .011em;
      }

      .cls-5, .cls-8 {
        fill: #1d1d1b;
        font-size: 159.396px;
      }

      .cls-15 {
        stroke-width: 80px;
      }

      .cls-15, .cls-16 {
        stroke: #fff;
      }

      .cls-15, .cls-16, .cls-17 {
        fill: none;
        stroke-miterlimit: 10;
      }

      .cls-6, .cls-18 {
        letter-spacing: .011em;
      }

      .cls-19 {
        letter-spacing: .002em;
      }

      .cls-20 {
        letter-spacing: -.03em;
      }

      .cls-21 {
        fill: #efc700;
      }

      .cls-22 {
        letter-spacing: .018em;
      }

      .cls-16 {
        stroke-width: 100px;
      }

      .cls-23 {
        fill: #0c4aba;
      }

      .cls-24 {
        letter-spacing: -.025em;
      }

      .cls-25 {
        letter-spacing: .017em;
      }

      .cls-26 {
        letter-spacing: .003em;
      }

      .cls-27 {
        letter-spacing: -.03em;
      }

      .cls-17 {
        stroke: #000;
        stroke-width: 6px;
      }

      .cls-8 {
        letter-spacing: .011em;
      }

      .cls-28 {
        letter-spacing: .018em;
      }

      .cls-29 {
        letter-spacing: .021em;
      }

      .cls-30 {
        fill: #008351;
      }

      .cls-31 {
        letter-spacing: .004em;
      }

      .cls-9, .cls-10 {
        font-size: 246.693px;
      }

      .cls-9, .cls-10, .cls-11 {
        opacity: .98;
      }

      .cls-32 {
        letter-spacing: -.009em;
      }

      .cls-33 {
        letter-spacing: .011em;
      }

      .cls-34 {
        fill-rule: evenodd;
      }

      .cls-35 {
        letter-spacing: .002em;
      }

      .cls-11 {
        font-size: 214.132px;
      }

      .cls-36 {
        letter-spacing: -.036em;
      }

      .cls-37 {
        font-family: SnvBeckerCondensed, 'Snv Becker';
      }
    </style>
  </defs>
  <rect class="cls-23" y="303" width="2711" height="3065" rx="110.848" ry="110.848"/>
  <g>
    <path class="cls-23" d="M108.957,339h2493.087c40.266,0,72.957,32.691,72.957,72.957v2847.087c0,40.266-32.691,72.956-72.956,72.956H108.956c-40.266,0-72.956-32.691-72.956-72.956V411.957c0-40.266,32.691-72.957,72.957-72.957Z"/>
    <path class="cls-13" d="M2602.043,350c34.163,0,61.957,27.794,61.957,61.957v2847.087c0,34.163-27.794,61.957-61.957,61.957H108.957c-34.163,0-61.957-27.794-61.957-61.957V411.957c0-34.163,27.794-61.957,61.957-61.957h2493.087M2602.043,328H108.957c-46.368,0-83.957,37.589-83.957,83.957v2847.087c0,46.368,37.589,83.957,83.957,83.957h2493.087c46.368,0,83.957-37.589,83.957-83.957V411.957c0-46.368-37.589-83.957-83.957-83.957h0Z"/>
  </g>
  <g>
    <line class="cls-16" x1="400" y1="3255" x2="400" y2="1548.991"/>
    <polygon class="cls-13" points="211.684 1574.239 588.301 1574.239 400.015 1386 211.684 1574.239"/>
  </g>
  <g>
    <ellipse class="cls-13" cx="1840.417" cy="565.344" rx="147.583" ry="94.561"/>
    <text class="cls-8" transform="translate(1792.656 618.004)"><tspan x="0" y="0">D</tspan></text>
  </g>
  <g>
    <polyline class="cls-15" points="980.285 2489.01 568.5 2804.5 568.5 3255"/>
    <polygon class="cls-13" points="1055.875 2620.883 872.636 2381.715 1083.784 2409.699 1055.875 2620.883"/>
  </g>
  <text class="cls-12" transform="translate(1184.532 1941.525)"><tspan class="cls-37"><tspan class="cls-18" x="0" y="0">Maa</tspan><tspan class="cls-26" x="383.85" y="0">s</tspan><tspan class="cls-18" x="487.554" y="0">t</tspan><tspan class="cls-22" x="570.615" y="0">r</tspan><tspan class="cls-18" x="654.222" y="0">i</tspan><tspan class="cls-31" x="711.853" y="0">c</tspan><tspan class="cls-33" x="815.832" y="0">ht</tspan></tspan><tspan class="cls-7"><tspan class="cls-18" x="0" y="293">Liè</tspan><tspan class="cls-2" x="349.533" y="293">g</tspan><tspan class="cls-18" x="493.98" y="293">e</tspan></tspan></text>
  <g>
    <rect class="cls-13" x="225.799" y="2375.219" width="348.201" height="221.439" rx="29.852" ry="29.852"/>
    <text class="cls-10" transform="translate(263.611 2566.299) scale(1 .95)"><tspan x="0" y="0">A3</tspan></text>
  </g>
  <g>
    <rect class="cls-13" x="1203.228" y="2374.856" width="473.772" height="221.439" rx="34.821" ry="34.821"/>
    <text class="cls-10" transform="translate(1237.108 2565.936) scale(1 .95)"><tspan x="0" y="0">A</tspan><tspan class="cls-20" x="139.488" y="0">25</tspan></text>
  </g>
  <g>
    <g>
      <rect class="cls-30" x="1739.086" y="2379.247" width="463.772" height="211.438" rx="29.821" ry="29.821"/>
      <path class="cls-13" d="M2173.037,2384.247c13.687,0,24.821,11.135,24.821,24.821v151.796c0,13.686-11.135,24.821-24.821,24.821h-404.129c-13.687,0-24.821-11.135-24.821-24.821v-151.796c0-13.687,11.135-24.821,24.821-24.821h404.129M2173.037,2374.247h-404.129c-19.231,0-34.821,15.59-34.821,34.821v151.796c0,19.231,15.59,34.821,34.821,34.821h404.129c19.231,0,34.821-15.59,34.821-34.821v-151.796c0-19.231-15.59-34.821-34.821-34.821h0Z"/>
    </g>
    <text class="cls-9" transform="translate(1772.952 2563.327) scale(1 .95)"><tspan class="cls-24" x="0" y="0">E</tspan><tspan class="cls-20" x="121.516" y="0">25</tspan></text>
  </g>
  <g>
    <g>
      <rect class="cls-30" x="169.76" y="586.204" width="463.772" height="211.438" rx="29.821" ry="29.821"/>
      <path class="cls-13" d="M603.71,591.204c13.686,0,24.821,11.135,24.821,24.821v151.796c0,13.687-11.135,24.821-24.821,24.821H199.581c-13.687,0-24.821-11.135-24.821-24.821v-151.796c0-13.687,11.135-24.821,24.821-24.821h404.129M603.71,581.204H199.581c-19.231,0-34.821,15.59-34.821,34.821v151.796c0,19.231,15.59,34.821,34.821,34.821h404.129c19.231,0,34.821-15.59,34.821-34.821v-151.796c0-19.231-15.59-34.821-34.821-34.821h0Z"/>
    </g>
    <text class="cls-9" transform="translate(199.168 770.284) scale(1 .95)"><tspan class="cls-24" x="0" y="0">E</tspan><tspan class="cls-27" x="121.516" y="0">40</tspan></text>
  </g>
  <g>
    <g>
      <rect class="cls-30" x="169.532" y="1033.769" width="463.772" height="211.438" rx="29.821" ry="29.821"/>
      <path class="cls-13" d="M603.482,1038.769c13.687,0,24.821,11.135,24.821,24.821v151.796c0,13.687-11.135,24.821-24.821,24.821H199.353c-13.686,0-24.821-11.135-24.821-24.821v-151.796c0-13.687,11.135-24.821,24.821-24.821h404.129M603.482,1028.769H199.353c-19.231,0-34.821,15.59-34.821,34.821v151.796c0,19.231,15.59,34.821,34.821,34.821h404.129c19.231,0,34.821-15.59,34.821-34.821v-151.796c0-19.231-15.59-34.821-34.821-34.821h0Z"/>
    </g>
    <text class="cls-9" transform="translate(202.168 1217.849) scale(1 .95)"><tspan class="cls-24" x="0" y="0">E</tspan><tspan class="cls-27" x="121.516" y="0">42</tspan></text>
  </g>
  <g>
    <rect class="cls-21" x="2263.52" y="2374.378" width="221.439" height="221.439" rx="23.806" ry="23.806"/>
    <text class="cls-11" transform="translate(2321.697 2553.554) scale(1 .95)"><tspan x="0" y="0">L</tspan></text>
    <rect class="cls-17" x="2272.98" y="2383.837" width="202.52" height="202.52" rx="15.114" ry="15.114"/>
  </g>
  <text class="cls-3" transform="translate(747.491 643.779)"><tspan class="cls-25" x="0" y="0">A</tspan><tspan class="cls-18" x="163.041" y="0">a</tspan><tspan class="cls-19" x="305.574" y="0">c</tspan><tspan class="cls-33" x="442.912" y="0">hen</tspan></text>
  <text class="cls-6" transform="translate(731.69 937.692)"><tspan x="0" y="0">Eupen</tspan></text>
  <text class="cls-3" transform="translate(740.69 1232.692)"><tspan class="cls-36" x="0" y="0">V</tspan><tspan class="cls-32" x="148.281" y="0">e</tspan><tspan class="cls-28" x="282.616" y="0">r</tspan><tspan class="cls-32" x="390.155" y="0">vie</tspan><tspan class="cls-35" x="727.946" y="0">r</tspan><tspan class="cls-32" x="830.973" y="0">s</tspan></text>
  <text class="cls-3" transform="translate(1863.556 3231.996)"><tspan class="cls-14" x="0" y="0">60</tspan><tspan x="320.217" y="0">0</tspan><tspan class="cls-18" x="494.124" y="0">m</tspan></text>
  <g>
    <rect class="cls-13" width="2711" height="281" rx="61.382" ry="61.382"/>
    <g id="knooppunt">
      <polygon id="top" class="cls-34" points="660.136 181.618 801.676 87.832 800.29 88.234 798.932 88.6 797.527 88.966 796.17 89.331 794.784 89.667 793.378 90.033 791.983 90.36 790.597 90.633 789.182 90.904 787.796 91.204 786.383 91.494 784.959 91.765 783.554 92.009 782.157 92.243 780.736 92.458 779.329 92.665 777.935 92.861 776.491 93.068 775.079 93.227 773.655 93.376 772.232 93.545 770.817 93.667 769.373 93.798 767.952 93.93 766.555 94.032 765.115 94.107 763.69 94.201 762.257 94.276 760.852 94.313 759.428 94.369 757.975 94.397 756.554 94.397 755.13 94.397 753.716 94.397 752.274 94.369 750.83 94.313 749.418 94.276 747.956 94.238 746.568 94.164 745.137 94.07 743.694 94.004 742.251 93.873 740.856 93.761 739.414 93.629 737.991 93.471 736.594 93.358 735.152 93.142 733.738 92.973 732.314 92.796 730.928 92.571 729.476 92.375 728.092 92.131 726.678 91.878 725.254 91.644 723.868 91.401 722.453 91.111 721.067 90.838 719.654 90.501 718.266 90.193 716.88 89.864 715.467 89.537 714.119 89.171 712.703 88.844 711.318 88.441 749.529 113.906 735.556 123.252 609.122 39.89 622.841 30.562 667.046 59.099 668.273 59.867 669.52 60.691 670.803 61.441 672.076 62.227 673.359 62.957 674.623 63.725 675.907 64.437 677.237 65.13 678.502 65.87 679.821 66.544 681.133 67.237 682.452 67.893 683.765 68.54 685.124 69.194 686.442 69.832 687.792 70.46 689.167 71.058 690.517 71.668 691.875 72.266 693.225 72.838 694.6 73.4 695.95 73.934 697.363 74.467 698.73 74.974 700.106 75.507 701.492 76.004 702.898 76.472 704.293 76.968 705.679 77.427 707.131 77.868 708.516 78.308 709.959 78.728 711.356 79.169 712.797 79.516 714.221 79.938 715.634 80.302 717.059 80.668 718.501 80.995 719.933 81.304 721.375 81.633 722.855 81.96 724.288 82.241 725.732 82.531 727.211 82.803 728.635 83.065 730.124 83.3 731.566 83.495 733.027 83.74 734.468 83.936 735.959 84.105 737.438 84.264 738.918 84.432 740.342 84.582 741.812 84.704 743.292 84.835 744.771 84.967 746.251 85.032 747.739 85.125 749.2 85.201 750.682 85.238 752.161 85.275 753.64 85.331 755.13 85.331 756.59 85.331 758.07 85.331 759.531 85.275 760.982 85.238 762.462 85.201 763.944 85.125 765.384 85.069 766.866 84.967 768.354 84.872 769.834 84.742 771.313 84.582 772.774 84.47 774.226 84.301 775.687 84.142 777.166 83.936 778.61 83.74 780.08 83.534 781.559 83.3 783.002 83.065 784.481 82.803 785.914 82.569 787.357 82.278 788.837 81.997 790.269 81.67 791.711 81.341 793.136 81.033 794.578 80.705 796.01 80.34 797.452 79.984 798.847 79.572 800.29 79.169 801.733 78.747 803.128 78.345 804.552 77.905 805.956 77.464 807.353 77.024 808.757 76.528 810.151 76.041 811.537 75.563 812.943 75.03 814.302 74.533 815.687 73.971 817.064 73.456 818.449 72.876 819.807 72.322 821.157 71.705 822.515 71.133 823.882 70.534 825.204 69.888 826.56 69.27 827.872 68.633 829.192 67.968 830.503 67.293 831.823 66.6 833.144 65.907 834.455 65.223 835.739 64.493 837.059 63.762 838.332 63.032 839.598 62.264 840.898 61.497 842.126 60.709 843.4 59.96 844.646 59.136 845.871 58.33 888.991 30 904.538 38.56 753.556 138.575 602.939 237.868 588.667 228.962 627.14 203.496 628.068 202.86 629.042 202.157 629.95 201.52 630.887 200.827 631.804 200.097 632.711 199.413 633.592 198.682 634.511 197.915 635.352 197.147 636.224 196.36 637.068 195.611 637.893 194.787 638.735 193.981 639.539 193.176 640.347 192.323 641.094 191.462 641.901 190.619 642.649 189.719 643.362 188.829 644.128 187.95 644.842 187.013 645.517 186.086 646.218 185.149 646.874 184.213 647.567 183.285 648.194 182.293 648.793 181.347 649.431 180.317 650.038 179.353 650.583 178.322 651.191 177.32 651.725 176.318 652.268 175.25 652.801 174.229 653.308 173.19 653.784 172.14 654.262 171.045 654.703 169.987 655.142 168.89 655.545 167.823 655.987 166.746 656.352 165.651 656.736 164.517 657.063 163.421 657.429 162.316 657.756 161.183 658.064 160.068 658.345 158.916 658.582 157.784 658.852 156.65 659.056 155.517 659.293 154.383 659.498 153.213 659.658 152.08 659.825 150.947 659.985 149.757 660.097 148.586 660.209 147.453 660.303 146.282 660.369 145.093 660.424 143.969 660.464 142.79 660.482 141.619 660.482 140.448 660.464 139.305 660.424 138.116 660.369 136.964 660.303 135.774 660.209 134.641 660.097 133.452 659.985 132.281 659.864 131.147 659.695 129.996 659.498 128.863 659.293 127.711 659.114 126.54 658.852 125.406 658.618 124.273 658.345 123.141 658.064 122.007 657.774 120.874 657.466 119.768 657.099 118.636 656.791 117.54 656.388 116.443 656.023 115.311 655.639 114.271 655.199 113.148 654.758 112.07 654.32 111.011 653.824 109.935 653.345 108.868 652.84 107.809 652.323 106.807 651.79 105.739 651.227 104.737 650.677 103.735 650.076 102.724 649.524 101.74 648.887 100.728 648.278 99.745 647.585 98.771 646.968 97.863 646.285 96.889 645.61 95.943 644.879 95.006 644.222 94.107 643.456 93.227 642.743 92.337 641.974 91.438 641.217 90.576 640.42 89.734 639.614 88.9 638.828 88.039 637.985 87.233 637.143 86.409 636.3 85.66 635.458 84.872 634.577 84.105 633.707 83.393 632.844 82.606 631.925 81.913 630.999 81.174 630.061 80.499 629.106 79.843 628.198 79.169 627.242 78.505 626.277 77.905 588.667 53.742 603.371 43.786 729.721 127.149 715.158 136.917 660.136 100.325 660.772 101.477 661.343 102.667 661.943 103.875 662.496 105.046 663.047 106.272 663.573 107.481 664.051 108.708 664.529 109.935 665.005 111.18 665.436 112.398 665.875 113.644 666.278 114.908 666.683 116.172 667.046 117.465 667.394 118.71 667.759 120.012 668.04 121.277 668.368 122.569 668.583 123.871 668.882 125.172 669.117 126.465 669.314 127.785 669.52 129.088 669.687 130.38 669.829 131.719 669.959 133.021 670.08 134.369 670.155 135.671 670.231 137.001 670.268 138.341 670.325 139.642 670.325 140.954 670.325 142.311 670.268 143.604 670.231 144.944 670.155 146.282 670.08 147.575 669.959 148.914 669.829 150.207 669.687 151.545 669.52 152.848 669.314 154.14 669.117 155.479 668.882 156.781 668.583 158.074 668.368 159.375 668.04 160.677 667.759 161.913 667.394 163.216 667.046 164.48 666.683 165.781 666.278 167.037 665.875 168.282 665.436 169.528 665.005 170.754 664.529 172.019 664.051 173.227 663.573 174.445 663.047 175.653 662.496 176.879 661.943 178.05 661.343 179.277 660.736 180.448 660.136 181.618"/>
      <polygon id="bottom" class="cls-34" points="854.618 99.634 713.076 193.364 714.48 192.961 715.837 192.595 717.223 192.231 718.629 191.885 720.024 191.547 721.373 191.22 722.768 190.891 724.171 190.564 725.569 190.292 727.012 189.993 728.398 189.72 729.792 189.486 731.196 189.196 732.648 188.99 734.036 188.756 735.44 188.551 736.873 188.354 738.259 188.148 739.702 187.988 741.097 187.819 742.539 187.651 743.98 187.548 745.377 187.417 746.799 187.286 748.251 187.183 749.694 187.089 751.08 187.014 752.531 186.977 753.956 186.883 755.396 186.855 756.793 186.855 758.236 186.817 759.658 186.817 761.11 186.817 762.535 186.855 763.939 186.883 765.354 186.921 766.795 186.977 768.219 187.051 769.672 187.126 771.057 187.22 772.499 187.342 773.931 187.455 775.337 187.566 776.759 187.726 778.211 187.895 779.599 188.053 781.049 188.222 782.436 188.419 783.877 188.644 785.274 188.822 786.678 189.084 788.103 189.318 789.498 189.562 790.902 189.833 792.317 190.086 793.703 190.414 795.098 190.694 796.504 191.023 797.889 191.35 799.284 191.66 800.69 192.043 802.048 192.39 803.434 192.755 765.24 167.346 779.194 157.981 905.629 241.362 891.91 250.634 847.76 222.153 846.477 221.33 845.252 220.561 843.949 219.756 842.693 219.026 841.449 218.258 840.127 217.527 838.845 216.797 837.572 216.085 836.25 215.383 834.931 214.651 833.618 213.997 832.298 213.322 830.986 212.657 829.666 212.02 828.309 211.384 826.996 210.756 825.638 210.137 824.292 209.548 822.915 208.986 821.565 208.358 820.169 207.853 818.822 207.281 817.407 206.738 816.058 206.223 814.663 205.689 813.259 205.212 811.871 204.725 810.476 204.247 809.073 203.788 807.676 203.329 806.235 202.889 804.829 202.486 803.394 202.084 802.01 201.681 800.567 201.287 799.135 200.904 797.693 200.547 796.249 200.22 794.819 199.891 793.375 199.583 791.951 199.255 790.462 198.955 789.02 198.683 787.597 198.431 786.116 198.159 784.685 197.916 783.205 197.719 781.78 197.494 780.292 197.297 778.811 197.091 777.37 196.932 775.891 196.782 774.418 196.613 772.938 196.492 771.459 196.361 769.98 196.249 768.501 196.183 767.066 196.089 765.606 195.996 764.145 195.958 762.665 195.921 761.177 195.883 759.698 195.883 758.236 195.883 756.755 195.883 755.276 195.921 753.786 195.958 752.307 195.996 750.828 196.089 749.367 196.183 747.897 196.249 746.415 196.361 744.936 196.492 743.493 196.613 742.032 196.745 740.544 196.914 739.064 197.091 737.621 197.26 736.16 197.475 734.672 197.663 733.229 197.916 731.75 198.159 730.326 198.393 728.836 198.683 727.394 198.927 725.971 199.255 724.538 199.545 723.04 199.854 721.616 200.183 720.184 200.547 718.797 200.884 717.336 201.287 715.904 201.634 714.48 202.036 713.076 202.458 711.624 202.852 710.238 203.292 708.85 203.751 707.398 204.19 706.013 204.686 704.599 205.165 703.214 205.652 701.856 206.186 700.45 206.719 699.064 207.225 697.706 207.758 696.338 208.321 694.981 208.892 693.595 209.492 692.273 210.081 690.918 210.681 689.568 211.328 688.228 211.945 686.879 212.573 685.56 213.266 684.247 213.921 682.928 214.614 681.606 215.298 680.333 215.991 679.013 216.721 677.729 217.452 676.473 218.182 675.19 218.932 673.908 219.7 672.625 220.486 671.408 221.254 670.124 222.06 668.88 222.884 625.761 251.206 610.231 242.693 761.232 142.64 911.867 43.365 926.121 52.235 887.63 77.737 886.684 78.346 885.766 79.039 884.802 79.695 883.884 80.368 882.965 81.119 882.057 81.801 881.158 82.57 880.279 83.301 879.398 84.068 878.583 84.836 877.702 85.605 876.86 86.41 876.053 87.233 875.267 88.095 874.462 88.9 873.657 89.734 872.907 90.634 872.138 91.495 871.389 92.375 870.659 93.265 869.948 94.202 869.235 95.139 868.551 96.066 867.876 97.003 867.241 97.967 866.594 98.941 865.958 99.906 865.368 100.898 864.769 101.9 864.168 102.874 863.598 103.877 863.045 104.935 862.483 105.946 861.969 107.005 861.491 108.063 861.021 109.112 860.543 110.17 860.047 111.229 859.609 112.315 859.225 113.411 858.801 114.506 858.417 115.602 858.054 116.68 857.689 117.775 857.341 118.936 857.014 120.014 856.741 121.146 856.46 122.28 856.19 123.413 855.936 124.546 855.694 125.679 855.497 126.812 855.309 128.002 855.092 129.135 854.944 130.306 854.784 131.439 854.654 132.61 854.578 133.752 854.448 134.941 854.381 136.112 854.345 137.283 854.306 138.416 854.306 139.587 854.306 140.776 854.306 141.947 854.345 143.081 854.381 144.251 854.448 145.422 854.541 146.612 854.654 147.744 854.784 148.915 854.944 150.048 855.092 151.219 855.253 152.352 855.459 153.542 855.655 154.675 855.9 155.808 856.133 156.941 856.405 158.075 856.704 159.208 857.014 160.342 857.341 161.427 857.651 162.561 858.015 163.676 858.362 164.808 858.765 165.904 859.168 166.982 859.569 168.049 860.011 169.145 860.489 170.222 860.928 171.28 861.406 172.348 861.929 173.388 862.447 174.39 862.979 175.457 863.523 176.46 864.074 177.49 864.676 178.491 865.283 179.512 865.883 180.486 866.51 181.451 867.165 182.425 867.783 183.409 868.478 184.327 869.162 185.263 869.873 186.209 870.584 187.089 871.316 188.025 872.063 188.915 872.831 189.777 873.582 190.657 874.35 191.519 875.136 192.315 875.977 193.177 876.785 193.982 877.626 194.788 878.452 195.555 879.332 196.323 880.173 197.091 881.045 197.878 881.982 198.59 882.845 199.33 883.752 200.023 884.726 200.716 885.645 201.391 886.589 202.036 887.563 202.692 888.51 203.329 926.121 227.454 911.389 237.429 785.03 154.057 799.613 144.335 854.618 180.889 854.036 179.718 853.426 178.547 852.827 177.358 852.276 176.15 851.74 174.923 851.235 173.752 850.701 172.488 850.223 171.28 849.747 170.072 849.315 168.817 848.875 167.553 848.474 166.289 848.069 165.042 847.706 163.806 847.358 162.486 847.04 161.24 846.71 159.939 846.441 158.646 846.169 157.344 845.906 156.042 845.673 154.75 845.437 153.449 845.288 152.118 845.082 150.816 844.923 149.477 844.81 148.184 844.68 146.846 844.613 145.543 844.52 144.214 844.484 142.912 844.445 141.581 844.445 140.243 844.445 138.941 844.484 137.611 844.52 136.272 844.613 134.97 844.68 133.64 844.81 132.339 844.923 131.008 845.082 129.706 845.288 128.349 845.437 127.074 845.673 125.773 845.906 124.434 846.169 123.142 846.441 121.895 846.71 120.594 847.04 119.302 847.358 117.981 847.706 116.735 848.069 115.47 848.474 114.178 848.875 112.933 849.315 111.705 849.747 110.441 850.223 109.196 850.701 107.979 851.235 106.771 851.74 105.544 852.276 104.335 852.827 103.165 853.426 101.976 854.036 100.767 854.618 99.634"/>
    </g>
    <text class="cls-4" transform="translate(1031.145 235.17)"><tspan class="cls-18" x="0" y="0">Che</tspan><tspan class="cls-29" x="452.893" y="0">r</tspan><tspan class="cls-18" x="561.246" y="0">at</tspan><tspan class="cls-1" x="809.398" y="0">t</tspan><tspan class="cls-18" x="914.333" y="0">e</tspan></text>
  </g>
  <g>
    <ellipse class="cls-13" cx="2418.696" cy="1846.512" rx="147.583" ry="94.561"/>
    <text class="cls-5" transform="translate(2332.039 1899.172)"><tspan x="0" y="0">NL</tspan></text>
  </g>
</svg>