<?xml version="1.0" encoding="UTF-8"?>
<svg id="Calque_2" data-name="Calque 2" xmlns="http://www.w3.org/2000/svg" viewBox="0 0 1013.177 2145.391">
  <defs>
    <style>
      .cls-1 {
        font-size: 44.813px;
        letter-spacing: .015em;
      }

      .cls-2 {
        font-size: 74.693px;
        letter-spacing: .03em;
      }

      .cls-2, .cls-3 {
        font-family: SnvBeckerRegular, 'Snv Becker';
      }

      .cls-4 {
        letter-spacing: .03em;
      }

      .cls-5 {
        letter-spacing: -.012em;
      }

      .cls-6 {
        letter-spacing: -.005em;
      }

      .cls-6, .cls-7, .cls-8, .cls-9, .cls-3 {
        font-size: 99.882px;
      }

      .cls-7 {
        letter-spacing: .015em;
      }

      .cls-10, .cls-11, .cls-8, .cls-3, .cls-12, .cls-13 {
        fill: #fff;
      }

      .cls-14 {
        letter-spacing: .002em;
      }

      .cls-15 {
        letter-spacing: .022em;
      }

      .cls-11 {
        fill-rule: evenodd;
      }

      .cls-16 {
        letter-spacing: .015em;
      }

      .cls-8, .cls-9, .cls-12, .cls-17, .cls-13 {
        font-family: SnvBeckerCondensed, 'Snv Becker';
      }

      .cls-18 {
        letter-spacing: .024em;
      }

      .cls-19 {
        letter-spacing: .022em;
      }

      .cls-20 {
        letter-spacing: .007em;
      }

      .cls-12 {
        font-size: 106.498px;
        letter-spacing: .03em;
      }

      .cls-21 {
        letter-spacing: .03em;
      }

      .cls-17 {
        font-size: 93.493px;
      }

      .cls-22 {
        fill: #143dc1;
      }

      .cls-23 {
        letter-spacing: -.003em;
      }

      .cls-24 {
        letter-spacing: .015em;
      }

      .cls-25 {
        letter-spacing: 0em;
      }

      .cls-26 {
        fill: #00a650;
        stroke: #fff;
        stroke-miterlimit: 10;
        stroke-width: 5px;
      }

      .cls-27 {
        letter-spacing: .009em;
      }

      .cls-28 {
        letter-spacing: .015em;
      }

      .cls-29 {
        letter-spacing: .007em;
      }

      .cls-30 {
        letter-spacing: .013em;
      }
    </style>
  </defs>
  <g id="Calque_2-2" data-name="Calque 2">
    <g>
      <rect class="cls-22" width="1013.177" height="973" rx="36.414" ry="36.414"/>
      <rect class="cls-10" x="11.847" y="11.847" width="988.968" height="949.306" rx="23.589" ry="23.589"/>
      <rect class="cls-22" x="22.149" y="22.149" width="968.364" height="928.702" rx="11.543" ry="11.543"/>
    </g>
    <path class="cls-11" d="M887.521,911.61h-50.959V260.602h-81.314l106.554-107.621,106.554,107.621h-80.835v651.008Z"/>
    <path class="cls-11" d="M861.784,844.682l-8.212,32.842-318.656-79.683-12.355,49.408-48.968-82.036,81.818-49.332-12.282,49.117,318.656,79.683Z"/>
    <text class="cls-8" transform="translate(233.532 363.336)"><tspan class="cls-16"><tspan x="0" y="0">Calais</tspan></tspan><tspan class="cls-16" x="0" y="95.291">Duin</tspan><tspan class="cls-14" x="148.208" y="95.291">k</tspan><tspan class="cls-16" x="185.163" y="95.291">e</tspan><tspan class="cls-19" x="223.337" y="95.291">r</tspan><tspan class="cls-14" x="253.561" y="95.291">k</tspan><tspan class="cls-16" x="290.516" y="95.291">e</tspan><tspan class="cls-25" x="0" y="190.582">V</tspan><tspan class="cls-16" x="42.758" y="190.582">eu</tspan><tspan class="cls-19" x="121.447" y="190.582">r</tspan><tspan class="cls-16" x="151.671" y="190.582">ne</tspan></text>
    <g>
      <rect class="cls-10" x="218.912" y="594.926" width="435.249" height="80.354" rx="28.935" ry="28.935"/>
      <text class="cls-9" transform="translate(327.088 668.533)"><tspan class="cls-21" x="0" y="0">Oo</tspan><tspan class="cls-15" x="85.977" y="0">s</tspan><tspan class="cls-21" x="124.869" y="0">tende</tspan></text>
      <path d="M233.35,625.776h3.74l3.838,8.085c3.506-.675,7.363-1.264,11.61-1.221,2.552.044,4.539.044,7.09.109l-.02-6.384-8.317-22.031h3.838l18.778,28.677,8.396.044c1.5.022,2.805-.044,4.597.044,1.753.109,3.487.262,6.701,2.55-2.415,1.917-4.948,2.636-6.506,2.723-.993.044-4.539.109-4.753.109h-8.649l-18.934,27.631h-3.487l8.376-22.01v-6.494c-2.279.022-4.753.087-7.11.131-5.143.131-8.201-.697-11.61-1.176l-3.974,8.39h-3.604l1.305-8.76-1.13-1.003,1.071-.981-1.247-8.433Z"/>
    </g>
    <text class="cls-8" transform="translate(638.383 122.272)"><tspan class="cls-16" x="0" y="0">Oo</tspan><tspan class="cls-20" x="82.98" y="0">s</tspan><tspan class="cls-16" x="120.374" y="0">tende</tspan></text>
    <text class="cls-13" transform="translate(49.25 925.024) scale(1.05 1)"><tspan class="cls-6" x="0" y="0">1</tspan><tspan class="cls-7" x="26.859" y="0">500</tspan><tspan class="cls-1" x="168.204" y="0"> </tspan><tspan class="cls-7" x="185.309" y="0">m</tspan></text>
    <g>
      <rect class="cls-10" x="796.968" y="308.98" width="127.614" height="82.927" rx="12.978" ry="12.978"/>
      <text class="cls-17" transform="translate(803.13 382.064) scale(1.024 1)"><tspan class="cls-4" x="0" y="0">A</tspan><tspan class="cls-29" x="42.841" y="0">1</tspan><tspan class="cls-4" x="69.064" y="0">0</tspan></text>
    </g>
    <g>
      <rect class="cls-26" x="591.101" y="776.752" width="153.201" height="90.04" rx="12.978" ry="12.978"/>
      <text class="cls-12" transform="translate(594.266 857.791) scale(1.024 1)"><tspan x="0" y="0">E40</tspan></text>
    </g>
    <ellipse class="cls-10" cx="656.523" cy="382.565" rx="62.5" ry="38.5"/>
    <text class="cls-2" transform="translate(636.236 406.808)"><tspan x="0" y="0">F</tspan></text>
  </g>
  <g id="Calque_3" data-name="Calque 3">
    <g>
      <rect class="cls-22" x="71" y="1172.391" width="870.177" height="973" rx="36.414" ry="36.414"/>
      <rect class="cls-10" x="82.847" y="1184.238" width="845.968" height="949.306" rx="23.589" ry="23.589"/>
      <rect class="cls-22" x="93.149" y="1194.54" width="825.364" height="928.702" rx="11.543" ry="11.543"/>
    </g>
    <path class="cls-11" d="M815.521,2084.001h-50.959v-651.008h-81.314l106.554-107.621,106.554,107.621h-80.835v651.008Z"/>
    <path class="cls-11" d="M791.625,2025.94l-13.908,30.864-226.53-102.081-20.924,46.433-33.639-89.421,89.271-34.035-20.801,46.159,226.53,102.081Z"/>
    <text class="cls-3" transform="translate(274.532 1535.727)"><tspan class="cls-28"><tspan x="0" y="0">Calais</tspan></tspan><tspan class="cls-16" x="0" y="95.291">Duin</tspan><tspan class="cls-23" x="194.54" y="95.291">k</tspan><tspan class="cls-16" x="243.054" y="95.291">e</tspan><tspan class="cls-18" x="293.371" y="95.291">r</tspan><tspan class="cls-23" x="332.374" y="95.291">k</tspan><tspan class="cls-16" x="380.888" y="95.291">e</tspan><tspan class="cls-5" x="0" y="190.582">V</tspan><tspan class="cls-28" x="55.292" y="190.582">eu</tspan><tspan class="cls-18" x="158.757" y="190.582">r</tspan><tspan class="cls-24" x="197.76" y="190.582">ne</tspan></text>
    <g>
      <rect class="cls-10" x="277.912" y="1767.317" width="435.249" height="80.354" rx="15.726" ry="15.726"/>
      <text class="cls-9" transform="translate(386.089 1840.925)"><tspan class="cls-21" x="0" y="0">Oo</tspan><tspan class="cls-15" x="85.977" y="0">s</tspan><tspan class="cls-21" x="124.869" y="0">tende</tspan></text>
      <path d="M292.35,1798.167h3.74l3.838,8.085c3.506-.675,7.363-1.264,11.61-1.221,2.552.044,4.539.044,7.09.109l-.02-6.384-8.317-22.031h3.838l18.778,28.677,8.396.044c1.5.022,2.805-.044,4.597.044,1.753.109,3.487.262,6.701,2.55-2.415,1.917-4.948,2.636-6.506,2.723-.993.044-4.539.109-4.753.109h-8.649l-18.934,27.631h-3.487l8.376-22.01v-6.494c-2.279.022-4.753.087-7.11.131-5.143.131-8.201-.697-11.61-1.176l-3.974,8.39h-3.604l1.305-8.76-1.13-1.003,1.071-.981-1.247-8.433Z"/>
    </g>
    <text class="cls-3" transform="translate(491.197 1294.664)"><tspan class="cls-28" x="0" y="0">Oo</tspan><tspan class="cls-27" x="109.609" y="0">s</tspan><tspan class="cls-30" x="159.342" y="0">t</tspan><tspan class="cls-28" x="197.174" y="0">ende</tspan></text>
    <text class="cls-13" transform="translate(118.25 2097.416) scale(1.05 1)"><tspan class="cls-6" x="0" y="0">1</tspan><tspan class="cls-7" x="26.859" y="0">500</tspan><tspan class="cls-1" x="168.204" y="0"> </tspan><tspan class="cls-7" x="185.309" y="0">m</tspan></text>
    <g>
      <rect class="cls-10" x="724.968" y="1481.371" width="127.614" height="82.927" rx="12.978" ry="12.978"/>
      <text class="cls-17" transform="translate(731.13 1554.456) scale(1.024 1)"><tspan class="cls-4" x="0" y="0">A</tspan><tspan class="cls-29" x="42.841" y="0">1</tspan><tspan class="cls-4" x="69.064" y="0">0</tspan></text>
    </g>
    <g>
      <rect class="cls-26" x="592.101" y="1943.143" width="153.201" height="90.04" rx="12.978" ry="12.978"/>
      <text class="cls-12" transform="translate(595.266 2024.182) scale(1.024 1)"><tspan x="0" y="0">E40</tspan></text>
    </g>
  </g>
  <g id="Calque_4" data-name="Calque 4">
    <g>
      <ellipse class="cls-10" cx="183.523" cy="1555.565" rx="65.5" ry="40.348"/>
      <g>
        <path class="cls-10" d="M183.523,1592.565c-33.636,0-61-16.598-61-37s27.364-37,61-37,61,16.598,61,37-27.364,37-61,37Z"/>
        <path d="M183.523,1520.065c16.146,0,31.283,3.846,42.621,10.831,10.885,6.705,16.879,15.466,16.879,24.669s-5.994,17.964-16.879,24.669c-11.338,6.984-26.474,10.831-42.621,10.831s-31.283-3.846-42.621-10.831c-10.885-6.705-16.879-15.466-16.879-24.669s5.995-17.964,16.879-24.669c11.338-6.984,26.474-10.831,42.621-10.831M183.523,1517.065c-34.518,0-62.5,17.237-62.5,38.5s27.982,38.5,62.5,38.5,62.5-17.237,62.5-38.5-27.982-38.5-62.5-38.5h0Z"/>
      </g>
      <text class="cls-2" transform="translate(163.236 1579.808)"><tspan x="0" y="0">F</tspan></text>
    </g>
  </g>
</svg>