<?xml version="1.0" encoding="UTF-8"?>
<svg id="Calque_1" data-name="Calque 1" xmlns="http://www.w3.org/2000/svg" viewBox="0 0 842.052 333.471">
  <defs>
    <style>
      .cls-1, .cls-2, .cls-3, .cls-4, .cls-5, .cls-6, .cls-7, .cls-8 {
        fill: #fff;
      }

      .cls-1, .cls-2, .cls-6, .cls-9, .cls-7, .cls-8 {
        font-family: SnvBeckerRegular, 'Snv Becker';
      }

      .cls-2 {
        font-size: 35px;
      }

      .cls-10 {
        fill: #bb2018;
      }

      .cls-10, .cls-4 {
        fill-rule: evenodd;
      }

      .cls-11 {
        letter-spacing: -.011em;
      }

      .cls-12 {
        letter-spacing: -.14em;
      }

      .cls-13 {
        letter-spacing: -.017em;
      }

      .cls-13, .cls-14 {
        font-size: 22.203px;
      }

      .cls-15 {
        letter-spacing: -.01em;
      }

      .cls-16 {
        stroke-width: 15px;
      }

      .cls-16, .cls-17, .cls-18, .cls-19, .cls-20, .cls-21, .cls-22, .cls-23, .cls-24 {
        stroke: #fff;
        stroke-miterlimit: 10;
      }

      .cls-16, .cls-17, .cls-21, .cls-22, .cls-23 {
        fill: none;
      }

      .cls-25 {
        letter-spacing: -.011em;
      }

      .cls-17 {
        stroke-width: 11.062px;
      }

      .cls-5 {
        font-family: Alfphabet-I, Alfphabet;
        font-size: 34.866px;
      }

      .cls-26 {
        letter-spacing: -.14em;
      }

      .cls-18 {
        stroke-width: 2.056px;
      }

      .cls-18, .cls-19 {
        fill: #2e4e9d;
      }

      .cls-27 {
        letter-spacing: -.01em;
      }

      .cls-28 {
        font-size: 17px;
        letter-spacing: -.03em;
      }

      .cls-19 {
        stroke-width: 1.779px;
      }

      .cls-20 {
        stroke-width: 2.237px;
      }

      .cls-20, .cls-29 {
        fill: #2d4e9d;
      }

      .cls-21 {
        stroke-width: 5.531px;
      }

      .cls-6, .cls-7 {
        font-size: 22.703px;
      }

      .cls-30 {
        letter-spacing: -.012em;
      }

      .cls-31 {
        letter-spacing: -.039em;
      }

      .cls-32 {
        letter-spacing: -.01em;
      }

      .cls-33 {
        letter-spacing: -.01em;
      }

      .cls-34 {
        letter-spacing: -.017em;
      }

      .cls-34, .cls-35 {
        font-size: 19.212px;
      }

      .cls-22 {
        stroke-width: 13.85px;
      }

      .cls-36 {
        font-size: 14.71px;
        letter-spacing: -.03em;
      }

      .cls-37 {
        letter-spacing: -.012em;
      }

      .cls-38 {
        letter-spacing: -.01em;
      }

      .cls-35 {
        letter-spacing: -.03em;
      }

      .cls-23 {
        stroke-width: 7.5px;
      }

      .cls-39 {
        letter-spacing: -.02em;
      }

      .cls-9 {
        fill: #1d1d1b;
        font-size: 20px;
      }

      .cls-40 {
        letter-spacing: -.01em;
      }

      .cls-7 {
        letter-spacing: -.01em;
      }

      .cls-41 {
        letter-spacing: -.039em;
      }

      .cls-24 {
        fill: #3f61ab;
        stroke-width: 9px;
      }

      .cls-42 {
        letter-spacing: -.02em;
      }

      .cls-8 {
        font-size: 26.041px;
      }

      .cls-43 {
        letter-spacing: -.039em;
      }

      .cls-14 {
        letter-spacing: -.03em;
      }

      .cls-44 {
        letter-spacing: .1em;
      }
    </style>
  </defs>
  <g>
    <rect class="cls-24" x="4.5" y="106.499" width="278.146" height="139.823" rx="6.637" ry="6.637"/>
    <g>
      <g>
        <path class="cls-3" d="M119.64,231.193h-21.522c0-29.398-18.248-48.341-42.955-54.783l9.795-19.243c37.164,10.174,54.682,38.151,54.682,74.025Z"/>
        <polygon class="cls-3" points="68.744 149.975 26.198 155.205 56.034 185.678 68.744 149.975"/>
      </g>
      <g>
        <line class="cls-22" x1="109.271" y1="198.824" x2="238.597" y2="198.824"/>
        <polygon class="cls-3" points="236.679 184.522 236.679 213.126 250.976 198.826 236.679 184.522"/>
      </g>
    </g>
    <text class="cls-5" transform="translate(28.351 144.188)"><tspan x="0" y="0">De Panne</tspan></text>
  </g>
  <rect class="cls-29" x="339.879" width="231.261" height="332.586" rx="8.596" ry="8.596"/>
  <rect class="cls-20" x="343.306" y="3.531" width="224.408" height="325.524" rx="5.393" ry="5.393"/>
  <g id="rp">
    <g id="rp_main" data-name="rp main">
      <path class="cls-3" d="M457.715,272.779c-8.108,0-15.978-1.59-23.392-4.726l7.792-18.42c4.936,2.087,10.184,3.146,15.601,3.146,22.104,0,40.087-17.983,40.087-40.087s-17.983-40.087-40.087-40.087-40.087,17.983-40.087,40.087c0,5.199.978,10.252,2.905,15.019l-18.541,7.499c-2.896-7.161-4.364-14.737-4.364-22.518,0-33.132,26.955-60.087,60.087-60.087s60.087,26.955,60.087,60.087-26.955,60.087-60.087,60.087Z"/>
      <polygon class="cls-3" points="401.992 235.209 420.533 227.711 415.233 239.238 401.992 235.209"/>
      <path class="cls-3" d="M434.324,268.054c-3.241-1.37-6.385-3.042-9.346-4.968l13.24-4.242-2.333-12.522c1.975,1.285,4.07,2.399,6.228,3.311l-3.895,9.211-3.895,9.21Z"/>
    </g>
    <g>
      <polyline class="cls-16" points="457.715 162.606 457.715 152.921 457.715 108.086"/>
      <polygon class="cls-3" points="434.934 111.14 480.493 111.14 457.716 88.369 434.934 111.14"/>
    </g>
    <g>
      <line class="cls-23" x1="507.802" y1="212.692" x2="545.432" y2="212.692"/>
      <polygon class="cls-3" points="543.905 201.302 543.905 224.082 555.29 212.693 543.905 201.302"/>
    </g>
    <line class="cls-16" x1="457.715" y1="297.086" x2="457.715" y2="262.779"/>
    <g>
      <rect class="cls-18" x="438.477" y="120.999" width="38.474" height="21.913" rx="2.311" ry="2.311"/>
      <text class="cls-1" transform="translate(440.238 139.387)"><tspan class="cls-28" x="0" y="0">N</tspan><tspan class="cls-13" x="9.758" y="0">3</tspan><tspan class="cls-14" x="22.036" y="0">4</tspan></text>
    </g>
  </g>
  <text class="cls-2" transform="translate(388.096 45.584)"><tspan class="cls-15" x="0" y="0">De</tspan><tspan class="cls-12" x="37.308" y="0"> </tspan><tspan class="cls-11" x="50.608" y="0">P</tspan><tspan class="cls-32" x="69.553" y="0">anne</tspan><tspan class="cls-30" x="9.141" y="30">K</tspan><tspan class="cls-15" x="27.624" y="30">o</tspan><tspan class="cls-42" x="44.381" y="30">k</tspan><tspan class="cls-15" x="60.779" y="30">s</tspan><tspan class="cls-41" x="77.536" y="30">i</tspan><tspan class="cls-15" x="85.15" y="30">jde</tspan></text>
  <text class="cls-8" transform="translate(430.28 321.02)"><tspan class="cls-27" x="0" y="0">5</tspan><tspan class="cls-44" x="15.443" y="0">0m</tspan></text>
  <line class="cls-16" x1="372.03" y1="212.692" x2="406.336" y2="212.692"/>
  <g>
    <g id="HATCH">
      <polygon class="cls-10" points="380.666 199.543 381.186 199.937 381.689 200.35 382.177 200.783 382.646 201.235 383.098 201.705 383.531 202.192 383.945 202.696 384.338 203.215 384.711 203.75 385.062 204.299 385.392 204.861 385.699 205.436 385.983 206.022 386.244 206.62 386.482 207.227 386.695 207.842 386.885 208.466 387.049 209.097 387.189 209.733 387.304 210.375 387.393 211.02 387.457 211.669 387.495 212.32 387.508 212.971 387.495 213.623 387.457 214.274 387.393 214.922 387.304 215.568 387.189 216.209 387.049 216.846 386.885 217.477 386.695 218.1 386.482 218.716 386.244 219.323 385.983 219.92 385.699 220.507 385.392 221.081 385.062 221.644 384.711 222.193 384.338 222.727 383.945 223.247 383.531 223.751 383.098 224.238 382.646 224.708 382.177 225.159 381.689 225.592 381.186 226.006 380.666 226.399 380.131 226.772 379.582 227.123 379.02 227.453 378.445 227.76 377.859 228.044 377.262 228.306 376.655 228.543 376.039 228.757 375.415 228.946 374.785 229.111 374.148 229.25 373.507 229.365 372.861 229.454 372.212 229.518 371.562 229.556 370.91 229.569 370.258 229.556 369.608 229.518 368.959 229.454 368.314 229.365 367.672 229.25 367.035 229.111 366.405 228.946 365.781 228.757 365.165 228.543 364.558 228.306 363.961 228.044 363.375 227.76 362.8 227.453 362.238 227.123 361.689 226.772 361.154 226.399 360.634 226.006 360.131 225.592 359.643 225.159 359.174 224.708 358.722 224.238 358.289 223.751 357.875 223.247 357.482 222.727 357.109 222.193 356.758 221.644 356.428 221.081 356.121 220.507 355.837 219.92 355.576 219.323 355.338 218.716 355.125 218.1 354.935 217.477 354.771 216.846 354.631 216.209 354.517 215.568 354.427 214.922 354.363 214.274 354.325 213.623 354.312 212.971 354.325 212.32 354.363 211.669 354.427 211.02 354.517 210.375 354.631 209.733 354.771 209.097 354.935 208.466 355.125 207.842 355.338 207.227 355.576 206.62 355.837 206.022 356.121 205.436 356.428 204.861 356.758 204.299 357.109 203.75 357.482 203.215 357.875 202.696 358.289 202.192 358.722 201.705 359.174 201.235 359.643 200.783 360.131 200.35 360.634 199.937 361.154 199.543 361.689 199.171 362.238 198.819 362.8 198.49 363.375 198.183 363.961 197.898 364.558 197.637 365.165 197.399 365.781 197.186 366.405 196.997 367.035 196.832 367.672 196.692 368.314 196.578 368.959 196.489 369.608 196.425 370.258 196.386 370.91 196.373 371.562 196.386 372.212 196.425 372.861 196.489 373.507 196.578 374.148 196.692 374.785 196.832 375.415 196.997 376.039 197.186 376.655 197.399 377.262 197.637 377.859 197.898 378.445 198.183 379.02 198.49 379.582 198.819 380.131 199.171 380.666 199.543"/>
    </g>
    <g id="HATCH-2" data-name="HATCH">
      <polygon class="cls-4" points="385.776 209.967 385.866 210.449 385.977 211.235 386.048 212.026 386.076 212.82 386.063 213.613 386.009 214.406 385.913 215.194 385.776 215.976 356.044 215.976 355.954 215.494 355.843 214.708 355.773 213.917 355.744 213.123 355.757 212.329 355.811 211.537 355.907 210.749 356.044 209.967 385.776 209.967"/>
    </g>
  </g>
  <g>
    <rect class="cls-29" x="626.791" y="37.885" width="215.261" height="295.586" rx="8.596" ry="8.596"/>
    <rect class="cls-20" x="630.218" y="41.416" width="208.408" height="288.524" rx="5.393" ry="5.393"/>
    <g id="rp-2" data-name="rp">
      <g id="rp_main-2" data-name="rp main">
        <path class="cls-3" d="M766.862,272.67c-4.984,0-9.822-.978-14.38-2.905l4.79-11.324c3.034,1.283,6.261,1.934,9.59,1.934,13.588,0,24.643-11.055,24.643-24.643s-11.055-24.643-24.643-24.643-24.643,11.055-24.643,24.643c0,3.196.601,6.302,1.786,9.233l-11.398,4.61c-1.78-4.402-2.683-9.059-2.683-13.843,0-20.368,16.571-36.938,36.938-36.938s36.938,16.571,36.938,36.938-16.571,36.938-36.938,36.938Z"/>
        <polygon class="cls-3" points="732.606 249.574 744.005 244.964 740.746 252.051 732.606 249.574"/>
        <path class="cls-3" d="M752.483,269.765c-1.992-.842-3.925-1.87-5.745-3.054l8.139-2.608-1.434-7.698c1.214.79,2.502,1.475,3.828,2.035l-2.394,5.662-2.394,5.662Z"/>
      </g>
      <line class="cls-17" x1="766.862" y1="204.168" x2="766.862" y2="166.994"/>
      <g>
        <line class="cls-21" x1="798.079" y1="235.732" x2="822.031" y2="235.732"/>
        <polygon class="cls-3" points="820.904 227.331 820.904 244.131 829.301 235.732 820.904 227.331"/>
      </g>
      <line class="cls-17" x1="766.862" y1="297.971" x2="766.862" y2="266.157"/>
    </g>
    <text class="cls-6" transform="translate(636.344 89.686)"><tspan class="cls-33" x="0" y="0">De</tspan><tspan class="cls-26" x="24.2" y="0"> </tspan><tspan class="cls-25" x="32.828" y="0">P</tspan><tspan class="cls-38" x="45.116" y="0">anne</tspan><tspan class="cls-37" x="0" y="21">K</tspan><tspan class="cls-38" x="11.989" y="21">o</tspan><tspan class="cls-39" x="22.858" y="21">k</tspan><tspan class="cls-38" x="33.496" y="21">s</tspan><tspan class="cls-31" x="44.365" y="21">i</tspan><tspan class="cls-33" x="49.304" y="21">jde</tspan></text>
    <text class="cls-7" transform="translate(744.192 321.904)"><tspan x="0" y="0">50m</tspan></text>
    <line class="cls-17" x1="703.67" y1="235.732" x2="732.606" y2="235.732"/>
    <g>
      <g id="HATCH-3" data-name="HATCH">
        <polygon class="cls-10" points="710.04 226.034 710.423 226.324 710.794 226.629 711.154 226.949 711.5 227.282 711.833 227.628 712.153 227.987 712.458 228.359 712.748 228.742 713.022 229.137 713.282 229.541 713.525 229.956 713.751 230.38 713.961 230.812 714.154 231.253 714.329 231.7 714.486 232.155 714.626 232.615 714.747 233.08 714.85 233.549 714.935 234.022 715.001 234.498 715.048 234.977 715.076 235.457 715.085 235.937 715.076 236.418 715.048 236.898 715.001 237.376 714.935 237.852 714.85 238.325 714.747 238.795 714.626 239.26 714.486 239.72 714.329 240.174 714.154 240.621 713.961 241.062 713.751 241.494 713.525 241.918 713.282 242.333 713.022 242.738 712.748 243.132 712.458 243.515 712.153 243.887 711.833 244.246 711.5 244.593 711.154 244.926 710.794 245.245 710.423 245.55 710.04 245.84 709.645 246.115 709.24 246.374 708.826 246.617 708.402 246.844 707.969 247.053 707.529 247.246 707.081 247.421 706.627 247.579 706.167 247.718 705.702 247.84 705.233 247.943 704.76 248.027 704.283 248.093 703.805 248.14 703.325 248.168 702.845 248.178 702.364 248.168 701.884 248.14 701.406 248.093 700.93 248.027 700.457 247.943 699.987 247.84 699.522 247.718 699.062 247.579 698.608 247.421 698.16 247.246 697.72 247.053 697.288 246.844 696.864 246.617 696.449 246.374 696.044 246.115 695.65 245.84 695.267 245.55 694.895 245.245 694.536 244.926 694.189 244.593 693.856 244.246 693.537 243.887 693.232 243.515 692.942 243.132 692.667 242.738 692.408 242.333 692.165 241.918 691.938 241.494 691.728 241.062 691.536 240.621 691.361 240.174 691.203 239.72 691.064 239.26 690.942 238.795 690.839 238.325 690.755 237.852 690.689 237.376 690.642 236.898 690.613 236.418 690.604 235.937 690.613 235.457 690.642 234.977 690.689 234.498 690.755 234.022 690.839 233.549 690.942 233.08 691.064 232.615 691.203 232.155 691.361 231.7 691.536 231.253 691.728 230.812 691.938 230.38 692.165 229.956 692.408 229.541 692.667 229.137 692.942 228.742 693.232 228.359 693.537 227.987 693.856 227.628 694.189 227.282 694.536 226.949 694.895 226.629 695.267 226.324 695.65 226.034 696.044 225.759 696.449 225.5 696.864 225.257 697.288 225.031 697.72 224.821 698.16 224.628 698.608 224.453 699.062 224.296 699.522 224.156 699.987 224.035 700.457 223.932 700.93 223.847 701.406 223.781 701.884 223.734 702.364 223.706 702.845 223.696 703.325 223.706 703.805 223.734 704.283 223.781 704.76 223.847 705.233 223.932 705.702 224.035 706.167 224.156 706.627 224.296 707.081 224.453 707.529 224.628 707.969 224.821 708.402 225.031 708.826 225.257 709.24 225.5 709.645 225.759 710.04 226.034"/>
      </g>
      <g id="HATCH-4" data-name="HATCH">
        <polygon class="cls-4" points="713.808 233.721 713.874 234.077 713.957 234.657 714.008 235.24 714.03 235.825 714.02 236.411 713.98 236.995 713.909 237.576 713.808 238.153 691.881 238.153 691.815 237.797 691.733 237.218 691.681 236.634 691.66 236.049 691.669 235.464 691.709 234.879 691.78 234.298 691.881 233.721 713.808 233.721"/>
      </g>
    </g>
    <g id="rp-3" data-name="rp">
      <g id="rp_main-3" data-name="rp main">
        <path class="cls-3" d="M766.862,172.016c-4.984,0-9.822-.978-14.38-2.905l4.79-11.324c3.034,1.283,6.261,1.934,9.59,1.934,13.588,0,24.643-11.055,24.643-24.643s-11.055-24.643-24.643-24.643-24.643,11.055-24.643,24.643c0,3.196.601,6.302,1.786,9.233l-11.398,4.61c-1.78-4.402-2.683-9.059-2.683-13.843,0-20.368,16.571-36.938,36.938-36.938s36.938,16.571,36.938,36.938-16.571,36.938-36.938,36.938Z"/>
        <polygon class="cls-3" points="732.606 148.92 744.005 144.311 740.746 151.397 732.606 148.92"/>
        <path class="cls-3" d="M752.483,169.111c-1.992-.842-3.925-1.87-5.745-3.054l8.139-2.608-1.434-7.698c1.214.79,2.502,1.475,3.828,2.035l-2.394,5.662-2.394,5.662Z"/>
        <g>
          <line class="cls-17" x1="677.753" y1="134.548" x2="730.63" y2="135.078"/>
          <polygon class="cls-3" points="680.174 117.772 679.838 151.369 663.213 134.404 680.174 117.772"/>
        </g>
      </g>
      <g>
        <polyline class="cls-21" points="766.862 98.139 766.862 90.997 766.862 81.233"/>
        <polygon class="cls-3" points="758.462 82.359 775.261 82.359 766.863 73.963 758.462 82.359"/>
      </g>
      <g>
        <line class="cls-21" x1="798.079" y1="135.078" x2="822.031" y2="135.078"/>
        <polygon class="cls-3" points="820.904 126.678 820.904 143.477 829.301 135.078 820.904 126.678"/>
      </g>
      <g>
        <rect class="cls-19" x="686.198" y="125.597" width="33.292" height="18.962" rx="1.999" ry="1.999"/>
        <text class="cls-1" transform="translate(687.723 141.509)"><tspan class="cls-36" x="0" y="0">N</tspan><tspan class="cls-34" x="8.443" y="0">3</tspan><tspan class="cls-35" x="19.068" y="0">4</tspan></text>
      </g>
    </g>
    <g>
      <rect class="cls-3" x="735.432" y="48.88" width="62.86" height="20.739" rx="2.65" ry="2.65"/>
      <text class="cls-9" transform="translate(737.228 64.195)"><tspan class="cls-40" x="0" y="0">Zeed</tspan><tspan class="cls-43" x="39.2" y="0">i</tspan><tspan class="cls-40" x="43.551" y="0">jk</tspan></text>
    </g>
  </g>
</svg>