<?xml version="1.0" encoding="UTF-8"?>
<svg id="Calque_1" data-name="Calque 1" xmlns="http://www.w3.org/2000/svg" xmlns:xlink="http://www.w3.org/1999/xlink" viewBox="0 0 9431.703 8354">
  <defs>
    <style>
      .cls-1 {
        letter-spacing: 0em;
      }

      .cls-1, .cls-2, .cls-3 {
        font-size: 536.094px;
      }

      .cls-4 {
        font-size: 455.833px;
      }

      .cls-5 {
        font-size: 558.913px;
      }

      .cls-6 {
        letter-spacing: .013em;
      }

      .cls-7 {
        letter-spacing: .024em;
      }

      .cls-2 {
        letter-spacing: -.015em;
      }

      .cls-8, .cls-9, .cls-10, .cls-11 {
        fill: #fff;
      }

      .cls-12 {
        letter-spacing: .013em;
      }

      .cls-13 {
        fill: #9b9b9b;
      }

      .cls-14 {
        letter-spacing: .025em;
      }

      .cls-15 {
        font-size: 437.222px;
      }

      .cls-16 {
        letter-spacing: .025em;
      }

      .cls-17 {
        letter-spacing: .052em;
      }

      .cls-18 {
        letter-spacing: .052em;
      }

      .cls-9 {
        font-size: 643.789px;
      }

      .cls-9, .cls-10, .cls-11 {
        font-family: SnvBeckerRegular, 'Snv Becker';
      }

      .cls-19 {
        stroke-width: 34px;
      }

      .cls-19, .cls-20 {
        stroke: #fff;
        stroke-miterlimit: 10;
      }

      .cls-19, .cls-20, .cls-21 {
        fill: #2165b7;
      }

      .cls-22 {
        font-family: SnvBeckerCondensed, 'Snv Becker';
        font-size: 501.434px;
      }

      .cls-22, .cls-10 {
        opacity: .98;
      }

      .cls-20 {
        stroke-dasharray: 100;
        stroke-width: 19.819px;
      }

      .cls-23 {
        fill: #b2b2b1;
      }

      .cls-24 {
        fill: url(#Dégradé_sans_nom_22);
      }

      .cls-3 {
        letter-spacing: -.023em;
      }

      .cls-25 {
        letter-spacing: .034em;
      }

      .cls-26 {
        letter-spacing: .03em;
      }

      .cls-27 {
        letter-spacing: .025em;
      }

      .cls-28 {
        letter-spacing: .025em;
      }

      .cls-29 {
        letter-spacing: .025em;
      }

      .cls-30 {
        fill-rule: evenodd;
      }

      .cls-31 {
        fill: url(#Dégradé_sans_nom_22-2);
      }

      .cls-11 {
        font-size: 549.579px;
      }

      .cls-32 {
        letter-spacing: .034em;
      }
    </style>
    <linearGradient id="Dégradé_sans_nom_22" data-name="Dégradé sans nom 22" x1="9216.802" y1="8647.652" x2="9216.802" y2="6053.27" gradientUnits="userSpaceOnUse">
      <stop offset="0" stop-color="#fff" stop-opacity="0"/>
      <stop offset=".068" stop-color="#f5f5f5" stop-opacity=".122"/>
      <stop offset=".231" stop-color="#e1e1e0" stop-opacity=".388"/>
      <stop offset=".394" stop-color="#d0d0cf" stop-opacity=".608"/>
      <stop offset=".555" stop-color="#c2c2c2" stop-opacity=".779"/>
      <stop offset=".711" stop-color="#b9b9b8" stop-opacity=".902"/>
      <stop offset=".862" stop-color="#b3b3b2" stop-opacity=".975"/>
      <stop offset="1" stop-color="#b2b2b1"/>
    </linearGradient>
    <linearGradient id="Dégradé_sans_nom_22-2" data-name="Dégradé sans nom 22" x1="4293.901" y1="8666.652" x2="4293.901" y2="6072.27" xlink:href="#Dégradé_sans_nom_22"/>
  </defs>
  <g>
    <rect class="cls-13" x="8847.901" y="593" width="407" height="166"/>
    <rect class="cls-13" x="8847.901" y="2968" width="407" height="166"/>
  </g>
  <g id="piquet">
    <path class="cls-24" d="M9361.221,4178.44V289h-288.838v3889.44c0,18.894-3.065,37.662-9.075,55.574l-52.333,155.972c-6.01,17.912-9.075,36.681-9.075,55.574v3889.44h429.802v-3889.44c0-18.894-3.065-37.662-9.075-55.574l-52.333-155.972c-6.01-17.912-9.075-36.681-9.075-55.574Z"/>
  </g>
  <g>
    <rect class="cls-13" x="5322.901" y="207" width="226" height="289"/>
    <rect class="cls-13" x="8503.901" y="207" width="194" height="289"/>
  </g>
  <rect id="piquet2" class="cls-23" x="4922.901" width="4438" height="289"/>
  <rect class="cls-21" x="5019.901" y="351.5" width="3982" height="3025" rx="65.13" ry="65.13"/>
  <rect class="cls-19" x="5092.401" y="414.766" width="3837" height="2898.467" rx="62.759" ry="62.759"/>
  <polygon class="cls-8" points="8286.777 2645.05 8231.627 2700.2 8480.273 2948.846 8318.944 3110.174 8751.901 3110.174 8751.901 2677.217 8590.572 2838.546 8341.926 2589.9 8286.777 2645.05"/>
  <g>
    <rect class="cls-21" x="6944.267" y="2588.265" width="731.315" height="522.868" rx="47.788" ry="47.788"/>
    <g>
      <path class="cls-21" d="M6997.495,2617.994h624.86c12.969,0,23.499,10.53,23.499,23.499v416.413c0,12.97-10.53,23.5-23.5,23.5h-624.859c-12.97,0-23.5-10.53-23.5-23.5v-416.414c0-12.969,10.53-23.499,23.499-23.499Z"/>
      <path class="cls-8" d="M7622.355,2627.903c7.494,0,13.59,6.096,13.59,13.59v416.413c0,7.493-6.096,13.59-13.59,13.59h-624.86c-7.494,0-13.59-6.096-13.59-13.59v-416.413c0-7.493,6.096-13.59,13.59-13.59h624.86M7622.355,2608.084h-624.86c-18.451,0-33.409,14.958-33.409,33.409v416.413c0,18.451,14.958,33.409,33.409,33.409h624.86c18.451,0,33.409-14.958,33.409-33.409v-416.413c0-18.451-14.958-33.409-33.409-33.409h0Z"/>
    </g>
    <text class="cls-10" transform="translate(7013.67 3040.905)"><tspan class="cls-4" x="0" y="0">N</tspan><tspan class="cls-5" x="275.325" y="0">3</tspan></text>
  </g>
  <g>
    <rect class="cls-8" x="5295.91" y="2615.224" width="1065.665" height="495.488" rx="247.744" ry="247.744"/>
    <g>
      <text class="cls-22" transform="translate(5825.492 3027.717)"><tspan class="cls-7" x="0" y="0">3</tspan><tspan class="cls-26" x="223.402" y="0">7</tspan></text>
      <g>
        <g id="HATCH">
          <polygon class="cls-30" points="5429.729 3025.966 5500.666 2713.009 5531.961 2713.009 5523.616 3025.966 5429.729 3025.966"/>
        </g>
        <g id="HATCH-2" data-name="HATCH">
          <polygon class="cls-30" points="5632.872 2845.494 5630.545 2856.256 5628.784 2867.124 5627.594 2878.07 5626.979 2889.063 5626.94 2900.073 5626.998 2902.174 5655.058 3025.966 5561.171 3025.966 5552.825 2713.009 5584.121 2713.009 5607.186 2814.766 5607.232 2814.675 5610.383 2808.885 5613.833 2803.269 5617.572 2797.841 5621.59 2792.615 5625.876 2787.608 5630.418 2782.831 5635.204 2778.299 5640.221 2774.024 5645.454 2770.016 5650.89 2766.289 5656.514 2762.851 5662.31 2759.711 5668.262 2756.88 5674.354 2754.364 5669.408 2746.932 5664.08 2739.77 5658.384 2732.896 5652.337 2726.329 5645.954 2720.088 5642.453 2716.929 5642.404 2716.885 5642.206 2716.697 5642.018 2716.499 5641.84 2716.291 5641.674 2716.075 5641.519 2715.85 5641.377 2715.617 5641.246 2715.377 5641.129 2715.13 5641.024 2714.878 5640.933 2714.621 5640.856 2714.359 5640.792 2714.093 5640.742 2713.825 5640.706 2713.554 5640.685 2713.282 5640.678 2713.009 5640.685 2712.736 5640.706 2712.464 5640.742 2712.193 5640.792 2711.924 5640.856 2711.659 5640.933 2711.397 5641.024 2711.14 5641.129 2710.887 5641.246 2710.641 5641.377 2710.401 5641.519 2710.168 5641.674 2709.943 5641.84 2709.726 5642.018 2709.519 5642.206 2709.321 5642.404 2709.133 5642.611 2708.955 5642.828 2708.789 5643.053 2708.634 5643.286 2708.492 5643.526 2708.361 5643.772 2708.244 5644.025 2708.139 5644.282 2708.048 5644.544 2707.971 5644.809 2707.907 5645.078 2707.857 5645.349 2707.821 5645.621 2707.8 5645.894 2707.793 5743.918 2707.793 5744.145 2707.798 5744.418 2707.817 5744.689 2707.85 5744.958 2707.898 5745.224 2707.959 5745.486 2708.034 5745.744 2708.123 5745.998 2708.226 5746.245 2708.341 5746.486 2708.469 5746.72 2708.61 5746.947 2708.762 5747.165 2708.927 5747.374 2709.102 5747.574 2709.289 5747.763 2709.485 5747.942 2709.691 5748.111 2709.906 5748.267 2710.13 5748.412 2710.362 5748.544 2710.6 5748.664 2710.846 5748.771 2711.097 5748.864 2711.354 5748.944 2711.615 5749.01 2711.88 5749.062 2712.148 5749.1 2712.418 5749.124 2712.69 5749.133 2712.963 5749.129 2713.236 5749.11 2713.509 5749.076 2713.78 5749.029 2714.049 5748.968 2714.315 5748.892 2714.577 5707.624 2845.465 5707.618 2845.481 5707.555 2845.661 5707.483 2845.838 5707.401 2846.011 5707.311 2846.18 5707.212 2846.343 5707.104 2846.501 5706.988 2846.653 5706.865 2846.799 5706.734 2846.938 5706.596 2847.07 5706.451 2847.195 5706.3 2847.312 5706.143 2847.421 5705.98 2847.521 5705.812 2847.613 5705.64 2847.696 5705.464 2847.77 5705.284 2847.835 5705.101 2847.89 5704.915 2847.935 5704.727 2847.971 5704.538 2847.997 5704.348 2848.012 5704.156 2848.018 5703.965 2848.014 5703.775 2848 5703.585 2847.976 5703.397 2847.941 5703.211 2847.898 5703.027 2847.844 5702.847 2847.781 5702.67 2847.709 5702.497 2847.627 5702.329 2847.536 5702.165 2847.437 5702.008 2847.33 5701.855 2847.214 5701.71 2847.09 5701.57 2846.959 5701.438 2846.821 5701.313 2846.676 5701.196 2846.525 5701.087 2846.368 5700.987 2846.206 5700.895 2846.038 5700.812 2845.866 5700.738 2845.69 5700.674 2845.51 5700.619 2845.327 5700.573 2845.141 5700.538 2844.953 5700.512 2844.764 5700.496 2844.573 5700.49 2844.382 5700.22 2835.459 5699.483 2826.563 5698.281 2817.717 5696.618 2808.946 5694.498 2800.274 5691.927 2791.726 5688.913 2783.323 5687.927 2780.844 5683.175 2783.191 5678.552 2785.783 5674.072 2788.614 5669.746 2791.676 5665.586 2794.959 5661.603 2798.456 5657.809 2802.157 5654.214 2806.051 5650.828 2810.128 5647.659 2814.376 5644.717 2818.785 5642.011 2823.341 5639.546 2828.033 5637.33 2832.847 5635.369 2837.771 5633.669 2842.791 5632.872 2845.494"/>
        </g>
      </g>
    </g>
  </g>
  <text class="cls-9" transform="translate(5295.385 1022.763)"><tspan class="cls-14" x="0" y="0">Flé</tspan><tspan class="cls-25" x="849.248" y="0">r</tspan><tspan class="cls-14" x="1107.078" y="0">on</tspan><tspan class="cls-14" x="0" y="600">He</tspan><tspan class="cls-18" x="735.705" y="600">r</tspan><tspan class="cls-12" x="1004.851" y="600">v</tspan><tspan class="cls-14" x="1327.751" y="600">e</tspan><tspan class="cls-28"><tspan x="0" y="1200">Soumagne</tspan></tspan></text>
  <g>
    <rect class="cls-21" x="7123.119" y="1193.76" width="1117.782" height="522.868" rx="47.788" ry="47.788"/>
    <rect class="cls-20" x="7171.315" y="1221.763" width="1036.586" height="466.863" rx="33.409" ry="33.409"/>
    <text class="cls-10" transform="translate(7220.534 1639.832)"><tspan class="cls-15" x="0" y="0">N</tspan><tspan class="cls-2" x="264.084" y="0">1</tspan><tspan class="cls-3" x="438.681" y="0">1</tspan><tspan class="cls-1" x="609.09" y="0">0</tspan></text>
  </g>
  <g>
    <rect class="cls-13" x="3925" y="612" width="407" height="166"/>
    <rect class="cls-13" x="3925" y="2987" width="407" height="166"/>
  </g>
  <g id="piquet-2" data-name="piquet">
    <path class="cls-31" d="M4438.32,4197.44V308h-288.838v3889.44c0,18.894-3.065,37.662-9.075,55.574l-52.333,155.972c-6.01,17.912-9.075,36.681-9.075,55.574v3889.44h429.802v-3889.44c0-18.894-3.065-37.662-9.075-55.574l-52.333-155.972c-6.01-17.912-9.075-36.681-9.075-55.574Z"/>
  </g>
  <g>
    <rect class="cls-13" x="400" y="226" width="226" height="289"/>
    <rect class="cls-13" x="3581" y="226" width="194" height="289"/>
  </g>
  <rect id="piquet2-2" data-name="piquet2" class="cls-23" y="19" width="4438" height="289"/>
  <rect class="cls-21" x="97" y="370.5" width="3982" height="3405.5" rx="65.13" ry="65.13"/>
  <rect class="cls-19" x="169.5" y="441.724" width="3837" height="3263.051" rx="62.759" ry="62.759"/>
  <polygon class="cls-8" points="3332.777 3028.876 3277.627 3084.025 3526.273 3332.671 3364.944 3494 3797.901 3494 3797.901 3061.043 3636.572 3222.372 3387.926 2973.726 3332.777 3028.876"/>
  <g>
    <rect class="cls-21" x="387.366" y="2972.265" width="731.315" height="522.868" rx="47.788" ry="47.788"/>
    <g>
      <path class="cls-21" d="M440.594,3001.994h624.86c12.969,0,23.499,10.53,23.499,23.499v416.414c0,12.969-10.53,23.499-23.499,23.499H440.594c-12.97,0-23.5-10.53-23.5-23.5v-416.413c0-12.97,10.53-23.499,23.499-23.499Z"/>
      <path class="cls-8" d="M1065.454,3011.903c7.494,0,13.59,6.096,13.59,13.59v416.413c0,7.494-6.096,13.59-13.59,13.59H440.594c-7.494,0-13.59-6.096-13.59-13.59v-416.413c0-7.493,6.096-13.59,13.59-13.59h624.86M1065.454,2992.084H440.594c-18.451,0-33.409,14.958-33.409,33.409v416.413c0,18.451,14.958,33.409,33.409,33.409h624.86c18.451,0,33.409-14.958,33.409-33.409v-416.413c0-18.451-14.958-33.409-33.409-33.409h0Z"/>
    </g>
    <text class="cls-10" transform="translate(456.77 3424.905)"><tspan class="cls-4" x="0" y="0">N</tspan><tspan class="cls-5" x="275.325" y="0">3</tspan></text>
  </g>
  <g>
    <rect class="cls-8" x="378.009" y="660.224" width="1065.665" height="495.488" rx="247.744" ry="247.744"/>
    <g>
      <text class="cls-22" transform="translate(907.591 1072.717)"><tspan class="cls-7" x="0" y="0">3</tspan><tspan class="cls-26" x="223.402" y="0">7</tspan></text>
      <g>
        <g id="HATCH-3" data-name="HATCH">
          <polygon class="cls-30" points="511.828 1070.966 582.765 758.009 614.06 758.009 605.715 1070.966 511.828 1070.966"/>
        </g>
        <g id="HATCH-4" data-name="HATCH">
          <polygon class="cls-30" points="714.971 890.494 712.644 901.256 710.883 912.124 709.693 923.07 709.078 934.063 709.039 945.073 709.097 947.174 737.157 1070.966 643.27 1070.966 634.924 758.009 666.22 758.009 689.285 859.766 689.331 859.675 692.482 853.885 695.932 848.269 699.671 842.841 703.689 837.615 707.975 832.608 712.517 827.831 717.303 823.299 722.32 819.024 727.553 815.016 732.989 811.289 738.613 807.851 744.409 804.711 750.361 801.88 756.453 799.364 751.507 791.932 746.179 784.77 740.484 777.896 734.436 771.329 728.053 765.088 724.552 761.929 724.503 761.885 724.305 761.697 724.117 761.499 723.939 761.291 723.773 761.075 723.618 760.85 723.476 760.617 723.345 760.377 723.228 760.13 723.123 759.878 723.032 759.621 722.955 759.359 722.891 759.093 722.841 758.825 722.806 758.554 722.784 758.282 722.777 758.009 722.784 757.736 722.806 757.464 722.841 757.193 722.891 756.924 722.955 756.659 723.032 756.397 723.123 756.14 723.228 755.887 723.345 755.641 723.476 755.401 723.618 755.168 723.773 754.943 723.939 754.726 724.117 754.519 724.305 754.321 724.503 754.133 724.71 753.955 724.927 753.789 725.152 753.634 725.385 753.492 725.625 753.361 725.871 753.244 726.124 753.139 726.381 753.048 726.643 752.971 726.908 752.907 727.177 752.857 727.448 752.821 727.72 752.8 727.993 752.793 826.017 752.793 826.244 752.798 826.517 752.817 826.788 752.85 827.057 752.898 827.323 752.959 827.585 753.034 827.843 753.123 828.097 753.226 828.344 753.341 828.585 753.469 828.819 753.61 829.046 753.762 829.264 753.927 829.473 754.102 829.673 754.289 829.862 754.485 830.042 754.691 830.21 754.906 830.366 755.13 830.511 755.362 830.643 755.6 830.763 755.846 830.87 756.097 830.963 756.354 831.043 756.615 831.109 756.88 831.161 757.148 831.199 757.418 831.223 757.69 831.233 757.963 831.228 758.236 831.209 758.509 831.175 758.78 831.128 759.049 831.067 759.315 830.991 759.577 789.723 890.465 789.718 890.481 789.655 890.661 789.582 890.838 789.501 891.011 789.41 891.18 789.311 891.343 789.203 891.501 789.087 891.653 788.964 891.799 788.833 891.938 788.695 892.07 788.55 892.195 788.399 892.312 788.242 892.421 788.079 892.521 787.912 892.613 787.739 892.696 787.563 892.77 787.383 892.835 787.2 892.89 787.014 892.935 786.827 892.971 786.637 892.997 786.447 893.012 786.256 893.018 786.064 893.014 785.874 893 785.684 892.976 785.496 892.941 785.31 892.898 785.127 892.844 784.946 892.781 784.769 892.709 784.596 892.627 784.428 892.536 784.265 892.437 784.107 892.33 783.954 892.214 783.809 892.09 783.669 891.959 783.537 891.821 783.413 891.676 783.296 891.525 783.187 891.368 783.086 891.206 782.994 891.038 782.911 890.866 782.837 890.69 782.773 890.51 782.718 890.327 782.672 890.141 782.637 889.953 782.611 889.764 782.595 889.573 782.589 889.382 782.319 880.459 781.582 871.563 780.38 862.717 778.717 853.946 776.597 845.274 774.026 836.726 771.012 828.323 770.026 825.844 765.274 828.191 760.652 830.783 756.171 833.614 751.845 836.676 747.685 839.959 743.702 843.456 739.908 847.157 736.313 851.051 732.927 855.128 729.758 859.376 726.817 863.785 724.11 868.341 721.645 873.033 719.429 877.847 717.468 882.771 715.768 887.791 714.971 890.494"/>
        </g>
      </g>
    </g>
  </g>
  <text class="cls-11" transform="translate(378.484 1732.239)"><tspan class="cls-29" x="0" y="0">Flé</tspan><tspan class="cls-32" x="724.971" y="0">r</tspan><tspan class="cls-16" x="945.071" y="0">on</tspan><tspan class="cls-27" x="0" y="512.198">He</tspan><tspan class="cls-17" x="628.044" y="512.198">r</tspan><tspan class="cls-6" x="857.804" y="512.198">v</tspan><tspan class="cls-16" x="1133.452" y="512.198">e</tspan><tspan class="cls-29"><tspan x="0" y="1024.396">Soumagne</tspan></tspan></text>
</svg>