<?xml version="1.0" encoding="UTF-8"?>
<svg id="Calque_2" data-name="Calque 2" xmlns="http://www.w3.org/2000/svg" viewBox="0 0 7871.292 5480.34">
  <defs>
    <style>
      .cls-1, .cls-2, .cls-3, .cls-4, .cls-5, .cls-6 {
        font-family: SnvBeckerRegular, 'Snv Becker';
      }

      .cls-1, .cls-7, .cls-8, .cls-9, .cls-10, .cls-6 {
        fill: #fff;
      }

      .cls-2, .cls-11, .cls-6 {
        font-size: 300px;
      }

      .cls-12 {
        letter-spacing: .039em;
      }

      .cls-13 {
        letter-spacing: .021em;
      }

      .cls-13, .cls-14, .cls-15, .cls-16, .cls-4, .cls-5 {
        font-size: 250px;
      }

      .cls-17, .cls-18 {
        font-size: 50px;
      }

      .cls-19 {
        letter-spacing: .036em;
      }

      .cls-20, .cls-5 {
        fill: #ea3b18;
      }

      .cls-21, .cls-15 {
        letter-spacing: .014em;
      }

      .cls-22 {
        fill: #19a36b;
      }

      .cls-22, .cls-9 {
        stroke: #fff;
        stroke-miterlimit: 10;
        stroke-width: 15px;
      }

      .cls-23 {
        letter-spacing: .013em;
      }

      .cls-24 {
        letter-spacing: .031em;
      }

      .cls-25 {
        letter-spacing: -.002em;
      }

      .cls-8, .cls-16, .cls-18, .cls-5, .cls-26 {
        letter-spacing: .025em;
      }

      .cls-8, .cls-10 {
        font-family: SnvBeckerCondensed, 'Snv Becker';
      }

      .cls-27 {
        letter-spacing: .007em;
      }

      .cls-28 {
        letter-spacing: .016em;
      }

      .cls-29 {
        letter-spacing: .035em;
      }

      .cls-30 {
        fill: #2054a0;
      }

      .cls-31 {
        letter-spacing: .019em;
      }

      .cls-32 {
        letter-spacing: .052em;
      }

      .cls-4 {
        letter-spacing: .056em;
      }

      .cls-33 {
        letter-spacing: .035em;
      }

      .cls-34 {
        letter-spacing: .022em;
      }

      .cls-35 {
        letter-spacing: .038em;
      }
    </style>
  </defs>
  <g>
    <rect class="cls-30" y="639.981" width="3670" height="1500" rx="36.13" ry="36.13"/>
    <rect class="cls-7" x="20" y="659.981" width="3630" height="1460" rx="58.391" ry="58.391"/>
    <rect class="cls-30" x="40" y="679.981" width="3590" height="1420" rx="38.391" ry="38.391"/>
    <polyline class="cls-7" points="1884.144 1801.98 1835 1801.98 1835 2019.981 1998.478 1890.658 1884.144 1890.658 1884.144 1801.98 1785.856 1801.98 1785.856 1890.658 1671.521 1890.658 1835 2019.981 1835 1801.98 1785.856 1801.98"/>
    <polyline class="cls-7" points="336.1 1801.98 286.957 1801.98 286.957 2019.981 450.435 1890.658 336.1 1890.658 336.1 1801.98 237.813 1801.98 237.813 1890.658 123.478 1890.658 286.957 2019.981 286.957 1801.98 237.813 1801.98"/>
    <polyline class="cls-7" points="3432.187 1801.98 3383.043 1801.98 3383.043 2019.981 3546.522 1890.658 3432.187 1890.658 3432.187 1801.98 3333.899 1801.98 3333.899 1890.658 3219.564 1890.658 3383.043 2019.981 3383.043 1801.98 3333.899 1801.98"/>
    <text class="cls-6" transform="translate(730.744 1074.546)"><tspan class="cls-26"><tspan x="0" y="0">Gand</tspan></tspan><tspan class="cls-26" x="-294.434" y="300">B</tspan><tspan class="cls-12" x="-105.586" y="300">r</tspan><tspan class="cls-26" x="16.025" y="300">u</tspan><tspan class="cls-27" x="178.652" y="300">x</tspan><tspan class="cls-26" x="323.701" y="300">elles</tspan><tspan class="cls-26" x="-179.78" y="600">Lou</tspan><tspan class="cls-21" x="285.542" y="600">v</tspan><tspan class="cls-26" x="436.304" y="600">ain</tspan></text>
    <text class="cls-6" transform="translate(2151.243 1074.546)"><tspan class="cls-26" x="0" y="0">A</tspan><tspan class="cls-23" x="177.129" y="0">nv</tspan><tspan class="cls-26" x="486.709" y="0">e</tspan><tspan class="cls-19" x="640.84" y="0">r</tspan><tspan class="cls-26" x="761.426" y="0">s</tspan><tspan class="cls-25" x="-100.151" y="300">V</tspan><tspan class="cls-26" x="68.921" y="300">e</tspan><tspan class="cls-32" x="223.052" y="300">r</tspan><tspan class="cls-26" x="348.472" y="300">vie</tspan><tspan class="cls-19" x="740.991" y="300">r</tspan><tspan class="cls-26" x="861.577" y="300">s</tspan><tspan class="cls-24" x="-25.488" y="600">A</tspan><tspan class="cls-26" x="153.398" y="600">a</tspan><tspan class="cls-28" x="310.312" y="600">c</tspan><tspan class="cls-26" x="461.66" y="600">hen</tspan></text>
    <g>
      <rect class="cls-22" x="869.5" y="392.481" width="382" height="226" rx="21.913" ry="21.913"/>
      <text class="cls-8" transform="translate(883.934 589.481)"><tspan class="cls-14" x="0" y="0">E</tspan><tspan class="cls-17" x="105.005" y="0"> </tspan><tspan class="cls-14" x="124.59" y="0">40</tspan></text>
    </g>
    <g>
      <rect class="cls-22" x="1616.5" y="392.481" width="2010" height="226" rx="21.913" ry="21.913"/>
      <text class="cls-10" transform="translate(1637.322 589.481)"><tspan class="cls-16" x="0" y="0">E</tspan><tspan class="cls-18" x="105.005" y="0"> </tspan><tspan class="cls-16" x="124.59" y="0">25–E</tspan><tspan class="cls-18" x="622.612" y="0"> </tspan><tspan class="cls-16" x="642.197" y="0">40–E</tspan><tspan class="cls-18" x="1147.056" y="0"> </tspan><tspan class="cls-16" x="1166.641" y="0">42–E</tspan><tspan class="cls-18" x="1661.367" y="0"> </tspan><tspan class="cls-13" x="1680.952" y="0">3</tspan><tspan class="cls-15" x="1791.572" y="0">1</tspan><tspan class="cls-16" x="1863.618" y="0">3</tspan></text>
    </g>
  </g>
  <g>
    <rect class="cls-30" x="4138.348" y="822.98" width="1530" height="1550" rx="36.13" ry="36.13"/>
    <rect class="cls-7" x="4158.348" y="842.98" width="1490" height="1510" rx="58.391" ry="58.391"/>
    <rect class="cls-30" x="4178.348" y="862.98" width="1450" height="1470" rx="38.391" ry="38.391"/>
    <polyline class="cls-7" points="5377.949 2020.039 5343.199 2054.789 5545.072 2256.662 5544.205 2035.783 5474.554 2116.643 5377.949 2020.039 5308.449 2089.539 5405.054 2186.143 5324.205 2255.783 5545.072 2256.662 5343.199 2054.789 5308.449 2089.539"/>
    <rect class="cls-7" x="4461.205" y="1703.783" width="887" height="248" rx="18.739" ry="18.739"/>
    <text class="cls-2" transform="translate(4284.693 1327.546)"><tspan class="cls-7"><tspan class="cls-26" x="0" y="0">Ba</tspan><tspan class="cls-31" x="345.762" y="0">s</tspan><tspan class="cls-34" x="498.135" y="0">t</tspan><tspan class="cls-26" x="614.619" y="0">ogne</tspan></tspan><tspan class="cls-7"><tspan class="cls-26" x="272.578" y="300">Liè</tspan><tspan class="cls-34" x="659.678" y="300">g</tspan><tspan class="cls-26" x="818.643" y="300">e</tspan></tspan><tspan class="cls-26" x="177.861" y="600">Cent</tspan><tspan class="cls-29" x="793.066" y="600">r</tspan><tspan class="cls-26" x="913.359" y="600">e</tspan></text>
    <g>
      <rect class="cls-22" x="4712.705" y="575.283" width="382" height="226" rx="21.913" ry="21.913"/>
      <text class="cls-8" transform="translate(4730.557 772.283)"><tspan class="cls-14" x="0" y="0">E</tspan><tspan class="cls-17" x="105.005" y="0"> </tspan><tspan class="cls-14" x="124.59" y="0">25</tspan></text>
    </g>
  </g>
  <g>
    <rect class="cls-30" x="478.304" y="3712.459" width="3670" height="1720" rx="36.13" ry="36.13"/>
    <rect class="cls-7" x="498.304" y="3732.459" width="3630" height="1680" rx="58.391" ry="58.391"/>
    <rect class="cls-30" x="518.304" y="3752.459" width="3590" height="1640" rx="38.391" ry="38.391"/>
    <polyline class="cls-7" points="2362.448 5094.458 2313.304 5094.458 2313.304 5312.459 2476.783 5183.136 2362.448 5183.136 2362.448 5094.458 2264.16 5094.458 2264.16 5183.136 2149.825 5183.136 2313.304 5312.459 2313.304 5094.458 2264.16 5094.458"/>
    <polyline class="cls-7" points="814.405 5094.458 765.261 5094.458 765.261 5312.459 928.739 5183.136 814.405 5183.136 814.405 5094.458 716.117 5094.458 716.117 5183.136 601.782 5183.136 765.261 5312.459 765.261 5094.458 716.117 5094.458"/>
    <polyline class="cls-7" points="3910.491 5094.458 3861.347 5094.458 3861.347 5312.459 4024.826 5183.136 3910.491 5183.136 3910.491 5094.458 3812.203 5094.458 3812.203 5183.136 3697.869 5183.136 3861.347 5312.459 3861.347 5094.458 3812.203 5094.458"/>
    <text class="cls-6" transform="translate(1213.048 4223.025)"><tspan class="cls-26"><tspan x="0" y="0">Gand</tspan></tspan><tspan class="cls-26" x="-294.434" y="300">B</tspan><tspan class="cls-12" x="-105.586" y="300">r</tspan><tspan class="cls-26" x="16.025" y="300">u</tspan><tspan class="cls-27" x="178.652" y="300">x</tspan><tspan class="cls-26" x="323.701" y="300">elles</tspan><tspan class="cls-26" x="-179.78" y="600">Lou</tspan><tspan class="cls-21" x="285.542" y="600">v</tspan><tspan class="cls-26" x="436.304" y="600">ain</tspan></text>
    <g>
      <path class="cls-7" d="M2681.493,4073.025h-39.111l58.594-199.951h42.627l58.74,199.951h-38.672l-8.496-28.711h-65.479l-8.203,28.711ZM2745.946,4011.062l-23.584-79.395-22.998,79.395h46.582Z"/>
      <path class="cls-7" d="M2836.503,3930.203h33.252v9.668c10.938-9.18,21.973-13.77,33.105-13.77,15.137,0,27.686,6.25,37.646,18.75,6.836,8.691,10.254,18.604,10.254,29.736v98.438h-33.252v-93.164c0-6.641-2.002-12.354-6.006-17.139-4.59-5.371-10.498-8.057-17.725-8.057-8.789,0-15.479,3.418-20.068,10.254-2.637,3.809-3.955,8.789-3.955,14.941v93.164h-33.252v-142.822Z"/>
      <path class="cls-7" d="M3067.831,4073.025h-42.48l-41.162-142.822h33.691l28.857,99.316,29.59-99.316h33.545l-42.041,142.822Z"/>
      <path class="cls-7" d="M3173.768,4023.66c0,6.445,1.855,11.865,5.566,16.26,4.785,5.664,10.742,8.496,17.871,8.496,8.887,0,15.771-4.346,20.654-13.037h34.131c-2.051,8.008-5.713,15.039-10.986,21.094-11.914,13.672-26.465,20.508-43.652,20.508-12.305,0-23.584-3.711-33.838-11.133-15.332-11.23-22.998-26.807-22.998-46.729v-34.57c0-13.672,3.809-25.586,11.426-35.742,4.98-6.641,11.182-11.914,18.604-15.82,8.105-4.199,16.943-6.299,26.514-6.299,12.793,0,24.316,3.711,34.57,11.133,9.668,7.129,16.455,17.041,20.361,29.736,1.855,6.25,2.783,11.914,2.783,16.992v28.564h-81.006v10.547ZM3221.083,3980.3c0-5.664-1.807-10.84-5.42-15.527-4.785-6.348-10.791-9.521-18.018-9.521-5.469,0-10.449,1.904-14.941,5.713-5.957,5.078-8.936,11.523-8.936,19.336v4.248h47.314v-4.248Z"/>
      <path class="cls-7" d="M3300.213,3930.642h33.252v12.305c4.199-3.809,8.301-6.689,12.305-8.643,5.176-2.344,11.865-3.564,20.068-3.662h17.725v28.564h-18.311c-9.18,0-16.65,3.027-22.412,9.082-6.152,6.348-9.277,14.258-9.375,23.73v81.006h-33.252v-142.383Z"/>
      <path class="cls-7" d="M3447.46,4031.277c1.074,3.223,3.027,5.762,5.859,7.617,4.883,3.125,11.035,4.688,18.457,4.688,8.887,0,15.674-1.855,20.361-5.566,3.125-2.539,4.688-5.518,4.688-8.936,0-1.367-.684-2.686-2.051-3.955-1.27-1.074-2.246-1.758-2.93-2.051l-44.385-14.062c-7.129-2.344-13.33-6.299-18.604-11.865-6.836-7.324-10.254-16.162-10.254-26.514,0-13.086,5.176-23.975,15.527-32.666,9.473-7.812,22.266-11.719,38.379-11.719,16.699,0,29.297,3.857,37.793,11.572,10.059,9.082,15.137,20.02,15.234,32.812h-32.08c-.488-3.516-1.904-5.957-4.248-7.324-4.004-2.539-9.473-3.809-16.406-3.809-13.965,0-20.947,3.467-20.947,10.4,0,4.492,2.246,7.422,6.738,8.789l43.066,13.623c7.227,2.246,13.428,6.494,18.604,12.744,6.152,7.324,9.229,15.82,9.229,25.488,0,13.965-5.908,25.391-17.725,34.277-10.84,8.105-23.975,12.158-39.404,12.158-16.406,0-30.273-4.346-41.602-13.037-9.961-7.715-15.137-17.09-15.527-28.125v-4.541h32.227Z"/>
      <path class="cls-7" d="M2656.004,4373.025h-39.111l58.594-199.951h42.627l58.74,199.951h-38.672l-8.496-28.711h-65.479l-8.203,28.711ZM2720.458,4311.062l-23.584-79.395-22.998,79.395h46.582Z"/>
      <path class="cls-7" d="M2863.749,4373.025h-13.33c-12.598,0-22.412-3.516-29.443-10.547-4.297-4.199-7.666-9.277-10.107-15.234-2.441-5.762-3.662-11.23-3.662-16.406,0-11.133,4.639-20.752,13.916-28.857,8.203-7.227,17.334-10.84,27.393-10.84h15.234c6.934,0,11.914-.879,14.941-2.637,5.078-2.832,7.617-7.617,7.617-14.355,0-5.566-2.393-10.303-7.178-14.209-4.395-3.516-9.473-5.273-15.234-5.273-10.938,0-18.75,5.957-23.438,17.871h-32.812c2.344-9.766,6.299-18.018,11.865-24.756,11.816-14.355,26.66-21.533,44.531-21.533,12.598,0,24.072,3.809,34.424,11.426,15.332,11.133,22.998,26.709,22.998,46.729v88.623h-33.252v-6.445c-9.961,4.395-18.115,6.543-24.463,6.445ZM2881.913,4314.431c-6.543,3.418-12.598,5.176-18.164,5.273h-10.4c-3.418,0-6.299.977-8.643,2.93-2.832,2.441-4.248,5.615-4.248,9.521,0,4.102,1.611,7.275,4.834,9.521,2.637,1.855,5.469,2.783,8.496,2.783h9.961c5.664,0,9.473-.221,11.426-.66s4.102-1.537,6.445-3.295c4.395-3.32,6.592-7.812,6.592-13.477v-15.967l-6.299,3.369Z"/>
      <path class="cls-7" d="M3078.378,4323.66c-.781,9.961-3.857,18.945-9.229,26.953-4.883,7.324-10.791,13.135-17.725,17.432-9.277,5.957-19.482,8.936-30.615,8.936-12.891,0-24.561-3.955-35.01-11.865-14.453-11.035-21.68-26.221-21.68-45.557v-35.742c0-15.723,5.029-28.955,15.088-39.697,11.328-12.012,25.244-18.018,41.748-18.018,14.258,0,26.611,4.395,37.061,13.184,8.496,7.129,14.453,16.602,17.871,28.418.684,2.539,1.514,6.25,2.49,11.133h-33.398c-.586-6.445-2.344-11.523-5.273-15.234-4.688-5.957-10.84-8.936-18.457-8.936-7.52,0-13.77,3.076-18.75,9.229-3.418,4.102-5.127,9.082-5.127,14.941v44.824c0,6.738,1.904,12.207,5.713,16.406,4.883,5.566,10.938,8.35,18.164,8.35,8.594,0,15.186-3.662,19.775-10.986,2.148-3.32,3.467-7.91,3.955-13.77h33.398Z"/>
      <path class="cls-7" d="M3121.034,4173.074h33.252v67.529c9.082-9.57,20.264-14.355,33.545-14.355,14.551,0,26.611,5.664,36.182,16.992,7.52,8.789,11.279,19.092,11.279,30.908v98.877h-33.252v-93.018c0-6.641-1.709-12.109-5.127-16.406-4.59-5.859-10.742-8.789-18.457-8.789-8.203,0-14.697,3.271-19.482,9.814-3.125,4.297-4.688,9.424-4.688,15.381v93.018h-33.252v-199.951Z"/>
      <path class="cls-7" d="M3311.346,4323.66c0,6.445,1.855,11.865,5.566,16.26,4.785,5.664,10.742,8.496,17.871,8.496,8.887,0,15.771-4.346,20.654-13.037h34.131c-2.051,8.008-5.713,15.039-10.986,21.094-11.914,13.672-26.465,20.508-43.652,20.508-12.305,0-23.584-3.711-33.838-11.133-15.332-11.23-22.998-26.807-22.998-46.729v-34.57c0-13.672,3.809-25.586,11.426-35.742,4.98-6.641,11.182-11.914,18.604-15.82,8.105-4.199,16.943-6.299,26.514-6.299,12.793,0,24.316,3.711,34.57,11.133,9.668,7.129,16.455,17.041,20.361,29.736,1.855,6.25,2.783,11.914,2.783,16.992v28.564h-81.006v10.547ZM3358.661,4280.3c0-5.664-1.807-10.84-5.42-15.527-4.785-6.348-10.791-9.521-18.018-9.521-5.469,0-10.449,1.904-14.941,5.713-5.957,5.078-8.936,11.523-8.936,19.336v4.248h47.314v-4.248Z"/>
      <path class="cls-7" d="M3437.792,4230.203h33.252v9.668c10.938-9.18,21.973-13.77,33.105-13.77,15.137,0,27.686,6.25,37.646,18.75,6.836,8.691,10.254,18.604,10.254,29.736v98.438h-33.252v-93.164c0-6.641-2.002-12.354-6.006-17.139-4.59-5.371-10.498-8.057-17.725-8.057-8.789,0-15.479,3.418-20.068,10.254-2.637,3.809-3.955,8.789-3.955,14.941v93.164h-33.252v-142.822Z"/>
      <path class="cls-7" d="M2394.911,4473.074h44.092l44.824,139.453,42.773-139.453h42.041v199.951h-36.621v-106.641l-32.812,106.641h-35.01l-36.035-110.889v110.889h-33.252v-199.951Z"/>
      <path class="cls-7" d="M2671.063,4673.025h-13.33c-12.598,0-22.412-3.516-29.443-10.547-4.297-4.199-7.666-9.277-10.107-15.234-2.441-5.762-3.662-11.23-3.662-16.406,0-11.133,4.639-20.752,13.916-28.857,8.203-7.227,17.334-10.84,27.393-10.84h15.234c6.934,0,11.914-.879,14.941-2.637,5.078-2.832,7.617-7.617,7.617-14.355,0-5.566-2.393-10.303-7.178-14.209-4.395-3.516-9.473-5.273-15.234-5.273-10.938,0-18.75,5.957-23.438,17.871h-32.812c2.344-9.766,6.299-18.018,11.865-24.756,11.816-14.355,26.66-21.533,44.531-21.533,12.598,0,24.072,3.809,34.424,11.426,15.332,11.133,22.998,26.709,22.998,46.729v88.623h-33.252v-6.445c-9.961,4.395-18.115,6.543-24.463,6.445ZM2689.227,4614.431c-6.543,3.418-12.598,5.176-18.164,5.273h-10.4c-3.418,0-6.299.977-8.643,2.93-2.832,2.441-4.248,5.615-4.248,9.521,0,4.102,1.611,7.275,4.834,9.521,2.637,1.855,5.469,2.783,8.496,2.783h9.961c5.664,0,9.473-.221,11.426-.66s4.102-1.537,6.445-3.295c4.395-3.32,6.592-7.812,6.592-13.477v-15.967l-6.299,3.369Z"/>
      <path class="cls-7" d="M2827.977,4673.025h-13.33c-12.598,0-22.412-3.516-29.443-10.547-4.297-4.199-7.666-9.277-10.107-15.234-2.441-5.762-3.662-11.23-3.662-16.406,0-11.133,4.639-20.752,13.916-28.857,8.203-7.227,17.334-10.84,27.393-10.84h15.234c6.934,0,11.914-.879,14.941-2.637,5.078-2.832,7.617-7.617,7.617-14.355,0-5.566-2.393-10.303-7.178-14.209-4.395-3.516-9.473-5.273-15.234-5.273-10.938,0-18.75,5.957-23.438,17.871h-32.812c2.344-9.766,6.299-18.018,11.865-24.756,11.816-14.355,26.66-21.533,44.531-21.533,12.598,0,24.072,3.809,34.424,11.426,15.332,11.133,22.998,26.709,22.998,46.729v88.623h-33.252v-6.445c-9.961,4.395-18.115,6.543-24.463,6.445ZM2846.141,4614.431c-6.543,3.418-12.598,5.176-18.164,5.273h-10.4c-3.418,0-6.299.977-8.643,2.93-2.832,2.441-4.248,5.615-4.248,9.521,0,4.102,1.611,7.275,4.834,9.521,2.637,1.855,5.469,2.783,8.496,2.783h9.961c5.664,0,9.473-.221,11.426-.66s4.102-1.537,6.445-3.295c4.395-3.32,6.592-7.812,6.592-13.477v-15.967l-6.299,3.369Z"/>
      <path class="cls-7" d="M2960.575,4631.277c1.074,3.223,3.027,5.762,5.859,7.617,4.883,3.125,11.035,4.688,18.457,4.688,8.887,0,15.674-1.855,20.361-5.566,3.125-2.539,4.688-5.518,4.688-8.936,0-1.367-.684-2.686-2.051-3.955-1.27-1.074-2.246-1.758-2.93-2.051l-44.385-14.062c-7.129-2.344-13.33-6.299-18.604-11.865-6.836-7.324-10.254-16.162-10.254-26.514,0-13.086,5.176-23.975,15.527-32.666,9.473-7.812,22.266-11.719,38.379-11.719,16.699,0,29.297,3.857,37.793,11.572,10.059,9.082,15.137,20.02,15.234,32.812h-32.08c-.488-3.516-1.904-5.957-4.248-7.324-4.004-2.539-9.473-3.809-16.406-3.809-13.965,0-20.947,3.467-20.947,10.4,0,4.492,2.246,7.422,6.738,8.789l43.066,13.623c7.227,2.246,13.428,6.494,18.604,12.744,6.152,7.324,9.229,15.82,9.229,25.488,0,13.965-5.908,25.391-17.725,34.277-10.84,8.105-23.975,12.158-39.404,12.158-16.406,0-30.273-4.346-41.602-13.037-9.961-7.715-15.137-17.09-15.527-28.125v-4.541h32.227Z"/>
      <path class="cls-7" d="M3128.622,4635.818c.098,5.762,3.027,8.643,8.789,8.643h19.775v28.564h-25.049c-9.766,0-18.115-3.174-25.049-9.521-7.91-7.422-11.816-16.65-11.719-27.686v-76.172h-16.699v-28.564h16.699v-37.793l33.252-19.336v57.129h33.398v28.564h-33.398v76.172Z"/>
      <path class="cls-7" d="M3203.651,4530.642h33.252v12.305c4.199-3.809,8.301-6.689,12.305-8.643,5.176-2.344,11.865-3.564,20.068-3.662h17.725v28.564h-18.311c-9.18,0-16.65,3.027-22.412,9.082-6.152,6.348-9.277,14.258-9.375,23.73v81.006h-33.252v-142.383Z"/>
      <path class="cls-7" d="M3323.797,4530.203h33.252v142.822h-33.252v-142.822ZM3326.141,4478.787h28.564v28.564h-28.564v-28.564Z"/>
      <path class="cls-7" d="M3516.893,4623.66c-.781,9.961-3.857,18.945-9.229,26.953-4.883,7.324-10.791,13.135-17.725,17.432-9.277,5.957-19.482,8.936-30.615,8.936-12.891,0-24.561-3.955-35.01-11.865-14.453-11.035-21.68-26.221-21.68-45.557v-35.742c0-15.723,5.029-28.955,15.088-39.697,11.328-12.012,25.244-18.018,41.748-18.018,14.258,0,26.611,4.395,37.061,13.184,8.496,7.129,14.453,16.602,17.871,28.418.684,2.539,1.514,6.25,2.49,11.133h-33.398c-.586-6.445-2.344-11.523-5.273-15.234-4.688-5.957-10.84-8.936-18.457-8.936-7.52,0-13.77,3.076-18.75,9.229-3.418,4.102-5.127,9.082-5.127,14.941v44.824c0,6.738,1.904,12.207,5.713,16.406,4.883,5.566,10.938,8.35,18.164,8.35,8.594,0,15.186-3.662,19.775-10.986,2.148-3.32,3.467-7.91,3.955-13.77h33.398Z"/>
      <path class="cls-7" d="M3559.549,4473.074h33.252v67.529c9.082-9.57,20.264-14.355,33.545-14.355,14.551,0,26.611,5.664,36.182,16.992,7.52,8.789,11.279,19.092,11.279,30.908v98.877h-33.252v-93.018c0-6.641-1.709-12.109-5.127-16.406-4.59-5.859-10.742-8.789-18.457-8.789-8.203,0-14.697,3.271-19.482,9.814-3.125,4.297-4.688,9.424-4.688,15.381v93.018h-33.252v-199.951Z"/>
      <path class="cls-7" d="M3764.51,4635.818c.098,5.762,3.027,8.643,8.789,8.643h19.775v28.564h-25.049c-9.766,0-18.115-3.174-25.049-9.521-7.91-7.422-11.816-16.65-11.719-27.686v-76.172h-16.699v-28.564h16.699v-37.793l33.252-19.336v57.129h33.398v28.564h-33.398v76.172Z"/>
      <path class="cls-7" d="M2643.744,4973.025h-43.359l-58.154-199.951h39.404l41.016,138.867,41.016-138.867h38.525l-58.447,199.951Z"/>
      <path class="cls-7" d="M2755.98,4923.66c0,6.445,1.855,11.865,5.566,16.26,4.785,5.664,10.742,8.496,17.871,8.496,8.887,0,15.771-4.346,20.654-13.037h34.131c-2.051,8.008-5.713,15.039-10.986,21.094-11.914,13.672-26.465,20.508-43.652,20.508-12.305,0-23.584-3.711-33.838-11.133-15.332-11.23-22.998-26.807-22.998-46.729v-34.57c0-13.672,3.809-25.586,11.426-35.742,4.98-6.641,11.182-11.914,18.604-15.82,8.105-4.199,16.943-6.299,26.514-6.299,12.793,0,24.316,3.711,34.57,11.133,9.668,7.129,16.455,17.041,20.361,29.736,1.855,6.25,2.783,11.914,2.783,16.992v28.564h-81.006v10.547ZM2803.294,4880.3c0-5.664-1.807-10.84-5.42-15.527-4.785-6.348-10.791-9.521-18.018-9.521-5.469,0-10.449,1.904-14.941,5.713-5.957,5.078-8.936,11.523-8.936,19.336v4.248h47.314v-4.248Z"/>
      <path class="cls-7" d="M2882.425,4830.642h33.252v12.305c4.199-3.809,8.301-6.689,12.305-8.643,5.176-2.344,11.865-3.564,20.068-3.662h17.725v28.564h-18.311c-9.18,0-16.65,3.027-22.412,9.082-6.152,6.348-9.277,14.258-9.375,23.73v81.006h-33.252v-142.383Z"/>
      <path class="cls-7" d="M3080.062,4973.025h-42.48l-41.162-142.822h33.691l28.857,99.316,29.59-99.316h33.545l-42.041,142.822Z"/>
      <path class="cls-7" d="M3161.83,4830.203h33.252v142.822h-33.252v-142.822ZM3164.173,4778.787h28.564v28.564h-28.564v-28.564Z"/>
      <path class="cls-7" d="M3273.919,4923.66c0,6.445,1.855,11.865,5.566,16.26,4.785,5.664,10.742,8.496,17.871,8.496,8.887,0,15.771-4.346,20.654-13.037h34.131c-2.051,8.008-5.713,15.039-10.986,21.094-11.914,13.672-26.465,20.508-43.652,20.508-12.305,0-23.584-3.711-33.838-11.133-15.332-11.23-22.998-26.807-22.998-46.729v-34.57c0-13.672,3.809-25.586,11.426-35.742,4.98-6.641,11.182-11.914,18.604-15.82,8.105-4.199,16.943-6.299,26.514-6.299,12.793,0,24.316,3.711,34.57,11.133,9.668,7.129,16.455,17.041,20.361,29.736,1.855,6.25,2.783,11.914,2.783,16.992v28.564h-81.006v10.547ZM3321.234,4880.3c0-5.664-1.807-10.84-5.42-15.527-4.785-6.348-10.791-9.521-18.018-9.521-5.469,0-10.449,1.904-14.941,5.713-5.957,5.078-8.936,11.523-8.936,19.336v4.248h47.314v-4.248Z"/>
      <path class="cls-7" d="M3400.365,4830.642h33.252v12.305c4.199-3.809,8.301-6.689,12.305-8.643,5.176-2.344,11.865-3.564,20.068-3.662h17.725v28.564h-18.311c-9.18,0-16.65,3.027-22.412,9.082-6.152,6.348-9.277,14.258-9.375,23.73v81.006h-33.252v-142.383Z"/>
      <path class="cls-7" d="M3547.611,4931.277c1.074,3.223,3.027,5.762,5.859,7.617,4.883,3.125,11.035,4.688,18.457,4.688,8.887,0,15.674-1.855,20.361-5.566,3.125-2.539,4.688-5.518,4.688-8.936,0-1.367-.684-2.686-2.051-3.955-1.27-1.074-2.246-1.758-2.93-2.051l-44.385-14.062c-7.129-2.344-13.33-6.299-18.604-11.865-6.836-7.324-10.254-16.162-10.254-26.514,0-13.086,5.176-23.975,15.527-32.666,9.473-7.812,22.266-11.719,38.379-11.719,16.699,0,29.297,3.857,37.793,11.572,10.059,9.082,15.137,20.02,15.234,32.812h-32.08c-.488-3.516-1.904-5.957-4.248-7.324-4.004-2.539-9.473-3.809-16.406-3.809-13.965,0-20.947,3.467-20.947,10.4,0,4.492,2.246,7.422,6.738,8.789l43.066,13.623c7.227,2.246,13.428,6.494,18.604,12.744,6.152,7.324,9.229,15.82,9.229,25.488,0,13.965-5.908,25.391-17.725,34.277-10.84,8.105-23.975,12.158-39.404,12.158-16.406,0-30.273-4.346-41.602-13.037-9.961-7.715-15.137-17.09-15.527-28.125v-4.541h32.227Z"/>
    </g>
    <g>
      <rect class="cls-22" x="1348.282" y="5089.959" width="382" height="226" rx="21.913" ry="21.913"/>
      <text class="cls-8" transform="translate(1362.716 5286.958)"><tspan class="cls-14" x="0" y="0">E</tspan><tspan class="cls-17" x="105.005" y="0"> </tspan><tspan class="cls-14" x="124.59" y="0">40</tspan></text>
    </g>
    <g>
      <rect class="cls-9" x="2935.233" y="5096.283" width="302.759" height="212.676" rx="21.913" ry="21.913"/>
      <text class="cls-4" transform="translate(2948.129 5289.021) scale(.968 1)"><tspan x="0" y="0">R7</tspan></text>
    </g>
  </g>
  <g>
    <rect class="cls-30" x="4563.609" y="3930.34" width="1530" height="1550" rx="36.13" ry="36.13"/>
    <rect class="cls-7" x="4583.609" y="3950.34" width="1490" height="1510" rx="58.391" ry="58.391"/>
    <rect class="cls-30" x="4603.609" y="3970.34" width="1450" height="1470" rx="38.391" ry="38.391"/>
    <polyline class="cls-7" points="5803.211 5127.398 5768.461 5162.148 5970.334 5364.021 5969.467 5143.142 5899.815 5224.003 5803.211 5127.398 5733.711 5196.898 5830.315 5293.503 5749.467 5363.142 5970.334 5364.021 5768.461 5162.148 5733.711 5196.898"/>
    <rect class="cls-7" x="4886.205" y="4736.783" width="887" height="248" rx="18.739" ry="18.739"/>
    <text class="cls-11" transform="translate(4714.571 4360.546)"><tspan class="cls-10"><tspan class="cls-33" x="0" y="0">L</tspan><tspan class="cls-26" x="116.338" y="0">u</tspan><tspan class="cls-21" x="241.025" y="0">x</tspan><tspan class="cls-26" x="351.797" y="0">embou</tspan><tspan class="cls-35" x="1018.154" y="0">r</tspan><tspan class="cls-26" x="1113.838" y="0">g</tspan></tspan><tspan class="cls-1"><tspan class="cls-26" x="267.7" y="300">Liè</tspan><tspan class="cls-34" x="654.8" y="300">g</tspan><tspan class="cls-26" x="813.765" y="300">e</tspan></tspan><tspan class="cls-3"><tspan class="cls-26" x="172.983" y="600">Cent</tspan><tspan class="cls-29" x="788.188" y="600">r</tspan><tspan class="cls-26" x="908.481" y="600">e</tspan></tspan></text>
    <g>
      <rect class="cls-22" x="5137.705" y="5132.283" width="382" height="226" rx="21.913" ry="21.913"/>
      <text class="cls-8" transform="translate(5155.557 5329.283)"><tspan class="cls-14" x="0" y="0">E</tspan><tspan class="cls-17" x="105.005" y="0"> </tspan><tspan class="cls-14" x="124.59" y="0">25</tspan></text>
    </g>
  </g>
  <g>
    <rect class="cls-30" x="6341.292" y="1691.913" width="1530" height="1550" rx="36.13" ry="36.13"/>
    <rect class="cls-7" x="6361.292" y="1711.913" width="1490" height="1510" rx="58.391" ry="58.391"/>
    <rect class="cls-30" x="6381.292" y="1731.913" width="1450" height="1470" rx="38.391" ry="38.391"/>
    <polyline class="cls-7" points="7580.894 2888.971 7546.144 2923.721 7748.017 3125.594 7747.149 2904.715 7677.498 2985.576 7580.894 2888.971 7511.394 2958.471 7607.998 3055.076 7527.149 3124.715 7748.017 3125.594 7546.144 2923.721 7511.394 2958.471"/>
    <rect class="cls-7" x="6664.205" y="2243.783" width="887" height="259" rx="18.739" ry="18.739"/>
    <g>
      <rect class="cls-20" x="6478.205" y="2569.783" width="1257" height="239" rx="33" ry="33"/>
      <rect x="6991.205" y="2587.783" width="229" height="203" rx="18.739" ry="18.739"/>
      <text class="cls-5" transform="translate(6993.332 2772.652)"><tspan x="0" y="0">S1</tspan></text>
    </g>
    <g>
      <path class="cls-7" d="M6817.548,2142.867h77.637v33.252h-114.258v-199.951h36.621v166.699Z"/>
      <path class="cls-7" d="M6929.345,2033.296h33.252v142.822h-33.252v-142.822ZM6931.689,1981.88h28.564v28.564h-28.564v-28.564Z"/>
      <path class="cls-7" d="M7041.435,2126.753c0,6.445,1.855,11.865,5.566,16.26,4.785,5.664,10.742,8.496,17.871,8.496,8.887,0,15.771-4.346,20.654-13.037h34.131c-2.051,8.008-5.713,15.039-10.986,21.094-11.914,13.672-26.465,20.508-43.652,20.508-12.305,0-23.584-3.711-33.838-11.133-15.332-11.23-22.998-26.807-22.998-46.729v-34.57c0-13.672,3.809-25.586,11.426-35.742,4.98-6.641,11.182-11.914,18.604-15.82,8.105-4.199,16.943-6.299,26.514-6.299,12.793,0,24.316,3.711,34.57,11.133,9.668,7.129,16.455,17.041,20.361,29.736,1.855,6.25,2.783,11.914,2.783,16.992v28.564h-81.006v10.547ZM7012.431,1981.734h30.029l43.066,37.207h-30.029l-43.066-37.207ZM7088.749,2083.394c0-5.664-1.807-10.84-5.42-15.527-4.785-6.348-10.791-9.521-18.018-9.521-5.469,0-10.449,1.904-14.941,5.713-5.957,5.078-8.936,11.523-8.936,19.336v4.248h47.314v-4.248Z"/>
      <path class="cls-7" d="M7276.571,2176.997c0,13.965-3.955,26.318-11.865,37.061-4.98,6.738-11.084,12.109-18.311,16.113-8.496,4.688-17.529,7.031-27.1,7.031-14.648,0-27.393-4.98-38.232-14.941-3.32-2.93-6.494-6.934-9.521-12.012l27.539-14.502c4.98,8.594,11.768,12.891,20.361,12.891,9.082,0,15.82-4.053,20.215-12.158,2.441-4.395,3.662-9.033,3.662-13.916v-21.387c-9.277,9.961-20.703,14.941-34.277,14.941-15.137,0-27.441-6.152-36.914-18.457-6.543-8.398-9.814-18.506-9.814-30.322v-49.219c0-11.23,3.125-21.045,9.375-29.443,4.395-5.859,9.961-10.498,16.699-13.916,6.934-3.613,14.209-5.42,21.826-5.42,9.082,0,17.822,2.93,26.221,8.789,1.855,1.27,4.15,3.027,6.885,5.273v-10.107h33.252v143.701ZM7243.319,2084.126c0-6.25-1.172-11.23-3.516-14.941-1.562-2.441-3.564-4.541-6.006-6.299-4.395-3.32-9.131-4.98-14.209-4.98-6.152,0-11.475,2.148-15.967,6.445-5.371,5.078-8.057,11.67-8.057,19.775v37.061c0,6.738,1.514,12.207,4.541,16.406,4.883,6.641,11.23,9.961,19.043,9.961,5.859,0,11.084-2.051,15.674-6.152,5.664-5.176,8.496-11.914,8.496-20.215v-37.061Z"/>
      <path class="cls-7" d="M7354.53,2126.753c0,6.445,1.855,11.865,5.566,16.26,4.785,5.664,10.742,8.496,17.871,8.496,8.887,0,15.771-4.346,20.654-13.037h34.131c-2.051,8.008-5.713,15.039-10.986,21.094-11.914,13.672-26.465,20.508-43.652,20.508-12.305,0-23.584-3.711-33.838-11.133-15.332-11.23-22.998-26.807-22.998-46.729v-34.57c0-13.672,3.809-25.586,11.426-35.742,4.98-6.641,11.182-11.914,18.604-15.82,8.105-4.199,16.943-6.299,26.514-6.299,12.793,0,24.316,3.711,34.57,11.133,9.668,7.129,16.455,17.041,20.361,29.736,1.855,6.25,2.783,11.914,2.783,16.992v28.564h-81.006v10.547ZM7401.845,2083.394c0-5.664-1.807-10.84-5.42-15.527-4.785-6.348-10.791-9.521-18.018-9.521-5.469,0-10.449,1.904-14.941,5.713-5.957,5.078-8.936,11.523-8.936,19.336v4.248h47.314v-4.248Z"/>
      <path d="M6819.511,2410.347v2.637c0,9.766-2.441,19.385-7.324,28.857-5.273,10.059-12.451,18.359-21.533,24.902-12.305,8.887-25.83,13.33-40.576,13.33-15.527,0-29.639-4.98-42.334-14.941-16.895-13.379-25.342-31.641-25.342-54.785v-68.555c0-15.82,4.395-29.688,13.184-41.602,5.371-7.422,11.865-13.428,19.482-18.018,10.84-6.641,22.754-9.961,35.742-9.961,16.113,0,30.42,4.932,42.92,14.795,15.332,12.012,23.926,27.441,25.781,46.289h-37.646c-1.172-5.859-3.076-10.645-5.713-14.355-6.25-8.984-14.844-13.477-25.781-13.477-11.035,0-19.727,4.541-26.074,13.623-3.516,5.078-5.273,10.889-5.273,17.432v78.369c0,7.129,1.66,13.086,4.98,17.871,2.148,3.223,4.883,5.957,8.203,8.203,5.664,3.906,11.719,5.859,18.164,5.859,10.156,0,18.555-4.15,25.195-12.451,4.199-5.176,6.299-11.67,6.299-19.482v-4.541h37.646Z"/>
      <path d="M6894.833,2426.753c0,6.445,1.855,11.865,5.566,16.26,4.785,5.664,10.742,8.496,17.871,8.496,8.887,0,15.771-4.346,20.654-13.037h34.131c-2.051,8.008-5.713,15.039-10.986,21.094-11.914,13.672-26.465,20.508-43.652,20.508-12.305,0-23.584-3.711-33.838-11.133-15.332-11.23-22.998-26.807-22.998-46.729v-34.57c0-13.672,3.809-25.586,11.426-35.742,4.98-6.641,11.182-11.914,18.604-15.82,8.105-4.199,16.943-6.299,26.514-6.299,12.793,0,24.316,3.711,34.57,11.133,9.668,7.129,16.455,17.041,20.361,29.736,1.855,6.25,2.783,11.914,2.783,16.992v28.564h-81.006v10.547ZM6942.148,2383.394c0-5.664-1.807-10.84-5.42-15.527-4.785-6.348-10.791-9.521-18.018-9.521-5.469,0-10.449,1.904-14.941,5.713-5.957,5.078-8.936,11.523-8.936,19.336v4.248h47.314v-4.248Z"/>
      <path d="M7021.278,2333.296h33.252v9.668c10.938-9.18,21.973-13.77,33.105-13.77,15.137,0,27.686,6.25,37.646,18.75,6.836,8.691,10.254,18.604,10.254,29.736v98.438h-33.252v-93.164c0-6.641-2.002-12.354-6.006-17.139-4.59-5.371-10.498-8.057-17.725-8.057-8.789,0-15.479,3.418-20.068,10.254-2.637,3.809-3.955,8.789-3.955,14.941v93.164h-33.252v-142.822Z"/>
      <path d="M7226.239,2438.912c.098,5.762,3.027,8.643,8.789,8.643h19.775v28.564h-25.049c-9.766,0-18.115-3.174-25.049-9.521-7.91-7.422-11.816-16.65-11.719-27.686v-76.172h-16.699v-28.564h16.699v-37.793l33.252-19.336v57.129h33.398v28.564h-33.398v76.172Z"/>
      <path d="M7301.269,2333.736h33.252v12.305c4.199-3.809,8.301-6.689,12.305-8.643,5.176-2.344,11.865-3.564,20.068-3.662h17.725v28.564h-18.311c-9.18,0-16.65,3.027-22.412,9.082-6.152,6.348-9.277,14.258-9.375,23.73v81.006h-33.252v-142.383Z"/>
      <path d="M7449.247,2426.753c0,6.445,1.855,11.865,5.566,16.26,4.785,5.664,10.742,8.496,17.871,8.496,8.887,0,15.771-4.346,20.654-13.037h34.131c-2.051,8.008-5.713,15.039-10.986,21.094-11.914,13.672-26.465,20.508-43.652,20.508-12.305,0-23.584-3.711-33.838-11.133-15.332-11.23-22.998-26.807-22.998-46.729v-34.57c0-13.672,3.809-25.586,11.426-35.742,4.98-6.641,11.182-11.914,18.604-15.82,8.105-4.199,16.943-6.299,26.514-6.299,12.793,0,24.316,3.711,34.57,11.133,9.668,7.129,16.455,17.041,20.361,29.736,1.855,6.25,2.783,11.914,2.783,16.992v28.564h-81.006v10.547ZM7496.562,2383.394c0-5.664-1.807-10.84-5.42-15.527-4.785-6.348-10.791-9.521-18.018-9.521-5.469,0-10.449,1.904-14.941,5.713-5.957,5.078-8.936,11.523-8.936,19.336v4.248h47.314v-4.248Z"/>
    </g>
    <g>
      <rect class="cls-22" x="6915.388" y="2893.855" width="382" height="226" rx="21.913" ry="21.913"/>
      <text class="cls-8" transform="translate(6933.24 3090.855)"><tspan class="cls-14" x="0" y="0">E</tspan><tspan class="cls-17" x="105.005" y="0"> </tspan><tspan class="cls-14" x="124.59" y="0">25</tspan></text>
    </g>
  </g>
  <g>
    <rect class="cls-30" x="6341.075" width="1530" height="1550" rx="36.13" ry="36.13"/>
    <rect class="cls-7" x="6361.075" y="20" width="1490" height="1510" rx="58.391" ry="58.391"/>
    <rect class="cls-30" x="6381.075" y="40" width="1450" height="1470" rx="38.391" ry="38.391"/>
    <polyline class="cls-7" points="7580.676 1197.058 7545.926 1231.808 7747.799 1433.681 7746.932 1212.802 7677.28 1293.663 7580.676 1197.058 7511.176 1266.558 7607.78 1363.163 7526.932 1432.802 7747.799 1433.681 7545.926 1231.808 7511.176 1266.558"/>
    <rect class="cls-7" x="6663.671" y="806.442" width="887" height="248" rx="18.739" ry="18.739"/>
    <text class="cls-11" transform="translate(6492.037 430.206)"><tspan class="cls-10"><tspan class="cls-33" x="0" y="0">L</tspan><tspan class="cls-26" x="116.338" y="0">u</tspan><tspan class="cls-21" x="241.025" y="0">x</tspan><tspan class="cls-26" x="351.797" y="0">embou</tspan><tspan class="cls-35" x="1018.154" y="0">r</tspan><tspan class="cls-26" x="1113.838" y="0">g</tspan></tspan><tspan class="cls-1"><tspan class="cls-26" x="267.7" y="300">Liè</tspan><tspan class="cls-34" x="654.8" y="300">g</tspan><tspan class="cls-26" x="813.765" y="300">e</tspan></tspan><tspan class="cls-3"><tspan class="cls-26" x="172.983" y="600">Cent</tspan><tspan class="cls-29" x="788.188" y="600">r</tspan><tspan class="cls-26" x="908.481" y="600">e</tspan></tspan></text>
    <g>
      <rect class="cls-22" x="6942.171" y="1201.942" width="382" height="226" rx="21.913" ry="21.913"/>
      <text class="cls-8" transform="translate(6960.023 1398.942)"><tspan class="cls-14" x="0" y="0">E</tspan><tspan class="cls-17" x="105.005" y="0"> </tspan><tspan class="cls-14" x="124.59" y="0">25</tspan></text>
    </g>
    <g>
      <rect class="cls-20" x="6577.205" y="1195.783" width="265" height="239" rx="33" ry="33"/>
      <rect x="6594.205" y="1213.783" width="229" height="203" rx="18.739" ry="18.739"/>
      <text class="cls-5" transform="translate(6596.332 1398.652)"><tspan x="0" y="0">S1</tspan></text>
    </g>
  </g>
</svg>